<svg width="1440" height="283" viewBox="0 0 1440 283" fill="none" xmlns="http://www.w3.org/2000/svg">
<path d="M219.248 76.648H209.776L208.016 81H201.552L211.44 58.6H217.68L227.6 81H221.008L219.248 76.648ZM217.392 71.976L214.512 64.808L211.632 71.976H217.392ZM240.02 63.368C241.599 63.368 243.028 63.7413 244.308 64.488C245.61 65.2133 246.634 66.2587 247.38 67.624C248.148 68.968 248.532 70.536 248.532 72.328C248.532 74.12 248.148 75.6987 247.38 77.064C246.634 78.408 245.61 79.4533 244.308 80.2C243.028 80.9253 241.599 81.288 240.02 81.288C237.994 81.288 236.383 80.68 235.188 79.464V87.208H229.108V63.656H234.9V65.384C236.031 64.04 237.738 63.368 240.02 63.368ZM238.74 76.456C239.807 76.456 240.682 76.0933 241.364 75.368C242.047 74.6213 242.388 73.608 242.388 72.328C242.388 71.048 242.047 70.0453 241.364 69.32C240.682 68.5733 239.807 68.2 238.74 68.2C237.674 68.2 236.799 68.5733 236.116 69.32C235.434 70.0453 235.092 71.048 235.092 72.328C235.092 73.608 235.434 74.6213 236.116 75.368C236.799 76.0933 237.674 76.456 238.74 76.456ZM251.358 57.256H257.438V81H251.358V57.256ZM261.39 63.656H267.47V81H261.39V63.656ZM264.43 61.736C263.32 61.736 262.424 61.4267 261.742 60.808C261.059 60.1893 260.718 59.4213 260.718 58.504C260.718 57.5867 261.059 56.8187 261.742 56.2C262.424 55.5813 263.32 55.272 264.43 55.272C265.539 55.272 266.435 55.5707 267.118 56.168C267.8 56.744 268.142 57.4907 268.142 58.408C268.142 59.368 267.8 60.168 267.118 60.808C266.435 61.4267 265.539 61.736 264.43 61.736ZM280.285 81.288C278.365 81.288 276.647 80.904 275.133 80.136C273.618 79.368 272.434 78.3013 271.581 76.936C270.749 75.5707 270.333 74.024 270.333 72.296C270.333 70.568 270.749 69.032 271.581 67.688C272.434 66.3227 273.618 65.2667 275.133 64.52C276.647 63.752 278.365 63.368 280.285 63.368C282.247 63.368 283.943 63.7947 285.373 64.648C286.802 65.48 287.815 66.6427 288.413 68.136L283.709 70.536C282.919 68.9787 281.767 68.2 280.253 68.2C279.165 68.2 278.258 68.5627 277.533 69.288C276.829 70.0133 276.477 71.016 276.477 72.296C276.477 73.5973 276.829 74.6213 277.533 75.368C278.258 76.0933 279.165 76.456 280.253 76.456C281.767 76.456 282.919 75.6773 283.709 74.12L288.413 76.52C287.815 78.0133 286.802 79.1867 285.373 80.04C283.943 80.872 282.247 81.288 280.285 81.288ZM298.094 63.368C300.974 63.368 303.171 64.0293 304.686 65.352C306.201 66.6533 306.958 68.6587 306.958 71.368V81H301.294V78.76C300.419 80.4453 298.713 81.288 296.174 81.288C294.83 81.288 293.667 81.0533 292.686 80.584C291.705 80.1147 290.958 79.4853 290.446 78.696C289.955 77.8853 289.71 76.968 289.71 75.944C289.71 74.3013 290.339 73.032 291.598 72.136C292.857 71.2187 294.798 70.76 297.422 70.76H300.878C300.771 68.9253 299.545 68.008 297.198 68.008C296.366 68.008 295.523 68.1467 294.67 68.424C293.817 68.68 293.091 69.0427 292.494 69.512L290.446 65.384C291.406 64.744 292.569 64.2533 293.934 63.912C295.321 63.5493 296.707 63.368 298.094 63.368ZM297.87 77.448C298.574 77.448 299.193 77.2773 299.726 76.936C300.259 76.5947 300.643 76.0933 300.878 75.432V73.928H298.254C296.483 73.928 295.598 74.5147 295.598 75.688C295.598 76.2213 295.801 76.648 296.206 76.968C296.611 77.288 297.166 77.448 297.87 77.448ZM319.91 81.288C317.99 81.288 316.272 80.904 314.758 80.136C313.243 79.368 312.059 78.3013 311.206 76.936C310.374 75.5707 309.958 74.024 309.958 72.296C309.958 70.568 310.374 69.032 311.206 67.688C312.059 66.3227 313.243 65.2667 314.758 64.52C316.272 63.752 317.99 63.368 319.91 63.368C321.872 63.368 323.568 63.7947 324.998 64.648C326.427 65.48 327.44 66.6427 328.038 68.136L323.334 70.536C322.544 68.9787 321.392 68.2 319.878 68.2C318.79 68.2 317.883 68.5627 317.158 69.288C316.454 70.0133 316.102 71.016 316.102 72.296C316.102 73.5973 316.454 74.6213 317.158 75.368C317.883 76.0933 318.79 76.456 319.878 76.456C321.392 76.456 322.544 75.6773 323.334 74.12L328.038 76.52C327.44 78.0133 326.427 79.1867 324.998 80.04C323.568 80.872 321.872 81.288 319.91 81.288ZM330.327 63.656H336.407V81H330.327V63.656ZM333.367 61.736C332.258 61.736 331.362 61.4267 330.679 60.808C329.996 60.1893 329.655 59.4213 329.655 58.504C329.655 57.5867 329.996 56.8187 330.679 56.2C331.362 55.5813 332.258 55.272 333.367 55.272C334.476 55.272 335.372 55.5707 336.055 56.168C336.738 56.744 337.079 57.4907 337.079 58.408C337.079 59.368 336.738 60.168 336.055 60.808C335.372 61.4267 334.476 61.736 333.367 61.736ZM349.062 81.288C347.206 81.288 345.532 80.904 344.038 80.136C342.545 79.368 341.372 78.3013 340.518 76.936C339.686 75.5707 339.27 74.024 339.27 72.296C339.27 70.5893 339.686 69.0533 340.518 67.688C341.372 66.3227 342.534 65.2667 344.006 64.52C345.5 63.752 347.185 63.368 349.062 63.368C350.94 63.368 352.625 63.752 354.118 64.52C355.612 65.2667 356.774 66.3227 357.606 67.688C358.438 69.032 358.854 70.568 358.854 72.296C358.854 74.024 358.438 75.5707 357.606 76.936C356.774 78.3013 355.612 79.368 354.118 80.136C352.625 80.904 350.94 81.288 349.062 81.288ZM349.062 76.456C350.129 76.456 351.004 76.0933 351.686 75.368C352.369 74.6213 352.71 73.5973 352.71 72.296C352.71 71.016 352.369 70.0133 351.686 69.288C351.004 68.5627 350.129 68.2 349.062 68.2C347.996 68.2 347.121 68.5627 346.438 69.288C345.756 70.0133 345.414 71.016 345.414 72.296C345.414 73.5973 345.756 74.6213 346.438 75.368C347.121 76.0933 347.996 76.456 349.062 76.456ZM372.967 63.368C375.121 63.368 376.849 64.008 378.151 65.288C379.473 66.568 380.135 68.4987 380.135 71.08V81H374.055V72.072C374.055 69.704 373.105 68.52 371.207 68.52C370.161 68.52 369.319 68.8613 368.679 69.544C368.06 70.2267 367.751 71.2507 367.751 72.616V81H361.671V63.656H367.463V65.544C368.145 64.84 368.956 64.3067 369.895 63.944C370.833 63.56 371.857 63.368 372.967 63.368ZM401.93 72.36C401.93 72.4027 401.898 72.904 401.834 73.864H389.226C389.482 74.76 389.973 75.4533 390.698 75.944C391.445 76.4133 392.373 76.648 393.482 76.648C394.314 76.648 395.029 76.5307 395.626 76.296C396.245 76.0613 396.863 75.6773 397.482 75.144L400.682 78.472C398.997 80.3493 396.533 81.288 393.29 81.288C391.263 81.288 389.482 80.904 387.946 80.136C386.41 79.368 385.215 78.3013 384.362 76.936C383.53 75.5707 383.114 74.024 383.114 72.296C383.114 70.5893 383.519 69.064 384.33 67.72C385.162 66.3547 386.303 65.288 387.754 64.52C389.205 63.752 390.837 63.368 392.65 63.368C394.378 63.368 395.946 63.7307 397.354 64.456C398.762 65.16 399.871 66.1947 400.682 67.56C401.514 68.904 401.93 70.504 401.93 72.36ZM392.682 67.688C391.743 67.688 390.954 67.9547 390.314 68.488C389.695 69.0213 389.301 69.7467 389.13 70.664H396.234C396.063 69.7467 395.658 69.0213 395.018 68.488C394.399 67.9547 393.621 67.688 392.682 67.688ZM411.037 81.288C409.587 81.288 408.157 81.128 406.749 80.808C405.341 80.4667 404.211 80.0293 403.357 79.496L405.181 75.336C405.971 75.8267 406.909 76.2213 407.997 76.52C409.085 76.7973 410.163 76.936 411.229 76.936C412.211 76.936 412.904 76.84 413.309 76.648C413.736 76.4347 413.949 76.136 413.949 75.752C413.949 75.368 413.693 75.1013 413.181 74.952C412.691 74.7813 411.901 74.6213 410.813 74.472C409.427 74.3013 408.243 74.0773 407.261 73.8C406.301 73.5227 405.469 73.0107 404.765 72.264C404.061 71.5173 403.709 70.472 403.709 69.128C403.709 68.0187 404.04 67.0373 404.701 66.184C405.363 65.3093 406.323 64.6267 407.581 64.136C408.861 63.624 410.387 63.368 412.157 63.368C413.416 63.368 414.664 63.496 415.901 63.752C417.139 64.008 418.173 64.3707 419.005 64.84L417.181 68.968C415.645 68.1147 413.981 67.688 412.189 67.688C411.229 67.688 410.525 67.8053 410.077 68.04C409.629 68.2533 409.405 68.5413 409.405 68.904C409.405 69.3093 409.651 69.5973 410.141 69.768C410.632 69.9173 411.443 70.0773 412.573 70.248C414.003 70.4613 415.187 70.7067 416.125 70.984C417.064 71.2613 417.875 71.7733 418.557 72.52C419.261 73.2453 419.613 74.2693 419.613 75.592C419.613 76.68 419.283 77.6613 418.621 78.536C417.96 79.3893 416.979 80.0613 415.677 80.552C414.397 81.0427 412.851 81.288 411.037 81.288ZM449.978 57.256V81H444.186V79.272C443.055 80.616 441.359 81.288 439.098 81.288C437.519 81.288 436.079 80.9253 434.778 80.2C433.476 79.4533 432.442 78.3973 431.674 77.032C430.927 75.6667 430.554 74.088 430.554 72.296C430.554 70.504 430.927 68.936 431.674 67.592C432.442 66.2267 433.476 65.1813 434.778 64.456C436.079 63.7307 437.519 63.368 439.098 63.368C441.167 63.368 442.767 63.9653 443.898 65.16V57.256H449.978ZM440.378 76.456C441.423 76.456 442.287 76.0933 442.97 75.368C443.652 74.6213 443.994 73.5973 443.994 72.296C443.994 71.016 443.652 70.0133 442.97 69.288C442.308 68.5627 441.444 68.2 440.378 68.2C439.311 68.2 438.436 68.5627 437.754 69.288C437.071 70.0133 436.73 71.016 436.73 72.296C436.73 73.5973 437.071 74.6213 437.754 75.368C438.436 76.0933 439.311 76.456 440.378 76.456ZM471.618 72.36C471.618 72.4027 471.586 72.904 471.522 73.864H458.914C459.17 74.76 459.66 75.4533 460.385 75.944C461.132 76.4133 462.06 76.648 463.17 76.648C464.002 76.648 464.716 76.5307 465.314 76.296C465.932 76.0613 466.551 75.6773 467.17 75.144L470.37 78.472C468.684 80.3493 466.22 81.288 462.978 81.288C460.951 81.288 459.17 80.904 457.634 80.136C456.098 79.368 454.903 78.3013 454.049 76.936C453.218 75.5707 452.802 74.024 452.802 72.296C452.802 70.5893 453.207 69.064 454.018 67.72C454.85 66.3547 455.991 65.288 457.442 64.52C458.892 63.752 460.524 63.368 462.338 63.368C464.066 63.368 465.634 63.7307 467.042 64.456C468.45 65.16 469.559 66.1947 470.37 67.56C471.202 68.904 471.618 70.504 471.618 72.36ZM462.37 67.688C461.431 67.688 460.642 67.9547 460.002 68.488C459.383 69.0213 458.988 69.7467 458.818 70.664H465.922C465.751 69.7467 465.346 69.0213 464.706 68.488C464.087 67.9547 463.308 67.688 462.37 67.688ZM483.733 63.656H489.813V81H483.733V63.656ZM486.773 61.736C485.664 61.736 484.768 61.4267 484.085 60.808C483.403 60.1893 483.061 59.4213 483.061 58.504C483.061 57.5867 483.403 56.8187 484.085 56.2C484.768 55.5813 485.664 55.272 486.773 55.272C487.883 55.272 488.779 55.5707 489.461 56.168C490.144 56.744 490.485 57.4907 490.485 58.408C490.485 59.368 490.144 60.168 489.461 60.808C488.779 61.4267 487.883 61.736 486.773 61.736ZM505.061 63.368C507.215 63.368 508.943 64.008 510.245 65.288C511.567 66.568 512.229 68.4987 512.229 71.08V81H506.149V72.072C506.149 69.704 505.199 68.52 503.301 68.52C502.255 68.52 501.413 68.8613 500.773 69.544C500.154 70.2267 499.845 71.2507 499.845 72.616V81H493.765V63.656H499.557V65.544C500.239 64.84 501.05 64.3067 501.989 63.944C502.927 63.56 503.951 63.368 505.061 63.368ZM528.014 80.296C527.502 80.616 526.872 80.8613 526.126 81.032C525.4 81.2027 524.622 81.288 523.79 81.288C521.528 81.288 519.79 80.7333 518.574 79.624C517.358 78.5147 516.75 76.8613 516.75 74.664V68.84H514.222V64.296H516.75V59.784H522.83V64.296H526.798V68.84H522.83V74.6C522.83 75.2187 522.99 75.7093 523.31 76.072C523.651 76.4133 524.099 76.584 524.654 76.584C525.358 76.584 525.976 76.4027 526.51 76.04L528.014 80.296ZM547.586 72.36C547.586 72.4027 547.554 72.904 547.49 73.864H534.882C535.138 74.76 535.629 75.4533 536.354 75.944C537.101 76.4133 538.029 76.648 539.138 76.648C539.97 76.648 540.685 76.5307 541.282 76.296C541.901 76.0613 542.52 75.6773 543.138 75.144L546.338 78.472C544.653 80.3493 542.189 81.288 538.946 81.288C536.92 81.288 535.138 80.904 533.602 80.136C532.066 79.368 530.872 78.3013 530.018 76.936C529.186 75.5707 528.77 74.024 528.77 72.296C528.77 70.5893 529.176 69.064 529.986 67.72C530.818 66.3547 531.96 65.288 533.41 64.52C534.861 63.752 536.493 63.368 538.306 63.368C540.034 63.368 541.602 63.7307 543.01 64.456C544.418 65.16 545.528 66.1947 546.338 67.56C547.17 68.904 547.586 70.504 547.586 72.36ZM538.338 67.688C537.4 67.688 536.61 67.9547 535.97 68.488C535.352 69.0213 534.957 69.7467 534.786 70.664H541.89C541.72 69.7467 541.314 69.0213 540.674 68.488C540.056 67.9547 539.277 67.688 538.338 67.688ZM556.182 65.736C556.8 64.9467 557.6 64.36 558.582 63.976C559.584 63.5707 560.726 63.368 562.006 63.368V68.84C561.451 68.776 560.992 68.744 560.63 68.744C559.328 68.744 558.304 69.096 557.558 69.8C556.832 70.504 556.47 71.5813 556.47 73.032V81H550.39V63.656H556.182V65.736ZM582.086 72.36C582.086 72.4027 582.054 72.904 581.99 73.864H569.382C569.638 74.76 570.129 75.4533 570.854 75.944C571.601 76.4133 572.529 76.648 573.638 76.648C574.47 76.648 575.185 76.5307 575.782 76.296C576.401 76.0613 577.02 75.6773 577.638 75.144L580.838 78.472C579.153 80.3493 576.689 81.288 573.446 81.288C571.42 81.288 569.638 80.904 568.102 80.136C566.566 79.368 565.372 78.3013 564.518 76.936C563.686 75.5707 563.27 74.024 563.27 72.296C563.27 70.5893 563.676 69.064 564.486 67.72C565.318 66.3547 566.46 65.288 567.91 64.52C569.361 63.752 570.993 63.368 572.806 63.368C574.534 63.368 576.102 63.7307 577.51 64.456C578.918 65.16 580.028 66.1947 580.838 67.56C581.67 68.904 582.086 70.504 582.086 72.36ZM572.838 67.688C571.9 67.688 571.11 67.9547 570.47 68.488C569.852 69.0213 569.457 69.7467 569.286 70.664H576.39C576.22 69.7467 575.814 69.0213 575.174 68.488C574.556 67.9547 573.777 67.688 572.838 67.688ZM573.83 56.712H579.91L573.894 61.576H569.542L573.83 56.712ZM591.194 81.288C589.743 81.288 588.314 81.128 586.906 80.808C585.498 80.4667 584.367 80.0293 583.514 79.496L585.338 75.336C586.127 75.8267 587.066 76.2213 588.154 76.52C589.242 76.7973 590.319 76.936 591.385 76.936C592.367 76.936 593.06 76.84 593.466 76.648C593.892 76.4347 594.106 76.136 594.106 75.752C594.106 75.368 593.85 75.1013 593.338 74.952C592.847 74.7813 592.058 74.6213 590.97 74.472C589.583 74.3013 588.399 74.0773 587.418 73.8C586.458 73.5227 585.626 73.0107 584.922 72.264C584.218 71.5173 583.866 70.472 583.866 69.128C583.866 68.0187 584.196 67.0373 584.858 66.184C585.519 65.3093 586.479 64.6267 587.738 64.136C589.018 63.624 590.543 63.368 592.314 63.368C593.572 63.368 594.82 63.496 596.058 63.752C597.295 64.008 598.33 64.3707 599.162 64.84L597.338 68.968C595.802 68.1147 594.138 67.688 592.345 67.688C591.386 67.688 590.682 67.8053 590.234 68.04C589.786 68.2533 589.562 68.5413 589.562 68.904C589.562 69.3093 589.807 69.5973 590.298 69.768C590.788 69.9173 591.599 70.0773 592.73 70.248C594.159 70.4613 595.343 70.7067 596.282 70.984C597.22 71.2613 598.031 71.7733 598.714 72.52C599.418 73.2453 599.77 74.2693 599.77 75.592C599.77 76.68 599.439 77.6613 598.778 78.536C598.116 79.3893 597.135 80.0613 595.834 80.552C594.554 81.0427 593.007 81.288 591.194 81.288Z" fill="#455A64"/>
<rect x="202" y="184.5" width="44" height="44" rx="22" fill="#455A64"/>
<path d="M228.042 214.084C228.25 213.876 228.354 213.629 228.354 213.344C228.354 213.06 228.25 212.813 228.042 212.605L221.937 206.501L228.062 200.376C228.257 200.181 228.354 199.938 228.354 199.646C228.354 199.355 228.25 199.105 228.042 198.896C227.833 198.688 227.587 198.584 227.302 198.584C227.017 198.584 226.771 198.688 226.562 198.896L219.562 205.917C219.479 206.001 219.42 206.091 219.385 206.188C219.35 206.285 219.333 206.39 219.333 206.501C219.333 206.612 219.35 206.716 219.385 206.813C219.42 206.91 219.479 207.001 219.562 207.084L226.583 214.105C226.778 214.299 227.017 214.396 227.302 214.396C227.587 214.396 227.833 214.292 228.042 214.084Z" fill="white"/>
<circle cx="372" cy="188.5" r="58.5" fill="#D9D9D9"/>
<path d="M296.36 267.44V278H294.776L290.36 270.928L289.24 268.944H289.224L289.288 270.544V278H288.072V267.44H289.656L294.056 274.48L295.192 276.512H295.208L295.144 274.896V267.44H296.36ZM302.769 269.84C303.526 269.84 304.193 270.005 304.769 270.336C305.355 270.667 305.814 271.147 306.145 271.776C306.475 272.395 306.641 273.136 306.641 274C306.641 274.864 306.475 275.611 306.145 276.24C305.814 276.859 305.355 277.333 304.769 277.664C304.193 277.995 303.526 278.16 302.769 278.16C302.022 278.16 301.355 277.995 300.769 277.664C300.182 277.333 299.723 276.859 299.393 276.24C299.062 275.611 298.897 274.864 298.897 274C298.897 273.136 299.062 272.395 299.393 271.776C299.723 271.147 300.182 270.667 300.769 270.336C301.355 270.005 302.022 269.84 302.769 269.84ZM302.769 270.944C302.225 270.944 301.761 271.067 301.377 271.312C300.993 271.557 300.694 271.909 300.481 272.368C300.278 272.816 300.177 273.36 300.177 274C300.177 274.629 300.278 275.173 300.481 275.632C300.694 276.091 300.993 276.443 301.377 276.688C301.761 276.933 302.225 277.056 302.769 277.056C303.313 277.056 303.777 276.933 304.161 276.688C304.545 276.443 304.838 276.091 305.041 275.632C305.254 275.173 305.361 274.629 305.361 274C305.361 273.36 305.254 272.816 305.041 272.368C304.838 271.909 304.545 271.557 304.161 271.312C303.777 271.067 303.313 270.944 302.769 270.944ZM309.051 278V270H310.171L310.251 271.248C310.539 270.757 310.912 270.4 311.371 270.176C311.84 269.952 312.32 269.84 312.811 269.84C313.376 269.84 313.909 269.968 314.411 270.224C314.912 270.48 315.296 270.875 315.562 271.408C315.733 271.045 315.973 270.752 316.283 270.528C316.592 270.293 316.928 270.123 317.291 270.016C317.664 269.899 318.016 269.84 318.347 269.84C318.859 269.84 319.344 269.947 319.803 270.16C320.272 270.373 320.656 270.704 320.955 271.152C321.253 271.6 321.403 272.176 321.403 272.88V278H320.123V273.008C320.123 272.283 319.941 271.76 319.579 271.44C319.216 271.12 318.768 270.96 318.235 270.96C317.819 270.96 317.429 271.061 317.067 271.264C316.704 271.467 316.411 271.765 316.187 272.16C315.973 272.555 315.867 273.04 315.867 273.616V278H314.587V273.008C314.587 272.283 314.405 271.76 314.043 271.44C313.68 271.12 313.232 270.96 312.699 270.96C312.347 270.96 311.984 271.056 311.611 271.248C311.248 271.429 310.944 271.723 310.699 272.128C310.453 272.533 310.331 273.067 310.331 273.728V278H309.051ZM328.221 278.16C327.773 278.16 327.357 278.08 326.973 277.92C326.589 277.76 326.258 277.536 325.981 277.248C325.703 276.96 325.495 276.635 325.357 276.272L325.533 276.048L325.421 278H324.301V266.32H325.581V271.808L325.421 271.568C325.634 271.067 325.991 270.656 326.493 270.336C327.005 270.005 327.586 269.84 328.237 269.84C328.898 269.84 329.506 270.005 330.061 270.336C330.615 270.667 331.058 271.141 331.389 271.76C331.719 272.379 331.885 273.125 331.885 274C331.885 274.864 331.714 275.611 331.373 276.24C331.042 276.859 330.599 277.333 330.045 277.664C329.49 277.995 328.882 278.16 328.221 278.16ZM328.093 277.04C328.882 277.04 329.495 276.763 329.933 276.208C330.381 275.653 330.605 274.917 330.605 274C330.605 273.083 330.386 272.347 329.949 271.792C329.511 271.237 328.898 270.96 328.109 270.96C327.607 270.96 327.165 271.088 326.781 271.344C326.407 271.6 326.114 271.957 325.901 272.416C325.687 272.875 325.581 273.413 325.581 274.032C325.581 274.64 325.682 275.173 325.885 275.632C326.098 276.08 326.391 276.427 326.765 276.672C327.149 276.917 327.591 277.04 328.093 277.04ZM334.332 278V270H335.372L335.548 271.312C335.772 270.821 336.097 270.453 336.524 270.208C336.961 269.963 337.489 269.84 338.108 269.84C338.246 269.84 338.396 269.851 338.556 269.872C338.726 269.893 338.87 269.936 338.988 270L338.764 271.168C338.646 271.125 338.518 271.093 338.38 271.072C338.241 271.051 338.044 271.04 337.788 271.04C337.457 271.04 337.121 271.136 336.78 271.328C336.449 271.52 336.172 271.813 335.948 272.208C335.724 272.592 335.612 273.083 335.612 273.68V278H334.332ZM343.957 278.16C343.2 278.16 342.522 277.995 341.925 277.664C341.338 277.333 340.88 276.859 340.549 276.24C340.218 275.611 340.053 274.864 340.053 274C340.053 273.136 340.218 272.395 340.549 271.776C340.88 271.147 341.333 270.667 341.909 270.336C342.485 270.005 343.141 269.84 343.877 269.84C344.624 269.84 345.258 270 345.781 270.32C346.314 270.64 346.72 271.077 346.997 271.632C347.274 272.176 347.413 272.789 347.413 273.472C347.413 273.653 347.408 273.819 347.397 273.968C347.386 274.117 347.37 274.251 347.349 274.368H340.885V273.232H346.789L346.133 273.36C346.133 272.592 345.92 272 345.493 271.584C345.077 271.168 344.528 270.96 343.845 270.96C343.322 270.96 342.869 271.083 342.485 271.328C342.112 271.563 341.818 271.909 341.605 272.368C341.402 272.816 341.301 273.36 341.301 274C341.301 274.629 341.408 275.173 341.621 275.632C341.834 276.091 342.133 276.443 342.517 276.688C342.912 276.923 343.381 277.04 343.925 277.04C344.512 277.04 344.986 276.928 345.349 276.704C345.722 276.48 346.021 276.176 346.245 275.792L347.253 276.384C347.05 276.747 346.789 277.061 346.469 277.328C346.16 277.595 345.792 277.803 345.365 277.952C344.949 278.091 344.48 278.16 343.957 278.16ZM358.421 278.16C357.759 278.16 357.151 277.995 356.597 277.664C356.042 277.333 355.599 276.859 355.269 276.24C354.938 275.611 354.773 274.864 354.773 274C354.773 273.115 354.949 272.363 355.301 271.744C355.653 271.125 356.117 270.656 356.693 270.336C357.269 270.005 357.887 269.84 358.549 269.84C359.21 269.84 359.781 270.011 360.261 270.352C360.751 270.693 361.077 271.147 361.237 271.712L361.077 271.824V266.32H362.357V278H361.237L361.125 276.064L361.301 275.968C361.226 276.437 361.045 276.837 360.757 277.168C360.479 277.488 360.133 277.733 359.717 277.904C359.311 278.075 358.879 278.16 358.421 278.16ZM358.549 277.04C359.061 277.04 359.503 276.912 359.877 276.656C360.261 276.4 360.554 276.037 360.757 275.568C360.97 275.088 361.077 274.528 361.077 273.888C361.077 273.28 360.97 272.757 360.757 272.32C360.554 271.883 360.266 271.547 359.893 271.312C359.53 271.077 359.103 270.96 358.613 270.96C357.802 270.96 357.173 271.237 356.725 271.792C356.277 272.347 356.053 273.083 356.053 274C356.053 274.917 356.271 275.653 356.709 276.208C357.146 276.763 357.759 277.04 358.549 277.04ZM368.676 278.16C367.918 278.16 367.241 277.995 366.644 277.664C366.057 277.333 365.598 276.859 365.268 276.24C364.937 275.611 364.772 274.864 364.772 274C364.772 273.136 364.937 272.395 365.268 271.776C365.598 271.147 366.052 270.667 366.628 270.336C367.204 270.005 367.86 269.84 368.596 269.84C369.342 269.84 369.977 270 370.5 270.32C371.033 270.64 371.438 271.077 371.716 271.632C371.993 272.176 372.132 272.789 372.132 273.472C372.132 273.653 372.126 273.819 372.116 273.968C372.105 274.117 372.089 274.251 372.068 274.368H365.604V273.232H371.508L370.852 273.36C370.852 272.592 370.638 272 370.212 271.584C369.796 271.168 369.246 270.96 368.564 270.96C368.041 270.96 367.588 271.083 367.204 271.328C366.83 271.563 366.537 271.909 366.324 272.368C366.121 272.816 366.02 273.36 366.02 274C366.02 274.629 366.126 275.173 366.34 275.632C366.553 276.091 366.852 276.443 367.236 276.688C367.63 276.923 368.1 277.04 368.644 277.04C369.23 277.04 369.705 276.928 370.068 276.704C370.441 276.48 370.74 276.176 370.964 275.792L371.972 276.384C371.769 276.747 371.508 277.061 371.188 277.328C370.878 277.595 370.51 277.803 370.084 277.952C369.668 278.091 369.198 278.16 368.676 278.16ZM375.782 266.32V275.968C375.782 276.373 375.857 276.656 376.006 276.816C376.155 276.965 376.395 277.04 376.726 277.04C376.939 277.04 377.115 277.024 377.254 276.992C377.393 276.96 377.579 276.901 377.814 276.816L377.606 277.936C377.435 278.011 377.249 278.064 377.046 278.096C376.843 278.139 376.635 278.16 376.422 278.16C375.771 278.16 375.286 277.984 374.966 277.632C374.657 277.28 374.502 276.741 374.502 276.016V266.32H375.782ZM389.019 272.832C389.019 272.235 388.859 271.776 388.539 271.456C388.219 271.125 387.766 270.96 387.179 270.96C386.625 270.96 386.155 271.083 385.771 271.328C385.387 271.563 385.105 271.947 384.923 272.48L383.883 271.84C384.097 271.243 384.491 270.763 385.067 270.4C385.643 270.027 386.358 269.84 387.211 269.84C387.787 269.84 388.31 269.941 388.779 270.144C389.249 270.336 389.617 270.635 389.883 271.04C390.161 271.435 390.299 271.947 390.299 272.576V276.448C390.299 276.832 390.502 277.024 390.907 277.024C391.11 277.024 391.307 276.997 391.499 276.944L391.435 277.952C391.222 278.059 390.945 278.112 390.603 278.112C390.294 278.112 390.017 278.053 389.771 277.936C389.526 277.819 389.334 277.643 389.195 277.408C389.057 277.163 388.987 276.859 388.987 276.496V276.336L389.307 276.384C389.179 276.8 388.961 277.141 388.651 277.408C388.342 277.664 387.995 277.856 387.611 277.984C387.227 278.101 386.849 278.16 386.475 278.16C386.006 278.16 385.569 278.08 385.163 277.92C384.758 277.76 384.433 277.52 384.187 277.2C383.953 276.869 383.835 276.464 383.835 275.984C383.835 275.387 384.033 274.896 384.427 274.512C384.833 274.117 385.393 273.851 386.107 273.712L389.275 273.088V274.144L386.699 274.672C386.177 274.779 385.787 274.928 385.531 275.12C385.275 275.312 385.147 275.579 385.147 275.92C385.147 276.251 385.275 276.523 385.531 276.736C385.798 276.939 386.171 277.04 386.651 277.04C386.961 277.04 387.254 277.003 387.531 276.928C387.819 276.843 388.075 276.72 388.299 276.56C388.523 276.389 388.699 276.181 388.827 275.936C388.955 275.68 389.019 275.381 389.019 275.04V272.832ZM393.41 281.36V270H394.53L394.642 271.952L394.466 271.728C394.605 271.355 394.813 271.029 395.09 270.752C395.367 270.464 395.703 270.24 396.098 270.08C396.493 269.92 396.919 269.84 397.378 269.84C398.029 269.84 398.626 270.005 399.17 270.336C399.725 270.667 400.167 271.141 400.498 271.76C400.829 272.379 400.994 273.125 400.994 274C400.994 274.864 400.823 275.611 400.482 276.24C400.151 276.859 399.709 277.333 399.154 277.664C398.599 277.995 397.991 278.16 397.33 278.16C396.669 278.16 396.087 278 395.586 277.68C395.095 277.349 394.743 276.933 394.53 276.432L394.69 276.192V281.36H393.41ZM397.202 277.04C397.991 277.04 398.605 276.763 399.042 276.208C399.49 275.653 399.714 274.917 399.714 274C399.714 273.083 399.495 272.347 399.058 271.792C398.631 271.237 398.029 270.96 397.25 270.96C396.738 270.96 396.29 271.088 395.906 271.344C395.522 271.589 395.223 271.941 395.01 272.4C394.797 272.848 394.69 273.381 394.69 274C394.69 274.608 394.791 275.141 394.994 275.6C395.207 276.059 395.501 276.416 395.874 276.672C396.258 276.917 396.701 277.04 397.202 277.04ZM404.657 266.32V275.968C404.657 276.373 404.732 276.656 404.881 276.816C405.03 276.965 405.27 277.04 405.601 277.04C405.814 277.04 405.99 277.024 406.129 276.992C406.268 276.96 406.454 276.901 406.689 276.816L406.481 277.936C406.31 278.011 406.124 278.064 405.921 278.096C405.718 278.139 405.51 278.16 405.297 278.16C404.646 278.16 404.161 277.984 403.841 277.632C403.532 277.28 403.377 276.741 403.377 276.016V266.32H404.657ZM408.972 268.464C408.684 268.464 408.449 268.379 408.268 268.208C408.097 268.027 408.012 267.792 408.012 267.504C408.012 267.216 408.097 266.987 408.268 266.816C408.449 266.635 408.684 266.544 408.972 266.544C409.26 266.544 409.489 266.635 409.66 266.816C409.841 266.987 409.932 267.216 409.932 267.504C409.932 267.792 409.841 268.027 409.66 268.208C409.489 268.379 409.26 268.464 408.972 268.464ZM409.612 270V278H408.332V270H409.612ZM415.894 269.84C416.448 269.84 416.934 269.925 417.35 270.096C417.776 270.267 418.144 270.512 418.454 270.832C418.763 271.152 419.014 271.531 419.206 271.968L417.99 272.544C417.819 272.032 417.558 271.643 417.206 271.376C416.864 271.099 416.416 270.96 415.862 270.96C415.328 270.96 414.87 271.083 414.486 271.328C414.102 271.563 413.808 271.909 413.606 272.368C413.403 272.816 413.302 273.36 413.302 274C413.302 274.629 413.403 275.173 413.606 275.632C413.808 276.091 414.102 276.443 414.486 276.688C414.87 276.923 415.328 277.04 415.862 277.04C416.278 277.04 416.635 276.976 416.934 276.848C417.243 276.72 417.494 276.533 417.686 276.288C417.888 276.043 418.027 275.744 418.102 275.392L419.286 275.808C419.104 276.299 418.854 276.72 418.534 277.072C418.224 277.424 417.846 277.696 417.398 277.888C416.96 278.069 416.459 278.16 415.894 278.16C415.147 278.16 414.48 277.995 413.894 277.664C413.307 277.333 412.848 276.859 412.518 276.24C412.187 275.611 412.022 274.864 412.022 274C412.022 273.136 412.187 272.395 412.518 271.776C412.848 271.147 413.307 270.667 413.894 270.336C414.48 270.005 415.147 269.84 415.894 269.84ZM426.207 272.832C426.207 272.235 426.047 271.776 425.727 271.456C425.407 271.125 424.954 270.96 424.367 270.96C423.812 270.96 423.343 271.083 422.959 271.328C422.575 271.563 422.292 271.947 422.111 272.48L421.071 271.84C421.284 271.243 421.679 270.763 422.255 270.4C422.831 270.027 423.546 269.84 424.399 269.84C424.975 269.84 425.498 269.941 425.967 270.144C426.436 270.336 426.804 270.635 427.071 271.04C427.348 271.435 427.487 271.947 427.487 272.576V276.448C427.487 276.832 427.69 277.024 428.095 277.024C428.298 277.024 428.495 276.997 428.687 276.944L428.623 277.952C428.41 278.059 428.132 278.112 427.791 278.112C427.482 278.112 427.204 278.053 426.959 277.936C426.714 277.819 426.522 277.643 426.383 277.408C426.244 277.163 426.175 276.859 426.175 276.496V276.336L426.495 276.384C426.367 276.8 426.148 277.141 425.839 277.408C425.53 277.664 425.183 277.856 424.799 277.984C424.415 278.101 424.036 278.16 423.663 278.16C423.194 278.16 422.756 278.08 422.351 277.92C421.946 277.76 421.62 277.52 421.375 277.2C421.14 276.869 421.023 276.464 421.023 275.984C421.023 275.387 421.22 274.896 421.615 274.512C422.02 274.117 422.58 273.851 423.295 273.712L426.463 273.088V274.144L423.887 274.672C423.364 274.779 422.975 274.928 422.719 275.12C422.463 275.312 422.335 275.579 422.335 275.92C422.335 276.251 422.463 276.523 422.719 276.736C422.986 276.939 423.359 277.04 423.839 277.04C424.148 277.04 424.442 277.003 424.719 276.928C425.007 276.843 425.263 276.72 425.487 276.56C425.711 276.389 425.887 276.181 426.015 275.936C426.143 275.68 426.207 275.381 426.207 275.04V272.832ZM432.173 267.728V275.792C432.173 276.187 432.285 276.48 432.509 276.672C432.733 276.864 433.021 276.96 433.373 276.96C433.682 276.96 433.949 276.907 434.173 276.8C434.397 276.693 434.6 276.549 434.781 276.368L435.229 277.44C434.984 277.664 434.69 277.84 434.349 277.968C434.018 278.096 433.634 278.16 433.197 278.16C432.792 278.16 432.413 278.091 432.061 277.952C431.709 277.803 431.426 277.573 431.213 277.264C431.01 276.944 430.904 276.528 430.893 276.016V268.08L432.173 267.728ZM435.085 270V271.104H429.293V270H435.085ZM437.628 268.464C437.34 268.464 437.105 268.379 436.924 268.208C436.753 268.027 436.668 267.792 436.668 267.504C436.668 267.216 436.753 266.987 436.924 266.816C437.105 266.635 437.34 266.544 437.628 266.544C437.916 266.544 438.145 266.635 438.316 266.816C438.497 266.987 438.588 267.216 438.588 267.504C438.588 267.792 438.497 268.027 438.316 268.208C438.145 268.379 437.916 268.464 437.628 268.464ZM438.268 270V278H436.988V270H438.268ZM446.534 270H447.878L444.55 278H443.27L439.942 270H441.398L443.926 276.704L446.534 270ZM452.863 269.84C453.62 269.84 454.287 270.005 454.863 270.336C455.449 270.667 455.908 271.147 456.239 271.776C456.569 272.395 456.735 273.136 456.735 274C456.735 274.864 456.569 275.611 456.239 276.24C455.908 276.859 455.449 277.333 454.863 277.664C454.287 277.995 453.62 278.16 452.863 278.16C452.116 278.16 451.449 277.995 450.863 277.664C450.276 277.333 449.817 276.859 449.487 276.24C449.156 275.611 448.991 274.864 448.991 274C448.991 273.136 449.156 272.395 449.487 271.776C449.817 271.147 450.276 270.667 450.863 270.336C451.449 270.005 452.116 269.84 452.863 269.84ZM452.863 270.944C452.319 270.944 451.855 271.067 451.471 271.312C451.087 271.557 450.788 271.909 450.575 272.368C450.372 272.816 450.271 273.36 450.271 274C450.271 274.629 450.372 275.173 450.575 275.632C450.788 276.091 451.087 276.443 451.471 276.688C451.855 276.933 452.319 277.056 452.863 277.056C453.407 277.056 453.871 276.933 454.255 276.688C454.639 276.443 454.932 276.091 455.135 275.632C455.348 275.173 455.455 274.629 455.455 274C455.455 273.36 455.348 272.816 455.135 272.368C454.932 271.909 454.639 271.557 454.255 271.312C453.871 271.067 453.407 270.944 452.863 270.944Z" fill="black"/>
<circle cx="604" cy="188.5" r="58.5" fill="#D9D9D9"/>
<path d="M528.36 267.44V278H526.776L522.36 270.928L521.24 268.944H521.224L521.288 270.544V278H520.072V267.44H521.656L526.056 274.48L527.192 276.512H527.208L527.144 274.896V267.44H528.36ZM534.769 269.84C535.526 269.84 536.193 270.005 536.769 270.336C537.355 270.667 537.814 271.147 538.145 271.776C538.475 272.395 538.641 273.136 538.641 274C538.641 274.864 538.475 275.611 538.145 276.24C537.814 276.859 537.355 277.333 536.769 277.664C536.193 277.995 535.526 278.16 534.769 278.16C534.022 278.16 533.355 277.995 532.769 277.664C532.182 277.333 531.723 276.859 531.393 276.24C531.062 275.611 530.897 274.864 530.897 274C530.897 273.136 531.062 272.395 531.393 271.776C531.723 271.147 532.182 270.667 532.769 270.336C533.355 270.005 534.022 269.84 534.769 269.84ZM534.769 270.944C534.225 270.944 533.761 271.067 533.377 271.312C532.993 271.557 532.694 271.909 532.481 272.368C532.278 272.816 532.177 273.36 532.177 274C532.177 274.629 532.278 275.173 532.481 275.632C532.694 276.091 532.993 276.443 533.377 276.688C533.761 276.933 534.225 277.056 534.769 277.056C535.313 277.056 535.777 276.933 536.161 276.688C536.545 276.443 536.838 276.091 537.041 275.632C537.254 275.173 537.361 274.629 537.361 274C537.361 273.36 537.254 272.816 537.041 272.368C536.838 271.909 536.545 271.557 536.161 271.312C535.777 271.067 535.313 270.944 534.769 270.944ZM541.051 278V270H542.171L542.251 271.248C542.539 270.757 542.912 270.4 543.371 270.176C543.84 269.952 544.32 269.84 544.811 269.84C545.376 269.84 545.909 269.968 546.411 270.224C546.912 270.48 547.296 270.875 547.562 271.408C547.733 271.045 547.973 270.752 548.283 270.528C548.592 270.293 548.928 270.123 549.291 270.016C549.664 269.899 550.016 269.84 550.347 269.84C550.859 269.84 551.344 269.947 551.803 270.16C552.272 270.373 552.656 270.704 552.955 271.152C553.253 271.6 553.403 272.176 553.403 272.88V278H552.123V273.008C552.123 272.283 551.941 271.76 551.579 271.44C551.216 271.12 550.768 270.96 550.235 270.96C549.819 270.96 549.429 271.061 549.067 271.264C548.704 271.467 548.411 271.765 548.187 272.16C547.973 272.555 547.867 273.04 547.867 273.616V278H546.587V273.008C546.587 272.283 546.405 271.76 546.043 271.44C545.68 271.12 545.232 270.96 544.699 270.96C544.347 270.96 543.984 271.056 543.611 271.248C543.248 271.429 542.944 271.723 542.699 272.128C542.453 272.533 542.331 273.067 542.331 273.728V278H541.051ZM560.221 278.16C559.773 278.16 559.357 278.08 558.973 277.92C558.589 277.76 558.258 277.536 557.981 277.248C557.703 276.96 557.495 276.635 557.357 276.272L557.533 276.048L557.421 278H556.301V266.32H557.581V271.808L557.421 271.568C557.634 271.067 557.991 270.656 558.493 270.336C559.005 270.005 559.586 269.84 560.237 269.84C560.898 269.84 561.506 270.005 562.061 270.336C562.615 270.667 563.058 271.141 563.389 271.76C563.719 272.379 563.885 273.125 563.885 274C563.885 274.864 563.714 275.611 563.373 276.24C563.042 276.859 562.599 277.333 562.045 277.664C561.49 277.995 560.882 278.16 560.221 278.16ZM560.093 277.04C560.882 277.04 561.495 276.763 561.933 276.208C562.381 275.653 562.605 274.917 562.605 274C562.605 273.083 562.386 272.347 561.949 271.792C561.511 271.237 560.898 270.96 560.109 270.96C559.607 270.96 559.165 271.088 558.781 271.344C558.407 271.6 558.114 271.957 557.901 272.416C557.687 272.875 557.581 273.413 557.581 274.032C557.581 274.64 557.682 275.173 557.885 275.632C558.098 276.08 558.391 276.427 558.765 276.672C559.149 276.917 559.591 277.04 560.093 277.04ZM566.332 278V270H567.372L567.548 271.312C567.772 270.821 568.097 270.453 568.524 270.208C568.961 269.963 569.489 269.84 570.108 269.84C570.246 269.84 570.396 269.851 570.556 269.872C570.726 269.893 570.87 269.936 570.988 270L570.764 271.168C570.646 271.125 570.518 271.093 570.38 271.072C570.241 271.051 570.044 271.04 569.788 271.04C569.457 271.04 569.121 271.136 568.78 271.328C568.449 271.52 568.172 271.813 567.948 272.208C567.724 272.592 567.612 273.083 567.612 273.68V278H566.332ZM575.957 278.16C575.2 278.16 574.522 277.995 573.925 277.664C573.338 277.333 572.88 276.859 572.549 276.24C572.218 275.611 572.053 274.864 572.053 274C572.053 273.136 572.218 272.395 572.549 271.776C572.88 271.147 573.333 270.667 573.909 270.336C574.485 270.005 575.141 269.84 575.877 269.84C576.624 269.84 577.258 270 577.781 270.32C578.314 270.64 578.72 271.077 578.997 271.632C579.274 272.176 579.413 272.789 579.413 273.472C579.413 273.653 579.408 273.819 579.397 273.968C579.386 274.117 579.37 274.251 579.349 274.368H572.885V273.232H578.789L578.133 273.36C578.133 272.592 577.92 272 577.493 271.584C577.077 271.168 576.528 270.96 575.845 270.96C575.322 270.96 574.869 271.083 574.485 271.328C574.112 271.563 573.818 271.909 573.605 272.368C573.402 272.816 573.301 273.36 573.301 274C573.301 274.629 573.408 275.173 573.621 275.632C573.834 276.091 574.133 276.443 574.517 276.688C574.912 276.923 575.381 277.04 575.925 277.04C576.512 277.04 576.986 276.928 577.349 276.704C577.722 276.48 578.021 276.176 578.245 275.792L579.253 276.384C579.05 276.747 578.789 277.061 578.469 277.328C578.16 277.595 577.792 277.803 577.365 277.952C576.949 278.091 576.48 278.16 575.957 278.16ZM590.421 278.16C589.759 278.16 589.151 277.995 588.597 277.664C588.042 277.333 587.599 276.859 587.269 276.24C586.938 275.611 586.773 274.864 586.773 274C586.773 273.115 586.949 272.363 587.301 271.744C587.653 271.125 588.117 270.656 588.693 270.336C589.269 270.005 589.887 269.84 590.549 269.84C591.21 269.84 591.781 270.011 592.261 270.352C592.751 270.693 593.077 271.147 593.237 271.712L593.077 271.824V266.32H594.357V278H593.237L593.125 276.064L593.301 275.968C593.226 276.437 593.045 276.837 592.757 277.168C592.479 277.488 592.133 277.733 591.717 277.904C591.311 278.075 590.879 278.16 590.421 278.16ZM590.549 277.04C591.061 277.04 591.503 276.912 591.877 276.656C592.261 276.4 592.554 276.037 592.757 275.568C592.97 275.088 593.077 274.528 593.077 273.888C593.077 273.28 592.97 272.757 592.757 272.32C592.554 271.883 592.266 271.547 591.893 271.312C591.53 271.077 591.103 270.96 590.613 270.96C589.802 270.96 589.173 271.237 588.725 271.792C588.277 272.347 588.053 273.083 588.053 274C588.053 274.917 588.271 275.653 588.709 276.208C589.146 276.763 589.759 277.04 590.549 277.04ZM600.676 278.16C599.918 278.16 599.241 277.995 598.644 277.664C598.057 277.333 597.598 276.859 597.268 276.24C596.937 275.611 596.772 274.864 596.772 274C596.772 273.136 596.937 272.395 597.268 271.776C597.598 271.147 598.052 270.667 598.628 270.336C599.204 270.005 599.86 269.84 600.596 269.84C601.342 269.84 601.977 270 602.5 270.32C603.033 270.64 603.438 271.077 603.716 271.632C603.993 272.176 604.132 272.789 604.132 273.472C604.132 273.653 604.126 273.819 604.116 273.968C604.105 274.117 604.089 274.251 604.068 274.368H597.604V273.232H603.508L602.852 273.36C602.852 272.592 602.638 272 602.212 271.584C601.796 271.168 601.246 270.96 600.564 270.96C600.041 270.96 599.588 271.083 599.204 271.328C598.83 271.563 598.537 271.909 598.324 272.368C598.121 272.816 598.02 273.36 598.02 274C598.02 274.629 598.126 275.173 598.34 275.632C598.553 276.091 598.852 276.443 599.236 276.688C599.63 276.923 600.1 277.04 600.644 277.04C601.23 277.04 601.705 276.928 602.068 276.704C602.441 276.48 602.74 276.176 602.964 275.792L603.972 276.384C603.769 276.747 603.508 277.061 603.188 277.328C602.878 277.595 602.51 277.803 602.084 277.952C601.668 278.091 601.198 278.16 600.676 278.16ZM607.782 266.32V275.968C607.782 276.373 607.857 276.656 608.006 276.816C608.155 276.965 608.395 277.04 608.726 277.04C608.939 277.04 609.115 277.024 609.254 276.992C609.393 276.96 609.579 276.901 609.814 276.816L609.606 277.936C609.435 278.011 609.249 278.064 609.046 278.096C608.843 278.139 608.635 278.16 608.422 278.16C607.771 278.16 607.286 277.984 606.966 277.632C606.657 277.28 606.502 276.741 606.502 276.016V266.32H607.782ZM621.019 272.832C621.019 272.235 620.859 271.776 620.539 271.456C620.219 271.125 619.766 270.96 619.179 270.96C618.625 270.96 618.155 271.083 617.771 271.328C617.387 271.563 617.105 271.947 616.923 272.48L615.883 271.84C616.097 271.243 616.491 270.763 617.067 270.4C617.643 270.027 618.358 269.84 619.211 269.84C619.787 269.84 620.31 269.941 620.779 270.144C621.249 270.336 621.617 270.635 621.883 271.04C622.161 271.435 622.299 271.947 622.299 272.576V276.448C622.299 276.832 622.502 277.024 622.907 277.024C623.11 277.024 623.307 276.997 623.499 276.944L623.435 277.952C623.222 278.059 622.945 278.112 622.603 278.112C622.294 278.112 622.017 278.053 621.771 277.936C621.526 277.819 621.334 277.643 621.195 277.408C621.057 277.163 620.987 276.859 620.987 276.496V276.336L621.307 276.384C621.179 276.8 620.961 277.141 620.651 277.408C620.342 277.664 619.995 277.856 619.611 277.984C619.227 278.101 618.849 278.16 618.475 278.16C618.006 278.16 617.569 278.08 617.163 277.92C616.758 277.76 616.433 277.52 616.187 277.2C615.953 276.869 615.835 276.464 615.835 275.984C615.835 275.387 616.033 274.896 616.427 274.512C616.833 274.117 617.393 273.851 618.107 273.712L621.275 273.088V274.144L618.699 274.672C618.177 274.779 617.787 274.928 617.531 275.12C617.275 275.312 617.147 275.579 617.147 275.92C617.147 276.251 617.275 276.523 617.531 276.736C617.798 276.939 618.171 277.04 618.651 277.04C618.961 277.04 619.254 277.003 619.531 276.928C619.819 276.843 620.075 276.72 620.299 276.56C620.523 276.389 620.699 276.181 620.827 275.936C620.955 275.68 621.019 275.381 621.019 275.04V272.832ZM625.41 281.36V270H626.53L626.642 271.952L626.466 271.728C626.605 271.355 626.813 271.029 627.09 270.752C627.367 270.464 627.703 270.24 628.098 270.08C628.493 269.92 628.919 269.84 629.378 269.84C630.029 269.84 630.626 270.005 631.17 270.336C631.725 270.667 632.167 271.141 632.498 271.76C632.829 272.379 632.994 273.125 632.994 274C632.994 274.864 632.823 275.611 632.482 276.24C632.151 276.859 631.709 277.333 631.154 277.664C630.599 277.995 629.991 278.16 629.33 278.16C628.669 278.16 628.087 278 627.586 277.68C627.095 277.349 626.743 276.933 626.53 276.432L626.69 276.192V281.36H625.41ZM629.202 277.04C629.991 277.04 630.605 276.763 631.042 276.208C631.49 275.653 631.714 274.917 631.714 274C631.714 273.083 631.495 272.347 631.058 271.792C630.631 271.237 630.029 270.96 629.25 270.96C628.738 270.96 628.29 271.088 627.906 271.344C627.522 271.589 627.223 271.941 627.01 272.4C626.797 272.848 626.69 273.381 626.69 274C626.69 274.608 626.791 275.141 626.994 275.6C627.207 276.059 627.501 276.416 627.874 276.672C628.258 276.917 628.701 277.04 629.202 277.04ZM636.657 266.32V275.968C636.657 276.373 636.732 276.656 636.881 276.816C637.03 276.965 637.27 277.04 637.601 277.04C637.814 277.04 637.99 277.024 638.129 276.992C638.268 276.96 638.454 276.901 638.689 276.816L638.481 277.936C638.31 278.011 638.124 278.064 637.921 278.096C637.718 278.139 637.51 278.16 637.297 278.16C636.646 278.16 636.161 277.984 635.841 277.632C635.532 277.28 635.377 276.741 635.377 276.016V266.32H636.657ZM640.972 268.464C640.684 268.464 640.449 268.379 640.268 268.208C640.097 268.027 640.012 267.792 640.012 267.504C640.012 267.216 640.097 266.987 640.268 266.816C640.449 266.635 640.684 266.544 640.972 266.544C641.26 266.544 641.489 266.635 641.66 266.816C641.841 266.987 641.932 267.216 641.932 267.504C641.932 267.792 641.841 268.027 641.66 268.208C641.489 268.379 641.26 268.464 640.972 268.464ZM641.612 270V278H640.332V270H641.612ZM647.894 269.84C648.448 269.84 648.934 269.925 649.35 270.096C649.776 270.267 650.144 270.512 650.454 270.832C650.763 271.152 651.014 271.531 651.206 271.968L649.99 272.544C649.819 272.032 649.558 271.643 649.206 271.376C648.864 271.099 648.416 270.96 647.862 270.96C647.328 270.96 646.87 271.083 646.486 271.328C646.102 271.563 645.808 271.909 645.606 272.368C645.403 272.816 645.302 273.36 645.302 274C645.302 274.629 645.403 275.173 645.606 275.632C645.808 276.091 646.102 276.443 646.486 276.688C646.87 276.923 647.328 277.04 647.862 277.04C648.278 277.04 648.635 276.976 648.934 276.848C649.243 276.72 649.494 276.533 649.686 276.288C649.888 276.043 650.027 275.744 650.102 275.392L651.286 275.808C651.104 276.299 650.854 276.72 650.534 277.072C650.224 277.424 649.846 277.696 649.398 277.888C648.96 278.069 648.459 278.16 647.894 278.16C647.147 278.16 646.48 277.995 645.894 277.664C645.307 277.333 644.848 276.859 644.518 276.24C644.187 275.611 644.022 274.864 644.022 274C644.022 273.136 644.187 272.395 644.518 271.776C644.848 271.147 645.307 270.667 645.894 270.336C646.48 270.005 647.147 269.84 647.894 269.84ZM658.207 272.832C658.207 272.235 658.047 271.776 657.727 271.456C657.407 271.125 656.954 270.96 656.367 270.96C655.812 270.96 655.343 271.083 654.959 271.328C654.575 271.563 654.292 271.947 654.111 272.48L653.071 271.84C653.284 271.243 653.679 270.763 654.255 270.4C654.831 270.027 655.546 269.84 656.399 269.84C656.975 269.84 657.498 269.941 657.967 270.144C658.436 270.336 658.804 270.635 659.071 271.04C659.348 271.435 659.487 271.947 659.487 272.576V276.448C659.487 276.832 659.69 277.024 660.095 277.024C660.298 277.024 660.495 276.997 660.687 276.944L660.623 277.952C660.41 278.059 660.132 278.112 659.791 278.112C659.482 278.112 659.204 278.053 658.959 277.936C658.714 277.819 658.522 277.643 658.383 277.408C658.244 277.163 658.175 276.859 658.175 276.496V276.336L658.495 276.384C658.367 276.8 658.148 277.141 657.839 277.408C657.53 277.664 657.183 277.856 656.799 277.984C656.415 278.101 656.036 278.16 655.663 278.16C655.194 278.16 654.756 278.08 654.351 277.92C653.946 277.76 653.62 277.52 653.375 277.2C653.14 276.869 653.023 276.464 653.023 275.984C653.023 275.387 653.22 274.896 653.615 274.512C654.02 274.117 654.58 273.851 655.295 273.712L658.463 273.088V274.144L655.887 274.672C655.364 274.779 654.975 274.928 654.719 275.12C654.463 275.312 654.335 275.579 654.335 275.92C654.335 276.251 654.463 276.523 654.719 276.736C654.986 276.939 655.359 277.04 655.839 277.04C656.148 277.04 656.442 277.003 656.719 276.928C657.007 276.843 657.263 276.72 657.487 276.56C657.711 276.389 657.887 276.181 658.015 275.936C658.143 275.68 658.207 275.381 658.207 275.04V272.832ZM664.173 267.728V275.792C664.173 276.187 664.285 276.48 664.509 276.672C664.733 276.864 665.021 276.96 665.373 276.96C665.682 276.96 665.949 276.907 666.173 276.8C666.397 276.693 666.6 276.549 666.781 276.368L667.229 277.44C666.984 277.664 666.69 277.84 666.349 277.968C666.018 278.096 665.634 278.16 665.197 278.16C664.792 278.16 664.413 278.091 664.061 277.952C663.709 277.803 663.426 277.573 663.213 277.264C663.01 276.944 662.904 276.528 662.893 276.016V268.08L664.173 267.728ZM667.085 270V271.104H661.293V270H667.085ZM669.628 268.464C669.34 268.464 669.105 268.379 668.924 268.208C668.753 268.027 668.668 267.792 668.668 267.504C668.668 267.216 668.753 266.987 668.924 266.816C669.105 266.635 669.34 266.544 669.628 266.544C669.916 266.544 670.145 266.635 670.316 266.816C670.497 266.987 670.588 267.216 670.588 267.504C670.588 267.792 670.497 268.027 670.316 268.208C670.145 268.379 669.916 268.464 669.628 268.464ZM670.268 270V278H668.988V270H670.268ZM678.534 270H679.878L676.55 278H675.27L671.942 270H673.398L675.926 276.704L678.534 270ZM684.863 269.84C685.62 269.84 686.287 270.005 686.863 270.336C687.449 270.667 687.908 271.147 688.239 271.776C688.569 272.395 688.735 273.136 688.735 274C688.735 274.864 688.569 275.611 688.239 276.24C687.908 276.859 687.449 277.333 686.863 277.664C686.287 277.995 685.62 278.16 684.863 278.16C684.116 278.16 683.449 277.995 682.863 277.664C682.276 277.333 681.817 276.859 681.487 276.24C681.156 275.611 680.991 274.864 680.991 274C680.991 273.136 681.156 272.395 681.487 271.776C681.817 271.147 682.276 270.667 682.863 270.336C683.449 270.005 684.116 269.84 684.863 269.84ZM684.863 270.944C684.319 270.944 683.855 271.067 683.471 271.312C683.087 271.557 682.788 271.909 682.575 272.368C682.372 272.816 682.271 273.36 682.271 274C682.271 274.629 682.372 275.173 682.575 275.632C682.788 276.091 683.087 276.443 683.471 276.688C683.855 276.933 684.319 277.056 684.863 277.056C685.407 277.056 685.871 276.933 686.255 276.688C686.639 276.443 686.932 276.091 687.135 275.632C687.348 275.173 687.455 274.629 687.455 274C687.455 273.36 687.348 272.816 687.135 272.368C686.932 271.909 686.639 271.557 686.255 271.312C685.871 271.067 685.407 270.944 684.863 270.944Z" fill="black"/>
<circle cx="836" cy="188.5" r="58.5" fill="#D9D9D9"/>
<path d="M760.36 267.44V278H758.776L754.36 270.928L753.24 268.944H753.224L753.288 270.544V278H752.072V267.44H753.656L758.056 274.48L759.192 276.512H759.208L759.144 274.896V267.44H760.36ZM766.769 269.84C767.526 269.84 768.193 270.005 768.769 270.336C769.355 270.667 769.814 271.147 770.145 271.776C770.475 272.395 770.641 273.136 770.641 274C770.641 274.864 770.475 275.611 770.145 276.24C769.814 276.859 769.355 277.333 768.769 277.664C768.193 277.995 767.526 278.16 766.769 278.16C766.022 278.16 765.355 277.995 764.769 277.664C764.182 277.333 763.723 276.859 763.393 276.24C763.062 275.611 762.897 274.864 762.897 274C762.897 273.136 763.062 272.395 763.393 271.776C763.723 271.147 764.182 270.667 764.769 270.336C765.355 270.005 766.022 269.84 766.769 269.84ZM766.769 270.944C766.225 270.944 765.761 271.067 765.377 271.312C764.993 271.557 764.694 271.909 764.481 272.368C764.278 272.816 764.177 273.36 764.177 274C764.177 274.629 764.278 275.173 764.481 275.632C764.694 276.091 764.993 276.443 765.377 276.688C765.761 276.933 766.225 277.056 766.769 277.056C767.313 277.056 767.777 276.933 768.161 276.688C768.545 276.443 768.838 276.091 769.041 275.632C769.254 275.173 769.361 274.629 769.361 274C769.361 273.36 769.254 272.816 769.041 272.368C768.838 271.909 768.545 271.557 768.161 271.312C767.777 271.067 767.313 270.944 766.769 270.944ZM773.051 278V270H774.171L774.251 271.248C774.539 270.757 774.912 270.4 775.371 270.176C775.84 269.952 776.32 269.84 776.811 269.84C777.376 269.84 777.909 269.968 778.411 270.224C778.912 270.48 779.296 270.875 779.562 271.408C779.733 271.045 779.973 270.752 780.283 270.528C780.592 270.293 780.928 270.123 781.291 270.016C781.664 269.899 782.016 269.84 782.347 269.84C782.859 269.84 783.344 269.947 783.803 270.16C784.272 270.373 784.656 270.704 784.955 271.152C785.253 271.6 785.403 272.176 785.403 272.88V278H784.123V273.008C784.123 272.283 783.941 271.76 783.579 271.44C783.216 271.12 782.768 270.96 782.235 270.96C781.819 270.96 781.429 271.061 781.067 271.264C780.704 271.467 780.411 271.765 780.187 272.16C779.973 272.555 779.867 273.04 779.867 273.616V278H778.587V273.008C778.587 272.283 778.405 271.76 778.043 271.44C777.68 271.12 777.232 270.96 776.699 270.96C776.347 270.96 775.984 271.056 775.611 271.248C775.248 271.429 774.944 271.723 774.699 272.128C774.453 272.533 774.331 273.067 774.331 273.728V278H773.051ZM792.221 278.16C791.773 278.16 791.357 278.08 790.973 277.92C790.589 277.76 790.258 277.536 789.981 277.248C789.703 276.96 789.495 276.635 789.357 276.272L789.533 276.048L789.421 278H788.301V266.32H789.581V271.808L789.421 271.568C789.634 271.067 789.991 270.656 790.493 270.336C791.005 270.005 791.586 269.84 792.237 269.84C792.898 269.84 793.506 270.005 794.061 270.336C794.615 270.667 795.058 271.141 795.389 271.76C795.719 272.379 795.885 273.125 795.885 274C795.885 274.864 795.714 275.611 795.373 276.24C795.042 276.859 794.599 277.333 794.045 277.664C793.49 277.995 792.882 278.16 792.221 278.16ZM792.093 277.04C792.882 277.04 793.495 276.763 793.933 276.208C794.381 275.653 794.605 274.917 794.605 274C794.605 273.083 794.386 272.347 793.949 271.792C793.511 271.237 792.898 270.96 792.109 270.96C791.607 270.96 791.165 271.088 790.781 271.344C790.407 271.6 790.114 271.957 789.901 272.416C789.687 272.875 789.581 273.413 789.581 274.032C789.581 274.64 789.682 275.173 789.885 275.632C790.098 276.08 790.391 276.427 790.765 276.672C791.149 276.917 791.591 277.04 792.093 277.04ZM798.332 278V270H799.372L799.548 271.312C799.772 270.821 800.097 270.453 800.524 270.208C800.961 269.963 801.489 269.84 802.108 269.84C802.246 269.84 802.396 269.851 802.556 269.872C802.726 269.893 802.87 269.936 802.988 270L802.764 271.168C802.646 271.125 802.518 271.093 802.38 271.072C802.241 271.051 802.044 271.04 801.788 271.04C801.457 271.04 801.121 271.136 800.78 271.328C800.449 271.52 800.172 271.813 799.948 272.208C799.724 272.592 799.612 273.083 799.612 273.68V278H798.332ZM807.957 278.16C807.2 278.16 806.522 277.995 805.925 277.664C805.338 277.333 804.88 276.859 804.549 276.24C804.218 275.611 804.053 274.864 804.053 274C804.053 273.136 804.218 272.395 804.549 271.776C804.88 271.147 805.333 270.667 805.909 270.336C806.485 270.005 807.141 269.84 807.877 269.84C808.624 269.84 809.258 270 809.781 270.32C810.314 270.64 810.72 271.077 810.997 271.632C811.274 272.176 811.413 272.789 811.413 273.472C811.413 273.653 811.408 273.819 811.397 273.968C811.386 274.117 811.37 274.251 811.349 274.368H804.885V273.232H810.789L810.133 273.36C810.133 272.592 809.92 272 809.493 271.584C809.077 271.168 808.528 270.96 807.845 270.96C807.322 270.96 806.869 271.083 806.485 271.328C806.112 271.563 805.818 271.909 805.605 272.368C805.402 272.816 805.301 273.36 805.301 274C805.301 274.629 805.408 275.173 805.621 275.632C805.834 276.091 806.133 276.443 806.517 276.688C806.912 276.923 807.381 277.04 807.925 277.04C808.512 277.04 808.986 276.928 809.349 276.704C809.722 276.48 810.021 276.176 810.245 275.792L811.253 276.384C811.05 276.747 810.789 277.061 810.469 277.328C810.16 277.595 809.792 277.803 809.365 277.952C808.949 278.091 808.48 278.16 807.957 278.16ZM822.421 278.16C821.759 278.16 821.151 277.995 820.597 277.664C820.042 277.333 819.599 276.859 819.269 276.24C818.938 275.611 818.773 274.864 818.773 274C818.773 273.115 818.949 272.363 819.301 271.744C819.653 271.125 820.117 270.656 820.693 270.336C821.269 270.005 821.887 269.84 822.549 269.84C823.21 269.84 823.781 270.011 824.261 270.352C824.751 270.693 825.077 271.147 825.237 271.712L825.077 271.824V266.32H826.357V278H825.237L825.125 276.064L825.301 275.968C825.226 276.437 825.045 276.837 824.757 277.168C824.479 277.488 824.133 277.733 823.717 277.904C823.311 278.075 822.879 278.16 822.421 278.16ZM822.549 277.04C823.061 277.04 823.503 276.912 823.877 276.656C824.261 276.4 824.554 276.037 824.757 275.568C824.97 275.088 825.077 274.528 825.077 273.888C825.077 273.28 824.97 272.757 824.757 272.32C824.554 271.883 824.266 271.547 823.893 271.312C823.53 271.077 823.103 270.96 822.613 270.96C821.802 270.96 821.173 271.237 820.725 271.792C820.277 272.347 820.053 273.083 820.053 274C820.053 274.917 820.271 275.653 820.709 276.208C821.146 276.763 821.759 277.04 822.549 277.04ZM832.676 278.16C831.918 278.16 831.241 277.995 830.644 277.664C830.057 277.333 829.598 276.859 829.268 276.24C828.937 275.611 828.772 274.864 828.772 274C828.772 273.136 828.937 272.395 829.268 271.776C829.598 271.147 830.052 270.667 830.628 270.336C831.204 270.005 831.86 269.84 832.596 269.84C833.342 269.84 833.977 270 834.5 270.32C835.033 270.64 835.438 271.077 835.716 271.632C835.993 272.176 836.132 272.789 836.132 273.472C836.132 273.653 836.126 273.819 836.116 273.968C836.105 274.117 836.089 274.251 836.068 274.368H829.604V273.232H835.508L834.852 273.36C834.852 272.592 834.638 272 834.212 271.584C833.796 271.168 833.246 270.96 832.564 270.96C832.041 270.96 831.588 271.083 831.204 271.328C830.83 271.563 830.537 271.909 830.324 272.368C830.121 272.816 830.02 273.36 830.02 274C830.02 274.629 830.126 275.173 830.34 275.632C830.553 276.091 830.852 276.443 831.236 276.688C831.63 276.923 832.1 277.04 832.644 277.04C833.23 277.04 833.705 276.928 834.068 276.704C834.441 276.48 834.74 276.176 834.964 275.792L835.972 276.384C835.769 276.747 835.508 277.061 835.188 277.328C834.878 277.595 834.51 277.803 834.084 277.952C833.668 278.091 833.198 278.16 832.676 278.16ZM839.782 266.32V275.968C839.782 276.373 839.857 276.656 840.006 276.816C840.155 276.965 840.395 277.04 840.726 277.04C840.939 277.04 841.115 277.024 841.254 276.992C841.393 276.96 841.579 276.901 841.814 276.816L841.606 277.936C841.435 278.011 841.249 278.064 841.046 278.096C840.843 278.139 840.635 278.16 840.422 278.16C839.771 278.16 839.286 277.984 838.966 277.632C838.657 277.28 838.502 276.741 838.502 276.016V266.32H839.782ZM853.019 272.832C853.019 272.235 852.859 271.776 852.539 271.456C852.219 271.125 851.766 270.96 851.179 270.96C850.625 270.96 850.155 271.083 849.771 271.328C849.387 271.563 849.105 271.947 848.923 272.48L847.883 271.84C848.097 271.243 848.491 270.763 849.067 270.4C849.643 270.027 850.358 269.84 851.211 269.84C851.787 269.84 852.31 269.941 852.779 270.144C853.249 270.336 853.617 270.635 853.883 271.04C854.161 271.435 854.299 271.947 854.299 272.576V276.448C854.299 276.832 854.502 277.024 854.907 277.024C855.11 277.024 855.307 276.997 855.499 276.944L855.435 277.952C855.222 278.059 854.945 278.112 854.603 278.112C854.294 278.112 854.017 278.053 853.771 277.936C853.526 277.819 853.334 277.643 853.195 277.408C853.057 277.163 852.987 276.859 852.987 276.496V276.336L853.307 276.384C853.179 276.8 852.961 277.141 852.651 277.408C852.342 277.664 851.995 277.856 851.611 277.984C851.227 278.101 850.849 278.16 850.475 278.16C850.006 278.16 849.569 278.08 849.163 277.92C848.758 277.76 848.433 277.52 848.187 277.2C847.953 276.869 847.835 276.464 847.835 275.984C847.835 275.387 848.033 274.896 848.427 274.512C848.833 274.117 849.393 273.851 850.107 273.712L853.275 273.088V274.144L850.699 274.672C850.177 274.779 849.787 274.928 849.531 275.12C849.275 275.312 849.147 275.579 849.147 275.92C849.147 276.251 849.275 276.523 849.531 276.736C849.798 276.939 850.171 277.04 850.651 277.04C850.961 277.04 851.254 277.003 851.531 276.928C851.819 276.843 852.075 276.72 852.299 276.56C852.523 276.389 852.699 276.181 852.827 275.936C852.955 275.68 853.019 275.381 853.019 275.04V272.832ZM857.41 281.36V270H858.53L858.642 271.952L858.466 271.728C858.605 271.355 858.813 271.029 859.09 270.752C859.367 270.464 859.703 270.24 860.098 270.08C860.493 269.92 860.919 269.84 861.378 269.84C862.029 269.84 862.626 270.005 863.17 270.336C863.725 270.667 864.167 271.141 864.498 271.76C864.829 272.379 864.994 273.125 864.994 274C864.994 274.864 864.823 275.611 864.482 276.24C864.151 276.859 863.709 277.333 863.154 277.664C862.599 277.995 861.991 278.16 861.33 278.16C860.669 278.16 860.087 278 859.586 277.68C859.095 277.349 858.743 276.933 858.53 276.432L858.69 276.192V281.36H857.41ZM861.202 277.04C861.991 277.04 862.605 276.763 863.042 276.208C863.49 275.653 863.714 274.917 863.714 274C863.714 273.083 863.495 272.347 863.058 271.792C862.631 271.237 862.029 270.96 861.25 270.96C860.738 270.96 860.29 271.088 859.906 271.344C859.522 271.589 859.223 271.941 859.01 272.4C858.797 272.848 858.69 273.381 858.69 274C858.69 274.608 858.791 275.141 858.994 275.6C859.207 276.059 859.501 276.416 859.874 276.672C860.258 276.917 860.701 277.04 861.202 277.04ZM868.657 266.32V275.968C868.657 276.373 868.732 276.656 868.881 276.816C869.03 276.965 869.27 277.04 869.601 277.04C869.814 277.04 869.99 277.024 870.129 276.992C870.268 276.96 870.454 276.901 870.689 276.816L870.481 277.936C870.31 278.011 870.124 278.064 869.921 278.096C869.718 278.139 869.51 278.16 869.297 278.16C868.646 278.16 868.161 277.984 867.841 277.632C867.532 277.28 867.377 276.741 867.377 276.016V266.32H868.657ZM872.972 268.464C872.684 268.464 872.449 268.379 872.268 268.208C872.097 268.027 872.012 267.792 872.012 267.504C872.012 267.216 872.097 266.987 872.268 266.816C872.449 266.635 872.684 266.544 872.972 266.544C873.26 266.544 873.489 266.635 873.66 266.816C873.841 266.987 873.932 267.216 873.932 267.504C873.932 267.792 873.841 268.027 873.66 268.208C873.489 268.379 873.26 268.464 872.972 268.464ZM873.612 270V278H872.332V270H873.612ZM879.894 269.84C880.448 269.84 880.934 269.925 881.35 270.096C881.776 270.267 882.144 270.512 882.454 270.832C882.763 271.152 883.014 271.531 883.206 271.968L881.99 272.544C881.819 272.032 881.558 271.643 881.206 271.376C880.864 271.099 880.416 270.96 879.862 270.96C879.328 270.96 878.87 271.083 878.486 271.328C878.102 271.563 877.808 271.909 877.606 272.368C877.403 272.816 877.302 273.36 877.302 274C877.302 274.629 877.403 275.173 877.606 275.632C877.808 276.091 878.102 276.443 878.486 276.688C878.87 276.923 879.328 277.04 879.862 277.04C880.278 277.04 880.635 276.976 880.934 276.848C881.243 276.72 881.494 276.533 881.686 276.288C881.888 276.043 882.027 275.744 882.102 275.392L883.286 275.808C883.104 276.299 882.854 276.72 882.534 277.072C882.224 277.424 881.846 277.696 881.398 277.888C880.96 278.069 880.459 278.16 879.894 278.16C879.147 278.16 878.48 277.995 877.894 277.664C877.307 277.333 876.848 276.859 876.518 276.24C876.187 275.611 876.022 274.864 876.022 274C876.022 273.136 876.187 272.395 876.518 271.776C876.848 271.147 877.307 270.667 877.894 270.336C878.48 270.005 879.147 269.84 879.894 269.84ZM890.207 272.832C890.207 272.235 890.047 271.776 889.727 271.456C889.407 271.125 888.954 270.96 888.367 270.96C887.812 270.96 887.343 271.083 886.959 271.328C886.575 271.563 886.292 271.947 886.111 272.48L885.071 271.84C885.284 271.243 885.679 270.763 886.255 270.4C886.831 270.027 887.546 269.84 888.399 269.84C888.975 269.84 889.498 269.941 889.967 270.144C890.436 270.336 890.804 270.635 891.071 271.04C891.348 271.435 891.487 271.947 891.487 272.576V276.448C891.487 276.832 891.69 277.024 892.095 277.024C892.298 277.024 892.495 276.997 892.687 276.944L892.623 277.952C892.41 278.059 892.132 278.112 891.791 278.112C891.482 278.112 891.204 278.053 890.959 277.936C890.714 277.819 890.522 277.643 890.383 277.408C890.244 277.163 890.175 276.859 890.175 276.496V276.336L890.495 276.384C890.367 276.8 890.148 277.141 889.839 277.408C889.53 277.664 889.183 277.856 888.799 277.984C888.415 278.101 888.036 278.16 887.663 278.16C887.194 278.16 886.756 278.08 886.351 277.92C885.946 277.76 885.62 277.52 885.375 277.2C885.14 276.869 885.023 276.464 885.023 275.984C885.023 275.387 885.22 274.896 885.615 274.512C886.02 274.117 886.58 273.851 887.295 273.712L890.463 273.088V274.144L887.887 274.672C887.364 274.779 886.975 274.928 886.719 275.12C886.463 275.312 886.335 275.579 886.335 275.92C886.335 276.251 886.463 276.523 886.719 276.736C886.986 276.939 887.359 277.04 887.839 277.04C888.148 277.04 888.442 277.003 888.719 276.928C889.007 276.843 889.263 276.72 889.487 276.56C889.711 276.389 889.887 276.181 890.015 275.936C890.143 275.68 890.207 275.381 890.207 275.04V272.832ZM896.173 267.728V275.792C896.173 276.187 896.285 276.48 896.509 276.672C896.733 276.864 897.021 276.96 897.373 276.96C897.682 276.96 897.949 276.907 898.173 276.8C898.397 276.693 898.6 276.549 898.781 276.368L899.229 277.44C898.984 277.664 898.69 277.84 898.349 277.968C898.018 278.096 897.634 278.16 897.197 278.16C896.792 278.16 896.413 278.091 896.061 277.952C895.709 277.803 895.426 277.573 895.213 277.264C895.01 276.944 894.904 276.528 894.893 276.016V268.08L896.173 267.728ZM899.085 270V271.104H893.293V270H899.085ZM901.628 268.464C901.34 268.464 901.105 268.379 900.924 268.208C900.753 268.027 900.668 267.792 900.668 267.504C900.668 267.216 900.753 266.987 900.924 266.816C901.105 266.635 901.34 266.544 901.628 266.544C901.916 266.544 902.145 266.635 902.316 266.816C902.497 266.987 902.588 267.216 902.588 267.504C902.588 267.792 902.497 268.027 902.316 268.208C902.145 268.379 901.916 268.464 901.628 268.464ZM902.268 270V278H900.988V270H902.268ZM910.534 270H911.878L908.55 278H907.27L903.942 270H905.398L907.926 276.704L910.534 270ZM916.863 269.84C917.62 269.84 918.287 270.005 918.863 270.336C919.449 270.667 919.908 271.147 920.239 271.776C920.569 272.395 920.735 273.136 920.735 274C920.735 274.864 920.569 275.611 920.239 276.24C919.908 276.859 919.449 277.333 918.863 277.664C918.287 277.995 917.62 278.16 916.863 278.16C916.116 278.16 915.449 277.995 914.863 277.664C914.276 277.333 913.817 276.859 913.487 276.24C913.156 275.611 912.991 274.864 912.991 274C912.991 273.136 913.156 272.395 913.487 271.776C913.817 271.147 914.276 270.667 914.863 270.336C915.449 270.005 916.116 269.84 916.863 269.84ZM916.863 270.944C916.319 270.944 915.855 271.067 915.471 271.312C915.087 271.557 914.788 271.909 914.575 272.368C914.372 272.816 914.271 273.36 914.271 274C914.271 274.629 914.372 275.173 914.575 275.632C914.788 276.091 915.087 276.443 915.471 276.688C915.855 276.933 916.319 277.056 916.863 277.056C917.407 277.056 917.871 276.933 918.255 276.688C918.639 276.443 918.932 276.091 919.135 275.632C919.348 275.173 919.455 274.629 919.455 274C919.455 273.36 919.348 272.816 919.135 272.368C918.932 271.909 918.639 271.557 918.255 271.312C917.871 271.067 917.407 270.944 916.863 270.944Z" fill="black"/>
<circle cx="1068" cy="188.5" r="58.5" fill="#D9D9D9"/>
<path d="M992.36 267.44V278H990.776L986.36 270.928L985.24 268.944H985.224L985.288 270.544V278H984.072V267.44H985.656L990.056 274.48L991.192 276.512H991.208L991.144 274.896V267.44H992.36ZM998.769 269.84C999.526 269.84 1000.19 270.005 1000.77 270.336C1001.36 270.667 1001.81 271.147 1002.14 271.776C1002.48 272.395 1002.64 273.136 1002.64 274C1002.64 274.864 1002.48 275.611 1002.14 276.24C1001.81 276.859 1001.36 277.333 1000.77 277.664C1000.19 277.995 999.526 278.16 998.769 278.16C998.022 278.16 997.355 277.995 996.769 277.664C996.182 277.333 995.723 276.859 995.393 276.24C995.062 275.611 994.897 274.864 994.897 274C994.897 273.136 995.062 272.395 995.393 271.776C995.723 271.147 996.182 270.667 996.769 270.336C997.355 270.005 998.022 269.84 998.769 269.84ZM998.769 270.944C998.225 270.944 997.761 271.067 997.377 271.312C996.993 271.557 996.694 271.909 996.481 272.368C996.278 272.816 996.177 273.36 996.177 274C996.177 274.629 996.278 275.173 996.481 275.632C996.694 276.091 996.993 276.443 997.377 276.688C997.761 276.933 998.225 277.056 998.769 277.056C999.313 277.056 999.777 276.933 1000.16 276.688C1000.54 276.443 1000.84 276.091 1001.04 275.632C1001.25 275.173 1001.36 274.629 1001.36 274C1001.36 273.36 1001.25 272.816 1001.04 272.368C1000.84 271.909 1000.54 271.557 1000.16 271.312C999.777 271.067 999.313 270.944 998.769 270.944ZM1005.05 278V270H1006.17L1006.25 271.248C1006.54 270.757 1006.91 270.4 1007.37 270.176C1007.84 269.952 1008.32 269.84 1008.81 269.84C1009.38 269.84 1009.91 269.968 1010.41 270.224C1010.91 270.48 1011.3 270.875 1011.56 271.408C1011.73 271.045 1011.97 270.752 1012.28 270.528C1012.59 270.293 1012.93 270.123 1013.29 270.016C1013.66 269.899 1014.02 269.84 1014.35 269.84C1014.86 269.84 1015.34 269.947 1015.8 270.16C1016.27 270.373 1016.66 270.704 1016.95 271.152C1017.25 271.6 1017.4 272.176 1017.4 272.88V278H1016.12V273.008C1016.12 272.283 1015.94 271.76 1015.58 271.44C1015.22 271.12 1014.77 270.96 1014.23 270.96C1013.82 270.96 1013.43 271.061 1013.07 271.264C1012.7 271.467 1012.41 271.765 1012.19 272.16C1011.97 272.555 1011.87 273.04 1011.87 273.616V278H1010.59V273.008C1010.59 272.283 1010.41 271.76 1010.04 271.44C1009.68 271.12 1009.23 270.96 1008.7 270.96C1008.35 270.96 1007.98 271.056 1007.61 271.248C1007.25 271.429 1006.94 271.723 1006.7 272.128C1006.45 272.533 1006.33 273.067 1006.33 273.728V278H1005.05ZM1024.22 278.16C1023.77 278.16 1023.36 278.08 1022.97 277.92C1022.59 277.76 1022.26 277.536 1021.98 277.248C1021.7 276.96 1021.5 276.635 1021.36 276.272L1021.53 276.048L1021.42 278H1020.3V266.32H1021.58V271.808L1021.42 271.568C1021.63 271.067 1021.99 270.656 1022.49 270.336C1023 270.005 1023.59 269.84 1024.24 269.84C1024.9 269.84 1025.51 270.005 1026.06 270.336C1026.62 270.667 1027.06 271.141 1027.39 271.76C1027.72 272.379 1027.88 273.125 1027.88 274C1027.88 274.864 1027.71 275.611 1027.37 276.24C1027.04 276.859 1026.6 277.333 1026.04 277.664C1025.49 277.995 1024.88 278.16 1024.22 278.16ZM1024.09 277.04C1024.88 277.04 1025.5 276.763 1025.93 276.208C1026.38 275.653 1026.6 274.917 1026.6 274C1026.6 273.083 1026.39 272.347 1025.95 271.792C1025.51 271.237 1024.9 270.96 1024.11 270.96C1023.61 270.96 1023.16 271.088 1022.78 271.344C1022.41 271.6 1022.11 271.957 1021.9 272.416C1021.69 272.875 1021.58 273.413 1021.58 274.032C1021.58 274.64 1021.68 275.173 1021.88 275.632C1022.1 276.08 1022.39 276.427 1022.76 276.672C1023.15 276.917 1023.59 277.04 1024.09 277.04ZM1030.33 278V270H1031.37L1031.55 271.312C1031.77 270.821 1032.1 270.453 1032.52 270.208C1032.96 269.963 1033.49 269.84 1034.11 269.84C1034.25 269.84 1034.4 269.851 1034.56 269.872C1034.73 269.893 1034.87 269.936 1034.99 270L1034.76 271.168C1034.65 271.125 1034.52 271.093 1034.38 271.072C1034.24 271.051 1034.04 271.04 1033.79 271.04C1033.46 271.04 1033.12 271.136 1032.78 271.328C1032.45 271.52 1032.17 271.813 1031.95 272.208C1031.72 272.592 1031.61 273.083 1031.61 273.68V278H1030.33ZM1039.96 278.16C1039.2 278.16 1038.52 277.995 1037.93 277.664C1037.34 277.333 1036.88 276.859 1036.55 276.24C1036.22 275.611 1036.05 274.864 1036.05 274C1036.05 273.136 1036.22 272.395 1036.55 271.776C1036.88 271.147 1037.33 270.667 1037.91 270.336C1038.49 270.005 1039.14 269.84 1039.88 269.84C1040.62 269.84 1041.26 270 1041.78 270.32C1042.31 270.64 1042.72 271.077 1043 271.632C1043.27 272.176 1043.41 272.789 1043.41 273.472C1043.41 273.653 1043.41 273.819 1043.4 273.968C1043.39 274.117 1043.37 274.251 1043.35 274.368H1036.89V273.232H1042.79L1042.13 273.36C1042.13 272.592 1041.92 272 1041.49 271.584C1041.08 271.168 1040.53 270.96 1039.85 270.96C1039.32 270.96 1038.87 271.083 1038.49 271.328C1038.11 271.563 1037.82 271.909 1037.61 272.368C1037.4 272.816 1037.3 273.36 1037.3 274C1037.3 274.629 1037.41 275.173 1037.62 275.632C1037.83 276.091 1038.13 276.443 1038.52 276.688C1038.91 276.923 1039.38 277.04 1039.93 277.04C1040.51 277.04 1040.99 276.928 1041.35 276.704C1041.72 276.48 1042.02 276.176 1042.25 275.792L1043.25 276.384C1043.05 276.747 1042.79 277.061 1042.47 277.328C1042.16 277.595 1041.79 277.803 1041.37 277.952C1040.95 278.091 1040.48 278.16 1039.96 278.16ZM1054.42 278.16C1053.76 278.16 1053.15 277.995 1052.6 277.664C1052.04 277.333 1051.6 276.859 1051.27 276.24C1050.94 275.611 1050.77 274.864 1050.77 274C1050.77 273.115 1050.95 272.363 1051.3 271.744C1051.65 271.125 1052.12 270.656 1052.69 270.336C1053.27 270.005 1053.89 269.84 1054.55 269.84C1055.21 269.84 1055.78 270.011 1056.26 270.352C1056.75 270.693 1057.08 271.147 1057.24 271.712L1057.08 271.824V266.32H1058.36V278H1057.24L1057.12 276.064L1057.3 275.968C1057.23 276.437 1057.04 276.837 1056.76 277.168C1056.48 277.488 1056.13 277.733 1055.72 277.904C1055.31 278.075 1054.88 278.16 1054.42 278.16ZM1054.55 277.04C1055.06 277.04 1055.5 276.912 1055.88 276.656C1056.26 276.4 1056.55 276.037 1056.76 275.568C1056.97 275.088 1057.08 274.528 1057.08 273.888C1057.08 273.28 1056.97 272.757 1056.76 272.32C1056.55 271.883 1056.27 271.547 1055.89 271.312C1055.53 271.077 1055.1 270.96 1054.61 270.96C1053.8 270.96 1053.17 271.237 1052.72 271.792C1052.28 272.347 1052.05 273.083 1052.05 274C1052.05 274.917 1052.27 275.653 1052.71 276.208C1053.15 276.763 1053.76 277.04 1054.55 277.04ZM1064.68 278.16C1063.92 278.16 1063.24 277.995 1062.64 277.664C1062.06 277.333 1061.6 276.859 1061.27 276.24C1060.94 275.611 1060.77 274.864 1060.77 274C1060.77 273.136 1060.94 272.395 1061.27 271.776C1061.6 271.147 1062.05 270.667 1062.63 270.336C1063.2 270.005 1063.86 269.84 1064.6 269.84C1065.34 269.84 1065.98 270 1066.5 270.32C1067.03 270.64 1067.44 271.077 1067.72 271.632C1067.99 272.176 1068.13 272.789 1068.13 273.472C1068.13 273.653 1068.13 273.819 1068.12 273.968C1068.11 274.117 1068.09 274.251 1068.07 274.368H1061.6V273.232H1067.51L1066.85 273.36C1066.85 272.592 1066.64 272 1066.21 271.584C1065.8 271.168 1065.25 270.96 1064.56 270.96C1064.04 270.96 1063.59 271.083 1063.2 271.328C1062.83 271.563 1062.54 271.909 1062.32 272.368C1062.12 272.816 1062.02 273.36 1062.02 274C1062.02 274.629 1062.13 275.173 1062.34 275.632C1062.55 276.091 1062.85 276.443 1063.24 276.688C1063.63 276.923 1064.1 277.04 1064.64 277.04C1065.23 277.04 1065.71 276.928 1066.07 276.704C1066.44 276.48 1066.74 276.176 1066.96 275.792L1067.97 276.384C1067.77 276.747 1067.51 277.061 1067.19 277.328C1066.88 277.595 1066.51 277.803 1066.08 277.952C1065.67 278.091 1065.2 278.16 1064.68 278.16ZM1071.78 266.32V275.968C1071.78 276.373 1071.86 276.656 1072.01 276.816C1072.16 276.965 1072.4 277.04 1072.73 277.04C1072.94 277.04 1073.12 277.024 1073.25 276.992C1073.39 276.96 1073.58 276.901 1073.81 276.816L1073.61 277.936C1073.44 278.011 1073.25 278.064 1073.05 278.096C1072.84 278.139 1072.64 278.16 1072.42 278.16C1071.77 278.16 1071.29 277.984 1070.97 277.632C1070.66 277.28 1070.5 276.741 1070.5 276.016V266.32H1071.78ZM1085.02 272.832C1085.02 272.235 1084.86 271.776 1084.54 271.456C1084.22 271.125 1083.77 270.96 1083.18 270.96C1082.62 270.96 1082.16 271.083 1081.77 271.328C1081.39 271.563 1081.1 271.947 1080.92 272.48L1079.88 271.84C1080.1 271.243 1080.49 270.763 1081.07 270.4C1081.64 270.027 1082.36 269.84 1083.21 269.84C1083.79 269.84 1084.31 269.941 1084.78 270.144C1085.25 270.336 1085.62 270.635 1085.88 271.04C1086.16 271.435 1086.3 271.947 1086.3 272.576V276.448C1086.3 276.832 1086.5 277.024 1086.91 277.024C1087.11 277.024 1087.31 276.997 1087.5 276.944L1087.44 277.952C1087.22 278.059 1086.94 278.112 1086.6 278.112C1086.29 278.112 1086.02 278.053 1085.77 277.936C1085.53 277.819 1085.33 277.643 1085.2 277.408C1085.06 277.163 1084.99 276.859 1084.99 276.496V276.336L1085.31 276.384C1085.18 276.8 1084.96 277.141 1084.65 277.408C1084.34 277.664 1084 277.856 1083.61 277.984C1083.23 278.101 1082.85 278.16 1082.48 278.16C1082.01 278.16 1081.57 278.08 1081.16 277.92C1080.76 277.76 1080.43 277.52 1080.19 277.2C1079.95 276.869 1079.84 276.464 1079.84 275.984C1079.84 275.387 1080.03 274.896 1080.43 274.512C1080.83 274.117 1081.39 273.851 1082.11 273.712L1085.28 273.088V274.144L1082.7 274.672C1082.18 274.779 1081.79 274.928 1081.53 275.12C1081.28 275.312 1081.15 275.579 1081.15 275.92C1081.15 276.251 1081.28 276.523 1081.53 276.736C1081.8 276.939 1082.17 277.04 1082.65 277.04C1082.96 277.04 1083.25 277.003 1083.53 276.928C1083.82 276.843 1084.08 276.72 1084.3 276.56C1084.52 276.389 1084.7 276.181 1084.83 275.936C1084.96 275.68 1085.02 275.381 1085.02 275.04V272.832ZM1089.41 281.36V270H1090.53L1090.64 271.952L1090.47 271.728C1090.6 271.355 1090.81 271.029 1091.09 270.752C1091.37 270.464 1091.7 270.24 1092.1 270.08C1092.49 269.92 1092.92 269.84 1093.38 269.84C1094.03 269.84 1094.63 270.005 1095.17 270.336C1095.72 270.667 1096.17 271.141 1096.5 271.76C1096.83 272.379 1096.99 273.125 1096.99 274C1096.99 274.864 1096.82 275.611 1096.48 276.24C1096.15 276.859 1095.71 277.333 1095.15 277.664C1094.6 277.995 1093.99 278.16 1093.33 278.16C1092.67 278.16 1092.09 278 1091.59 277.68C1091.1 277.349 1090.74 276.933 1090.53 276.432L1090.69 276.192V281.36H1089.41ZM1093.2 277.04C1093.99 277.04 1094.6 276.763 1095.04 276.208C1095.49 275.653 1095.71 274.917 1095.71 274C1095.71 273.083 1095.5 272.347 1095.06 271.792C1094.63 271.237 1094.03 270.96 1093.25 270.96C1092.74 270.96 1092.29 271.088 1091.91 271.344C1091.52 271.589 1091.22 271.941 1091.01 272.4C1090.8 272.848 1090.69 273.381 1090.69 274C1090.69 274.608 1090.79 275.141 1090.99 275.6C1091.21 276.059 1091.5 276.416 1091.87 276.672C1092.26 276.917 1092.7 277.04 1093.2 277.04ZM1100.66 266.32V275.968C1100.66 276.373 1100.73 276.656 1100.88 276.816C1101.03 276.965 1101.27 277.04 1101.6 277.04C1101.81 277.04 1101.99 277.024 1102.13 276.992C1102.27 276.96 1102.45 276.901 1102.69 276.816L1102.48 277.936C1102.31 278.011 1102.12 278.064 1101.92 278.096C1101.72 278.139 1101.51 278.16 1101.3 278.16C1100.65 278.16 1100.16 277.984 1099.84 277.632C1099.53 277.28 1099.38 276.741 1099.38 276.016V266.32H1100.66ZM1104.97 268.464C1104.68 268.464 1104.45 268.379 1104.27 268.208C1104.1 268.027 1104.01 267.792 1104.01 267.504C1104.01 267.216 1104.1 266.987 1104.27 266.816C1104.45 266.635 1104.68 266.544 1104.97 266.544C1105.26 266.544 1105.49 266.635 1105.66 266.816C1105.84 266.987 1105.93 267.216 1105.93 267.504C1105.93 267.792 1105.84 268.027 1105.66 268.208C1105.49 268.379 1105.26 268.464 1104.97 268.464ZM1105.61 270V278H1104.33V270H1105.61ZM1111.89 269.84C1112.45 269.84 1112.93 269.925 1113.35 270.096C1113.78 270.267 1114.14 270.512 1114.45 270.832C1114.76 271.152 1115.01 271.531 1115.21 271.968L1113.99 272.544C1113.82 272.032 1113.56 271.643 1113.21 271.376C1112.86 271.099 1112.42 270.96 1111.86 270.96C1111.33 270.96 1110.87 271.083 1110.49 271.328C1110.1 271.563 1109.81 271.909 1109.61 272.368C1109.4 272.816 1109.3 273.36 1109.3 274C1109.3 274.629 1109.4 275.173 1109.61 275.632C1109.81 276.091 1110.1 276.443 1110.49 276.688C1110.87 276.923 1111.33 277.04 1111.86 277.04C1112.28 277.04 1112.64 276.976 1112.93 276.848C1113.24 276.72 1113.49 276.533 1113.69 276.288C1113.89 276.043 1114.03 275.744 1114.1 275.392L1115.29 275.808C1115.1 276.299 1114.85 276.72 1114.53 277.072C1114.22 277.424 1113.85 277.696 1113.4 277.888C1112.96 278.069 1112.46 278.16 1111.89 278.16C1111.15 278.16 1110.48 277.995 1109.89 277.664C1109.31 277.333 1108.85 276.859 1108.52 276.24C1108.19 275.611 1108.02 274.864 1108.02 274C1108.02 273.136 1108.19 272.395 1108.52 271.776C1108.85 271.147 1109.31 270.667 1109.89 270.336C1110.48 270.005 1111.15 269.84 1111.89 269.84ZM1122.21 272.832C1122.21 272.235 1122.05 271.776 1121.73 271.456C1121.41 271.125 1120.95 270.96 1120.37 270.96C1119.81 270.96 1119.34 271.083 1118.96 271.328C1118.57 271.563 1118.29 271.947 1118.11 272.48L1117.07 271.84C1117.28 271.243 1117.68 270.763 1118.25 270.4C1118.83 270.027 1119.55 269.84 1120.4 269.84C1120.97 269.84 1121.5 269.941 1121.97 270.144C1122.44 270.336 1122.8 270.635 1123.07 271.04C1123.35 271.435 1123.49 271.947 1123.49 272.576V276.448C1123.49 276.832 1123.69 277.024 1124.09 277.024C1124.3 277.024 1124.49 276.997 1124.69 276.944L1124.62 277.952C1124.41 278.059 1124.13 278.112 1123.79 278.112C1123.48 278.112 1123.2 278.053 1122.96 277.936C1122.71 277.819 1122.52 277.643 1122.38 277.408C1122.24 277.163 1122.17 276.859 1122.17 276.496V276.336L1122.49 276.384C1122.37 276.8 1122.15 277.141 1121.84 277.408C1121.53 277.664 1121.18 277.856 1120.8 277.984C1120.41 278.101 1120.04 278.16 1119.66 278.16C1119.19 278.16 1118.76 278.08 1118.35 277.92C1117.95 277.76 1117.62 277.52 1117.37 277.2C1117.14 276.869 1117.02 276.464 1117.02 275.984C1117.02 275.387 1117.22 274.896 1117.61 274.512C1118.02 274.117 1118.58 273.851 1119.29 273.712L1122.46 273.088V274.144L1119.89 274.672C1119.36 274.779 1118.97 274.928 1118.72 275.12C1118.46 275.312 1118.33 275.579 1118.33 275.92C1118.33 276.251 1118.46 276.523 1118.72 276.736C1118.99 276.939 1119.36 277.04 1119.84 277.04C1120.15 277.04 1120.44 277.003 1120.72 276.928C1121.01 276.843 1121.26 276.72 1121.49 276.56C1121.71 276.389 1121.89 276.181 1122.01 275.936C1122.14 275.68 1122.21 275.381 1122.21 275.04V272.832ZM1128.17 267.728V275.792C1128.17 276.187 1128.28 276.48 1128.51 276.672C1128.73 276.864 1129.02 276.96 1129.37 276.96C1129.68 276.96 1129.95 276.907 1130.17 276.8C1130.4 276.693 1130.6 276.549 1130.78 276.368L1131.23 277.44C1130.98 277.664 1130.69 277.84 1130.35 277.968C1130.02 278.096 1129.63 278.16 1129.2 278.16C1128.79 278.16 1128.41 278.091 1128.06 277.952C1127.71 277.803 1127.43 277.573 1127.21 277.264C1127.01 276.944 1126.9 276.528 1126.89 276.016V268.08L1128.17 267.728ZM1131.08 270V271.104H1125.29V270H1131.08ZM1133.63 268.464C1133.34 268.464 1133.11 268.379 1132.92 268.208C1132.75 268.027 1132.67 267.792 1132.67 267.504C1132.67 267.216 1132.75 266.987 1132.92 266.816C1133.11 266.635 1133.34 266.544 1133.63 266.544C1133.92 266.544 1134.15 266.635 1134.32 266.816C1134.5 266.987 1134.59 267.216 1134.59 267.504C1134.59 267.792 1134.5 268.027 1134.32 268.208C1134.15 268.379 1133.92 268.464 1133.63 268.464ZM1134.27 270V278H1132.99V270H1134.27ZM1142.53 270H1143.88L1140.55 278H1139.27L1135.94 270H1137.4L1139.93 276.704L1142.53 270ZM1148.86 269.84C1149.62 269.84 1150.29 270.005 1150.86 270.336C1151.45 270.667 1151.91 271.147 1152.24 271.776C1152.57 272.395 1152.73 273.136 1152.73 274C1152.73 274.864 1152.57 275.611 1152.24 276.24C1151.91 276.859 1151.45 277.333 1150.86 277.664C1150.29 277.995 1149.62 278.16 1148.86 278.16C1148.12 278.16 1147.45 277.995 1146.86 277.664C1146.28 277.333 1145.82 276.859 1145.49 276.24C1145.16 275.611 1144.99 274.864 1144.99 274C1144.99 273.136 1145.16 272.395 1145.49 271.776C1145.82 271.147 1146.28 270.667 1146.86 270.336C1147.45 270.005 1148.12 269.84 1148.86 269.84ZM1148.86 270.944C1148.32 270.944 1147.85 271.067 1147.47 271.312C1147.09 271.557 1146.79 271.909 1146.57 272.368C1146.37 272.816 1146.27 273.36 1146.27 274C1146.27 274.629 1146.37 275.173 1146.57 275.632C1146.79 276.091 1147.09 276.443 1147.47 276.688C1147.85 276.933 1148.32 277.056 1148.86 277.056C1149.41 277.056 1149.87 276.933 1150.25 276.688C1150.64 276.443 1150.93 276.091 1151.13 275.632C1151.35 275.173 1151.45 274.629 1151.45 274C1151.45 273.36 1151.35 272.816 1151.13 272.368C1150.93 271.909 1150.64 271.557 1150.25 271.312C1149.87 271.067 1149.41 270.944 1148.86 270.944Z" fill="black"/>
<rect x="1194" y="184.5" width="44" height="44" rx="22" fill="#455A64"/>
<path d="M1211.96 214.084C1211.75 213.876 1211.65 213.629 1211.65 213.344C1211.65 213.06 1211.75 212.813 1211.96 212.605L1218.06 206.501L1211.94 200.376C1211.74 200.181 1211.65 199.938 1211.65 199.646C1211.65 199.355 1211.75 199.105 1211.96 198.896C1212.17 198.688 1212.41 198.584 1212.7 198.584C1212.98 198.584 1213.23 198.688 1213.44 198.896L1220.44 205.917C1220.52 206.001 1220.58 206.091 1220.62 206.188C1220.65 206.285 1220.67 206.39 1220.67 206.501C1220.67 206.612 1220.65 206.716 1220.62 206.813C1220.58 206.91 1220.52 207.001 1220.44 207.084L1213.42 214.105C1213.22 214.299 1212.98 214.396 1212.7 214.396C1212.41 214.396 1212.17 214.292 1211.96 214.084Z" fill="white"/>
</svg>
