<?xml version="1.0" encoding="UTF-8" standalone="no"?>
<!-- Created with Inkscape (http://www.inkscape.org/) -->

<svg
   version="1.1"
   id="svg663"
   xml:space="preserve"
   width="682.66669"
   height="682.66669"
   viewBox="0 0 682.66669 682.66669"
   xmlns="http://www.w3.org/2000/svg"
   xmlns:svg="http://www.w3.org/2000/svg"><defs
     id="defs667"><clipPath
       clipPathUnits="userSpaceOnUse"
       id="clipPath677"><path
         d="M 0,512 H 512 V 0 H 0 Z"
         id="path675" /></clipPath></defs><g
     id="g669"
     transform="matrix(1.3333333,0,0,-1.3333333,0,682.66667)"><g
       id="g671"><g
         id="g673"
         clip-path="url(#clipPath677)"><g
           id="g679"
           transform="translate(120.3213,322.0024)"><path
             d="m 0,0 c -1.182,5.537 -2.982,10.491 -5.664,14.3 -12.539,17.81 4.441,50.175 22.799,51.597 6.545,0.507 14.707,2.604 23.56,20.064 7.047,13.9 5.076,-6.259 20.072,16.216 15.551,23.308 5.733,30.565 24.487,36.071 16.269,4.777 46.024,13.04 55.334,21.6 54.951,50.529 81.574,-9.785 59.265,-10.729 -27.354,-1.159 -63.206,-37.09 -60.007,-59.541 m 53.151,-63.361 c 5.953,-1.262 12.962,-2.344 21.249,-3.202 12.438,-1.287 23.492,-5.356 36.7,-25.945 3.7,-5.768 21.616,-4.71 37.334,-6.352 19.76,-2.065 33.611,-15.712 13.812,-45.235 -9.389,-14 13.612,-32.168 4.156,-42.717 -9.747,-10.873 21.474,-42.489 4.02,-52.839 -20.294,-12.033 -32.887,23.072 -54.457,10.149 -10.885,-6.52 6.436,-19.306 -1.263,-34.154 -4.476,-8.631 -16.51,-3.437 -21.368,-15.275 -3.741,-9.112 2.724,-12.585 6.125,-25.004 5.314,-19.418 -2.452,-21.057 -5.006,-38.348 -3.692,-24.989 9.49,-54.908 -15.168,-59.093 -24.658,-4.184 -5.635,57.357 -46.729,52.553 -8.713,-1.018 -44.242,-14.986 -48.079,12.83 -0.812,5.892 -16.162,-1.571 -15.551,18.96 0.257,8.643 -12.155,-2.877 -14.543,16.661 -1.12,9.151 -60.676,33.934 -64.27,27.759 -12.741,-21.891 -34.662,22.443 -57.046,21.556 -3.582,-0.143 -24.472,18.472 -14.618,24.447 10.452,6.339 -11.733,20.313 19.998,22.198 10.399,0.618 18.676,11.724 22.547,24.834"
             style="fill:none;stroke:#000000;stroke-width:20;stroke-linecap:round;stroke-linejoin:round;stroke-miterlimit:22.926;stroke-dasharray:none;stroke-opacity:1"
             id="path681" /></g><g
           id="g683"
           transform="translate(252.2744,259.7114)"><path
             d="m 0,0 c -14.102,0 -60,51.249 -60,90.681 0,32.65 27.114,60.602 60,60.477 32.887,0.125 60,-27.827 60,-60.477 C 60,51.249 14.103,0 0,0 Z"
             style="fill:none;stroke:#000000;stroke-width:20;stroke-linecap:round;stroke-linejoin:round;stroke-miterlimit:22.926;stroke-dasharray:none;stroke-opacity:1"
             id="path685" /></g><g
           id="g687"
           transform="translate(252.2744,330.3926)"><path
             d="M 0,0 C 11.016,0 20,8.984 20,20 20,31.016 11.016,40 0,40 -11.016,40 -20,31.016 -20,20 -20,8.984 -11.016,0 0,0 Z"
             style="fill:none;stroke:#000000;stroke-width:20;stroke-linecap:round;stroke-linejoin:round;stroke-miterlimit:22.926;stroke-dasharray:none;stroke-opacity:1"
             id="path689" /></g><g
           id="g691"
           transform="translate(121.3896,277.0063)"><path
             d="M 0,0 V -0.007"
             style="fill:none;stroke:#000000;stroke-width:20;stroke-linecap:round;stroke-linejoin:round;stroke-miterlimit:2.613;stroke-dasharray:none;stroke-opacity:1"
             id="path693" /></g></g></g></g></svg>
