<svg width="442" height="169" viewBox="0 0 442 169" fill="none" xmlns="http://www.w3.org/2000/svg">
<mask id="path-1-outside-1_2310_627" maskUnits="userSpaceOnUse" x="0" y="0" width="442" height="41" fill="black">
<rect fill="white" width="442" height="41"/>
<path d="M0 0H442V40H0V0Z"/>
</mask>
<path d="M442 39H0V41H442V39Z" fill="#D5D7DB" mask="url(#path-1-outside-1_2310_627)"/>
<path d="M5.136 6.44C6.78933 6.44 8.08533 6.89867 9.024 7.816C9.97333 8.72267 10.448 10.024 10.448 11.72C10.448 13.416 9.97333 14.7227 9.024 15.64C8.08533 16.5467 6.78933 17 5.136 17H1.728V6.44H5.136ZM5.264 15.8C6.46933 15.8 7.408 15.4427 8.08 14.728C8.76267 14.0027 9.104 13 9.104 11.72C9.104 10.44 8.76267 9.44267 8.08 8.728C7.408 8.00267 6.46933 7.64 5.264 7.64H3.008V15.8H5.264ZM13.5811 7.464C13.2931 7.464 13.0585 7.37867 12.8771 7.208C12.7065 7.02667 12.6211 6.792 12.6211 6.504C12.6211 6.216 12.7065 5.98667 12.8771 5.816C13.0585 5.63467 13.2931 5.544 13.5811 5.544C13.8691 5.544 14.0985 5.63467 14.2691 5.816C14.4505 5.98667 14.5411 6.216 14.5411 6.504C14.5411 6.792 14.4505 7.02667 14.2691 7.208C14.0985 7.37867 13.8691 7.464 13.5811 7.464ZM14.2211 9V17H12.9411V9H14.2211ZM20.0711 17.16C19.2925 17.16 18.5725 16.9947 17.9111 16.664C17.2605 16.3333 16.7591 15.864 16.4071 15.256L17.4951 14.472C17.7298 14.9627 18.0711 15.3467 18.5191 15.624C18.9778 15.9013 19.5271 16.04 20.1671 16.04C20.7325 16.04 21.1751 15.9333 21.4951 15.72C21.8151 15.496 21.9751 15.208 21.9751 14.856C21.9751 14.632 21.9005 14.4293 21.7511 14.248C21.6125 14.056 21.3405 13.9173 20.9351 13.832L19.0151 13.432C18.2365 13.272 17.6765 13.0053 17.3351 12.632C17.0045 12.2587 16.8391 11.7947 16.8391 11.24C16.8391 10.8027 16.9618 10.4027 17.2071 10.04C17.4631 9.67733 17.8205 9.38933 18.2791 9.176C18.7485 8.952 19.2978 8.84 19.9271 8.84C20.7165 8.84 21.3831 8.99467 21.9271 9.304C22.4711 9.61333 22.8765 10.0507 23.1431 10.616L22.0711 11.32C21.8898 10.8507 21.5965 10.5093 21.1911 10.296C20.7858 10.072 20.3645 9.96 19.9271 9.96C19.5431 9.96 19.2125 10.0133 18.9351 10.12C18.6685 10.2267 18.4605 10.376 18.3111 10.568C18.1725 10.7493 18.1031 10.9573 18.1031 11.192C18.1031 11.4267 18.1831 11.6453 18.3431 11.848C18.5031 12.04 18.8018 12.1787 19.2391 12.264L21.2391 12.68C21.9858 12.8293 22.5085 13.0747 22.8071 13.416C23.1058 13.7573 23.2551 14.1733 23.2551 14.664C23.2551 15.1653 23.1218 15.608 22.8551 15.992C22.5885 16.3653 22.2151 16.6533 21.7351 16.856C21.2551 17.0587 20.7005 17.16 20.0711 17.16ZM27.5166 6.728V14.792C27.5166 15.1867 27.6286 15.48 27.8526 15.672C28.0766 15.864 28.3646 15.96 28.7166 15.96C29.026 15.96 29.2926 15.9067 29.5166 15.8C29.7406 15.6933 29.9433 15.5493 30.1246 15.368L30.5726 16.44C30.3273 16.664 30.034 16.84 29.6926 16.968C29.362 17.096 28.978 17.16 28.5406 17.16C28.1353 17.16 27.7566 17.0907 27.4046 16.952C27.0526 16.8027 26.77 16.5733 26.5566 16.264C26.354 15.944 26.2473 15.528 26.2366 15.016V7.08L27.5166 6.728ZM30.4286 9V10.104H24.6366V9H30.4286ZM32.3318 17V9H33.3718L33.5478 10.312C33.7718 9.82133 34.0971 9.45333 34.5238 9.208C34.9611 8.96267 35.4891 8.84 36.1078 8.84C36.2464 8.84 36.3958 8.85067 36.5558 8.872C36.7264 8.89333 36.8704 8.936 36.9878 9L36.7638 10.168C36.6464 10.1253 36.5184 10.0933 36.3798 10.072C36.2411 10.0507 36.0438 10.04 35.7878 10.04C35.4571 10.04 35.1211 10.136 34.7798 10.328C34.4491 10.52 34.1718 10.8133 33.9478 11.208C33.7238 11.592 33.6118 12.0827 33.6118 12.68V17H32.3318ZM39.503 7.464C39.215 7.464 38.9803 7.37867 38.799 7.208C38.6283 7.02667 38.543 6.792 38.543 6.504C38.543 6.216 38.6283 5.98667 38.799 5.816C38.9803 5.63467 39.215 5.544 39.503 5.544C39.791 5.544 40.0203 5.63467 40.191 5.816C40.3723 5.98667 40.463 6.216 40.463 6.504C40.463 6.792 40.3723 7.02667 40.191 7.208C40.0203 7.37867 39.791 7.464 39.503 7.464ZM40.143 9V17H38.863V9H40.143ZM47.033 17.16C46.585 17.16 46.169 17.08 45.785 16.92C45.401 16.76 45.0703 16.536 44.793 16.248C44.5157 15.96 44.3077 15.6347 44.169 15.272L44.345 15.048L44.233 17H43.113V5.32H44.393V10.808L44.233 10.568C44.4463 10.0667 44.8037 9.656 45.305 9.336C45.817 9.00533 46.3983 8.84 47.049 8.84C47.7103 8.84 48.3183 9.00533 48.873 9.336C49.4277 9.66667 49.8703 10.1413 50.201 10.76C50.5317 11.3787 50.697 12.1253 50.697 13C50.697 13.864 50.5263 14.6107 50.185 15.24C49.8543 15.8587 49.4117 16.3333 48.857 16.664C48.3023 16.9947 47.6943 17.16 47.033 17.16ZM46.905 16.04C47.6943 16.04 48.3077 15.7627 48.745 15.208C49.193 14.6533 49.417 13.9173 49.417 13C49.417 12.0827 49.1983 11.3467 48.761 10.792C48.3237 10.2373 47.7103 9.96 46.921 9.96C46.4197 9.96 45.977 10.088 45.593 10.344C45.2197 10.6 44.9263 10.9573 44.713 11.416C44.4997 11.8747 44.393 12.4133 44.393 13.032C44.393 13.64 44.4943 14.1733 44.697 14.632C44.9103 15.08 45.2037 15.4267 45.577 15.672C45.961 15.9173 46.4037 16.04 46.905 16.04ZM56.0403 17.16C55.5283 17.16 55.0429 17.064 54.5843 16.872C54.1363 16.68 53.7683 16.3707 53.4803 15.944C53.2029 15.5067 53.0643 14.9413 53.0643 14.248V9H54.3443V13.912C54.3443 14.7227 54.5203 15.2827 54.8723 15.592C55.2243 15.8907 55.7203 16.04 56.3602 16.04C56.6589 16.04 56.9523 15.992 57.2403 15.896C57.5283 15.7893 57.7843 15.6293 58.0083 15.416C58.2429 15.192 58.4243 14.9093 58.5523 14.568C58.6909 14.2267 58.7603 13.8213 58.7603 13.352V9H60.0403V17H58.9203L58.8403 15.784C58.5629 16.264 58.1843 16.616 57.7043 16.84C57.2349 17.0533 56.6803 17.16 56.0403 17.16ZM66.3313 8.84C66.8859 8.84 67.3713 8.92533 67.7873 9.096C68.2139 9.26667 68.5819 9.512 68.8913 9.832C69.2006 10.152 69.4513 10.5307 69.6433 10.968L68.4273 11.544C68.2566 11.032 67.9953 10.6427 67.6433 10.376C67.3019 10.0987 66.8539 9.96 66.2993 9.96C65.7659 9.96 65.3073 10.0827 64.9233 10.328C64.5393 10.5627 64.2459 10.9093 64.0433 11.368C63.8406 11.816 63.7393 12.36 63.7393 13C63.7393 13.6293 63.8406 14.1733 64.0433 14.632C64.2459 15.0907 64.5393 15.4427 64.9233 15.688C65.3073 15.9227 65.7659 16.04 66.2993 16.04C66.7153 16.04 67.0726 15.976 67.3713 15.848C67.6806 15.72 67.9313 15.5333 68.1233 15.288C68.3259 15.0427 68.4646 14.744 68.5393 14.392L69.7233 14.808C69.5419 15.2987 69.2913 15.72 68.9713 16.072C68.6619 16.424 68.2833 16.696 67.8353 16.888C67.3979 17.0693 66.8966 17.16 66.3313 17.16C65.5846 17.16 64.9179 16.9947 64.3313 16.664C63.7446 16.3333 63.2859 15.8587 62.9553 15.24C62.6246 14.6107 62.4593 13.864 62.4593 13C62.4593 12.136 62.6246 11.3947 62.9553 10.776C63.2859 10.1467 63.7446 9.66667 64.3313 9.336C64.9179 9.00533 65.5846 8.84 66.3313 8.84ZM72.6124 7.464C72.3244 7.464 72.0897 7.37867 71.9084 7.208C71.7377 7.02667 71.6524 6.792 71.6524 6.504C71.6524 6.216 71.7377 5.98667 71.9084 5.816C72.0897 5.63467 72.3244 5.544 72.6124 5.544C72.9004 5.544 73.1297 5.63467 73.3004 5.816C73.4817 5.98667 73.5724 6.216 73.5724 6.504C73.5724 6.792 73.4817 7.02667 73.3004 7.208C73.1297 7.37867 72.9004 7.464 72.6124 7.464ZM73.2524 9V17H71.9724V9H73.2524ZM79.5344 8.84C80.2917 8.84 80.9584 9.00533 81.5344 9.336C82.121 9.66667 82.5797 10.1467 82.9104 10.776C83.241 11.3947 83.4064 12.136 83.4064 13C83.4064 13.864 83.241 14.6107 82.9104 15.24C82.5797 15.8587 82.121 16.3333 81.5344 16.664C80.9584 16.9947 80.2917 17.16 79.5344 17.16C78.7877 17.16 78.121 16.9947 77.5344 16.664C76.9477 16.3333 76.489 15.8587 76.1584 15.24C75.8277 14.6107 75.6624 13.864 75.6624 13C75.6624 12.136 75.8277 11.3947 76.1584 10.776C76.489 10.1467 76.9477 9.66667 77.5344 9.336C78.121 9.00533 78.7877 8.84 79.5344 8.84ZM79.5344 9.944C78.9904 9.944 78.5264 10.0667 78.1424 10.312C77.7584 10.5573 77.4597 10.9093 77.2464 11.368C77.0437 11.816 76.9424 12.36 76.9424 13C76.9424 13.6293 77.0437 14.1733 77.2464 14.632C77.4597 15.0907 77.7584 15.4427 78.1424 15.688C78.5264 15.9333 78.9904 16.056 79.5344 16.056C80.0784 16.056 80.5424 15.9333 80.9264 15.688C81.3104 15.4427 81.6037 15.0907 81.8064 14.632C82.0197 14.1733 82.1264 13.6293 82.1264 13C82.1264 12.36 82.0197 11.816 81.8064 11.368C81.6037 10.9093 81.3104 10.5573 80.9264 10.312C80.5424 10.0667 80.0784 9.944 79.5344 9.944ZM79.9664 5H81.3584L79.7904 7.672H78.7504L79.9664 5ZM85.8161 17V9H86.9361L87.0481 10.792L86.8401 10.616C87.0108 10.1893 87.2401 9.848 87.5281 9.592C87.8161 9.32533 88.1468 9.13333 88.5201 9.016C88.9041 8.89867 89.2988 8.84 89.7041 8.84C90.2801 8.84 90.8028 8.952 91.2721 9.176C91.7415 9.38933 92.1148 9.72 92.3921 10.168C92.6801 10.616 92.8241 11.1867 92.8241 11.88V17H91.5441V12.328C91.5441 11.4427 91.3521 10.8293 90.9681 10.488C90.5948 10.136 90.1308 9.96 89.5761 9.96C89.1921 9.96 88.8081 10.0507 88.4241 10.232C88.0401 10.4133 87.7201 10.7067 87.4641 11.112C87.2188 11.5173 87.0961 12.0613 87.0961 12.744V17H85.8161ZM104.824 6.44C106.477 6.44 107.773 6.89867 108.712 7.816C109.661 8.72267 110.136 10.024 110.136 11.72C110.136 13.416 109.661 14.7227 108.712 15.64C107.773 16.5467 106.477 17 104.824 17H101.416V6.44H104.824ZM104.952 15.8C106.157 15.8 107.096 15.4427 107.767 14.728C108.45 14.0027 108.792 13 108.792 11.72C108.792 10.44 108.45 9.44267 107.767 8.728C107.096 8.00267 106.157 7.64 104.952 7.64H102.696V15.8H104.952ZM116.019 8.84C116.776 8.84 117.443 9.00533 118.019 9.336C118.605 9.66667 119.064 10.1467 119.395 10.776C119.725 11.3947 119.891 12.136 119.891 13C119.891 13.864 119.725 14.6107 119.395 15.24C119.064 15.8587 118.605 16.3333 118.019 16.664C117.443 16.9947 116.776 17.16 116.019 17.16C115.272 17.16 114.605 16.9947 114.019 16.664C113.432 16.3333 112.973 15.8587 112.643 15.24C112.312 14.6107 112.147 13.864 112.147 13C112.147 12.136 112.312 11.3947 112.643 10.776C112.973 10.1467 113.432 9.66667 114.019 9.336C114.605 9.00533 115.272 8.84 116.019 8.84ZM116.019 9.944C115.475 9.944 115.011 10.0667 114.627 10.312C114.243 10.5573 113.944 10.9093 113.731 11.368C113.528 11.816 113.427 12.36 113.427 13C113.427 13.6293 113.528 14.1733 113.731 14.632C113.944 15.0907 114.243 15.4427 114.627 15.688C115.011 15.9333 115.475 16.056 116.019 16.056C116.563 16.056 117.027 15.9333 117.411 15.688C117.795 15.4427 118.088 15.0907 118.291 14.632C118.504 14.1733 118.611 13.6293 118.611 13C118.611 12.36 118.504 11.816 118.291 11.368C118.088 10.9093 117.795 10.5573 117.411 10.312C117.027 10.0667 116.563 9.944 116.019 9.944ZM125.613 8.84C126.167 8.84 126.653 8.92533 127.069 9.096C127.495 9.26667 127.863 9.512 128.173 9.832C128.482 10.152 128.733 10.5307 128.925 10.968L127.709 11.544C127.538 11.032 127.277 10.6427 126.925 10.376C126.583 10.0987 126.135 9.96 125.581 9.96C125.047 9.96 124.589 10.0827 124.205 10.328C123.821 10.5627 123.527 10.9093 123.325 11.368C123.122 11.816 123.021 12.36 123.021 13C123.021 13.6293 123.122 14.1733 123.325 14.632C123.527 15.0907 123.821 15.4427 124.205 15.688C124.589 15.9227 125.047 16.04 125.581 16.04C125.997 16.04 126.354 15.976 126.653 15.848C126.962 15.72 127.213 15.5333 127.405 15.288C127.607 15.0427 127.746 14.744 127.821 14.392L129.005 14.808C128.823 15.2987 128.573 15.72 128.253 16.072C127.943 16.424 127.565 16.696 127.117 16.888C126.679 17.0693 126.178 17.16 125.613 17.16C124.866 17.16 124.199 16.9947 123.613 16.664C123.026 16.3333 122.567 15.8587 122.237 15.24C121.906 14.6107 121.741 13.864 121.741 13C121.741 12.136 121.906 11.3947 122.237 10.776C122.567 10.1467 123.026 9.66667 123.613 9.336C124.199 9.00533 124.866 8.84 125.613 8.84ZM134.598 17.16C133.84 17.16 133.163 16.9947 132.566 16.664C131.979 16.3333 131.52 15.8587 131.19 15.24C130.859 14.6107 130.694 13.864 130.694 13C130.694 12.136 130.859 11.3947 131.19 10.776C131.52 10.1467 131.974 9.66667 132.55 9.336C133.126 9.00533 133.782 8.84 134.518 8.84C135.264 8.84 135.899 9 136.422 9.32C136.955 9.64 137.36 10.0773 137.638 10.632C137.915 11.176 138.054 11.7893 138.054 12.472C138.054 12.6533 138.048 12.8187 138.038 12.968C138.027 13.1173 138.011 13.2507 137.99 13.368H131.526V12.232H137.43L136.774 12.36C136.774 11.592 136.56 11 136.134 10.584C135.718 10.168 135.168 9.96 134.486 9.96C133.963 9.96 133.51 10.0827 133.126 10.328C132.752 10.5627 132.459 10.9093 132.246 11.368C132.043 11.816 131.942 12.36 131.942 13C131.942 13.6293 132.048 14.1733 132.262 14.632C132.475 15.0907 132.774 15.4427 133.158 15.688C133.552 15.9227 134.022 16.04 134.566 16.04C135.152 16.04 135.627 15.928 135.99 15.704C136.363 15.48 136.662 15.176 136.886 14.792L137.894 15.384C137.691 15.7467 137.43 16.0613 137.11 16.328C136.8 16.5947 136.432 16.8027 136.006 16.952C135.59 17.0907 135.12 17.16 134.598 17.16ZM149.589 6.44C151.242 6.44 152.538 6.89867 153.477 7.816C154.426 8.72267 154.901 10.024 154.901 11.72C154.901 13.416 154.426 14.7227 153.477 15.64C152.538 16.5467 151.242 17 149.589 17H146.181V6.44H149.589ZM149.717 15.8C150.922 15.8 151.861 15.4427 152.533 14.728C153.216 14.0027 153.557 13 153.557 11.72C153.557 10.44 153.216 9.44267 152.533 8.728C151.861 8.00267 150.922 7.64 149.717 7.64H147.461V15.8H149.717ZM160.784 8.84C161.542 8.84 162.208 9.00533 162.784 9.336C163.371 9.66667 163.83 10.1467 164.16 10.776C164.491 11.3947 164.656 12.136 164.656 13C164.656 13.864 164.491 14.6107 164.16 15.24C163.83 15.8587 163.371 16.3333 162.784 16.664C162.208 16.9947 161.542 17.16 160.784 17.16C160.038 17.16 159.371 16.9947 158.784 16.664C158.198 16.3333 157.739 15.8587 157.408 15.24C157.078 14.6107 156.912 13.864 156.912 13C156.912 12.136 157.078 11.3947 157.408 10.776C157.739 10.1467 158.198 9.66667 158.784 9.336C159.371 9.00533 160.038 8.84 160.784 8.84ZM160.784 9.944C160.24 9.944 159.776 10.0667 159.392 10.312C159.008 10.5573 158.71 10.9093 158.496 11.368C158.294 11.816 158.192 12.36 158.192 13C158.192 13.6293 158.294 14.1733 158.496 14.632C158.71 15.0907 159.008 15.4427 159.392 15.688C159.776 15.9333 160.24 16.056 160.784 16.056C161.328 16.056 161.792 15.9333 162.176 15.688C162.56 15.4427 162.854 15.0907 163.056 14.632C163.27 14.1733 163.376 13.6293 163.376 13C163.376 12.36 163.27 11.816 163.056 11.368C162.854 10.9093 162.56 10.5573 162.176 10.312C161.792 10.0667 161.328 9.944 160.784 9.944ZM170.378 8.84C170.933 8.84 171.418 8.92533 171.834 9.096C172.261 9.26667 172.629 9.512 172.938 9.832C173.247 10.152 173.498 10.5307 173.69 10.968L172.474 11.544C172.303 11.032 172.042 10.6427 171.69 10.376C171.349 10.0987 170.901 9.96 170.346 9.96C169.813 9.96 169.354 10.0827 168.97 10.328C168.586 10.5627 168.293 10.9093 168.09 11.368C167.887 11.816 167.786 12.36 167.786 13C167.786 13.6293 167.887 14.1733 168.09 14.632C168.293 15.0907 168.586 15.4427 168.97 15.688C169.354 15.9227 169.813 16.04 170.346 16.04C170.762 16.04 171.119 15.976 171.418 15.848C171.727 15.72 171.978 15.5333 172.17 15.288C172.373 15.0427 172.511 14.744 172.586 14.392L173.77 14.808C173.589 15.2987 173.338 15.72 173.018 16.072C172.709 16.424 172.33 16.696 171.882 16.888C171.445 17.0693 170.943 17.16 170.378 17.16C169.631 17.16 168.965 16.9947 168.378 16.664C167.791 16.3333 167.333 15.8587 167.002 15.24C166.671 14.6107 166.506 13.864 166.506 13C166.506 12.136 166.671 11.3947 167.002 10.776C167.333 10.1467 167.791 9.66667 168.378 9.336C168.965 9.00533 169.631 8.84 170.378 8.84ZM179.363 17.16C178.606 17.16 177.929 16.9947 177.331 16.664C176.745 16.3333 176.286 15.8587 175.955 15.24C175.625 14.6107 175.459 13.864 175.459 13C175.459 12.136 175.625 11.3947 175.955 10.776C176.286 10.1467 176.739 9.66667 177.315 9.336C177.891 9.00533 178.547 8.84 179.283 8.84C180.03 8.84 180.665 9 181.187 9.32C181.721 9.64 182.126 10.0773 182.403 10.632C182.681 11.176 182.819 11.7893 182.819 12.472C182.819 12.6533 182.814 12.8187 182.803 12.968C182.793 13.1173 182.777 13.2507 182.755 13.368H176.291V12.232H182.195L181.539 12.36C181.539 11.592 181.326 11 180.899 10.584C180.483 10.168 179.934 9.96 179.251 9.96C178.729 9.96 178.275 10.0827 177.891 10.328C177.518 10.5627 177.225 10.9093 177.011 11.368C176.809 11.816 176.707 12.36 176.707 13C176.707 13.6293 176.814 14.1733 177.027 14.632C177.241 15.0907 177.539 15.4427 177.923 15.688C178.318 15.9227 178.787 16.04 179.331 16.04C179.918 16.04 180.393 15.928 180.755 15.704C181.129 15.48 181.427 15.176 181.651 14.792L182.659 15.384C182.457 15.7467 182.195 16.0613 181.875 16.328C181.566 16.5947 181.198 16.8027 180.771 16.952C180.355 17.0907 179.886 17.16 179.363 17.16ZM189.926 11.832C189.926 11.2347 189.766 10.776 189.446 10.456C189.126 10.1253 188.672 9.96 188.086 9.96C187.531 9.96 187.062 10.0827 186.678 10.328C186.294 10.5627 186.011 10.9467 185.83 11.48L184.79 10.84C185.003 10.2427 185.398 9.76267 185.974 9.4C186.55 9.02667 187.264 8.84 188.118 8.84C188.694 8.84 189.216 8.94133 189.686 9.144C190.155 9.336 190.523 9.63467 190.79 10.04C191.067 10.4347 191.206 10.9467 191.206 11.576V15.448C191.206 15.832 191.408 16.024 191.814 16.024C192.016 16.024 192.214 15.9973 192.406 15.944L192.342 16.952C192.128 17.0587 191.851 17.112 191.51 17.112C191.2 17.112 190.923 17.0533 190.678 16.936C190.432 16.8187 190.24 16.6427 190.102 16.408C189.963 16.1627 189.894 15.8587 189.894 15.496V15.336L190.214 15.384C190.086 15.8 189.867 16.1413 189.558 16.408C189.248 16.664 188.902 16.856 188.518 16.984C188.134 17.1013 187.755 17.16 187.382 17.16C186.912 17.16 186.475 17.08 186.07 16.92C185.664 16.76 185.339 16.52 185.094 16.2C184.859 15.8693 184.742 15.464 184.742 14.984C184.742 14.3867 184.939 13.896 185.334 13.512C185.739 13.1173 186.299 12.8507 187.014 12.712L190.182 12.088V13.144L187.606 13.672C187.083 13.7787 186.694 13.928 186.438 14.12C186.182 14.312 186.054 14.5787 186.054 14.92C186.054 15.2507 186.182 15.5227 186.438 15.736C186.704 15.9387 187.078 16.04 187.558 16.04C187.867 16.04 188.16 16.0027 188.438 15.928C188.726 15.8427 188.982 15.72 189.206 15.56C189.43 15.3893 189.606 15.1813 189.734 14.936C189.862 14.68 189.926 14.3813 189.926 14.04V11.832ZM199.347 9H200.691L197.363 17H196.083L192.755 9H194.211L196.739 15.704L199.347 9ZM206.832 11.832C206.832 11.2347 206.672 10.776 206.352 10.456C206.032 10.1253 205.579 9.96 204.992 9.96C204.437 9.96 203.968 10.0827 203.584 10.328C203.2 10.5627 202.917 10.9467 202.736 11.48L201.696 10.84C201.909 10.2427 202.304 9.76267 202.88 9.4C203.456 9.02667 204.171 8.84 205.024 8.84C205.6 8.84 206.123 8.94133 206.592 9.144C207.061 9.336 207.429 9.63467 207.696 10.04C207.973 10.4347 208.112 10.9467 208.112 11.576V15.448C208.112 15.832 208.315 16.024 208.72 16.024C208.923 16.024 209.12 15.9973 209.312 15.944L209.248 16.952C209.035 17.0587 208.757 17.112 208.416 17.112C208.107 17.112 207.829 17.0533 207.584 16.936C207.339 16.8187 207.147 16.6427 207.008 16.408C206.869 16.1627 206.8 15.8587 206.8 15.496V15.336L207.12 15.384C206.992 15.8 206.773 16.1413 206.464 16.408C206.155 16.664 205.808 16.856 205.424 16.984C205.04 17.1013 204.661 17.16 204.288 17.16C203.819 17.16 203.381 17.08 202.976 16.92C202.571 16.76 202.245 16.52 202 16.2C201.765 15.8693 201.648 15.464 201.648 14.984C201.648 14.3867 201.845 13.896 202.24 13.512C202.645 13.1173 203.205 12.8507 203.92 12.712L207.088 12.088V13.144L204.512 13.672C203.989 13.7787 203.6 13.928 203.344 14.12C203.088 14.312 202.96 14.5787 202.96 14.92C202.96 15.2507 203.088 15.5227 203.344 15.736C203.611 15.9387 203.984 16.04 204.464 16.04C204.773 16.04 205.067 16.0027 205.344 15.928C205.632 15.8427 205.888 15.72 206.112 15.56C206.336 15.3893 206.512 15.1813 206.64 14.936C206.768 14.68 206.832 14.3813 206.832 14.04V11.832ZM214.102 17.16C213.324 17.16 212.604 16.9947 211.942 16.664C211.292 16.3333 210.79 15.864 210.438 15.256L211.526 14.472C211.761 14.9627 212.102 15.3467 212.55 15.624C213.009 15.9013 213.558 16.04 214.198 16.04C214.764 16.04 215.206 15.9333 215.526 15.72C215.846 15.496 216.006 15.208 216.006 14.856C216.006 14.632 215.932 14.4293 215.782 14.248C215.644 14.056 215.372 13.9173 214.966 13.832L213.046 13.432C212.268 13.272 211.708 13.0053 211.366 12.632C211.036 12.2587 210.87 11.7947 210.87 11.24C210.87 10.8027 210.993 10.4027 211.238 10.04C211.494 9.67733 211.852 9.38933 212.31 9.176C212.78 8.952 213.329 8.84 213.958 8.84C214.748 8.84 215.414 8.99467 215.958 9.304C216.502 9.61333 216.908 10.0507 217.174 10.616L216.102 11.32C215.921 10.8507 215.628 10.5093 215.222 10.296C214.817 10.072 214.396 9.96 213.958 9.96C213.574 9.96 213.244 10.0133 212.966 10.12C212.7 10.2267 212.492 10.376 212.342 10.568C212.204 10.7493 212.134 10.9573 212.134 11.192C212.134 11.4267 212.214 11.6453 212.374 11.848C212.534 12.04 212.833 12.1787 213.27 12.264L215.27 12.68C216.017 12.8293 216.54 13.0747 216.838 13.416C217.137 13.7573 217.286 14.1733 217.286 14.664C217.286 15.1653 217.153 15.608 216.886 15.992C216.62 16.3653 216.246 16.6533 215.766 16.856C215.286 17.0587 214.732 17.16 214.102 17.16ZM220.3 15.08C220.556 15.08 220.769 15.1493 220.94 15.288C221.121 15.416 221.26 15.5973 221.356 15.832C221.452 16.056 221.5 16.3227 221.5 16.632C221.5 16.984 221.436 17.3307 221.308 17.672C221.191 18.0133 221.004 18.328 220.748 18.616C220.492 18.904 220.161 19.144 219.756 19.336L219.084 18.712C219.372 18.616 219.623 18.4827 219.836 18.312C220.06 18.1413 220.241 17.9493 220.38 17.736C220.519 17.5227 220.609 17.304 220.652 17.08L220.588 17.048C220.545 17.08 220.492 17.1067 220.428 17.128C220.364 17.1493 220.268 17.16 220.14 17.16C220.012 17.16 219.879 17.1227 219.74 17.048C219.612 16.9733 219.5 16.8667 219.404 16.728C219.308 16.5787 219.26 16.3867 219.26 16.152C219.26 15.96 219.308 15.784 219.404 15.624C219.5 15.4533 219.623 15.32 219.772 15.224C219.932 15.128 220.108 15.08 220.3 15.08ZM233.011 6.44C234.664 6.44 235.96 6.89867 236.899 7.816C237.848 8.72267 238.323 10.024 238.323 11.72C238.323 13.416 237.848 14.7227 236.899 15.64C235.96 16.5467 234.664 17 233.011 17H229.603V6.44H233.011ZM233.139 15.8C234.344 15.8 235.283 15.4427 235.955 14.728C236.638 14.0027 236.979 13 236.979 11.72C236.979 10.44 236.638 9.44267 235.955 8.728C235.283 8.00267 234.344 7.64 233.139 7.64H230.883V15.8H233.139ZM244.206 8.84C244.964 8.84 245.63 9.00533 246.206 9.336C246.793 9.66667 247.252 10.1467 247.582 10.776C247.913 11.3947 248.078 12.136 248.078 13C248.078 13.864 247.913 14.6107 247.582 15.24C247.252 15.8587 246.793 16.3333 246.206 16.664C245.63 16.9947 244.964 17.16 244.206 17.16C243.46 17.16 242.793 16.9947 242.206 16.664C241.62 16.3333 241.161 15.8587 240.83 15.24C240.5 14.6107 240.334 13.864 240.334 13C240.334 12.136 240.5 11.3947 240.83 10.776C241.161 10.1467 241.62 9.66667 242.206 9.336C242.793 9.00533 243.46 8.84 244.206 8.84ZM244.206 9.944C243.662 9.944 243.198 10.0667 242.814 10.312C242.43 10.5573 242.132 10.9093 241.918 11.368C241.716 11.816 241.614 12.36 241.614 13C241.614 13.6293 241.716 14.1733 241.918 14.632C242.132 15.0907 242.43 15.4427 242.814 15.688C243.198 15.9333 243.662 16.056 244.206 16.056C244.75 16.056 245.214 15.9333 245.598 15.688C245.982 15.4427 246.276 15.0907 246.478 14.632C246.692 14.1733 246.798 13.6293 246.798 13C246.798 12.36 246.692 11.816 246.478 11.368C246.276 10.9093 245.982 10.5573 245.598 10.312C245.214 10.0667 244.75 9.944 244.206 9.944ZM253.8 8.84C254.355 8.84 254.84 8.92533 255.256 9.096C255.683 9.26667 256.051 9.512 256.36 9.832C256.669 10.152 256.92 10.5307 257.112 10.968L255.896 11.544C255.725 11.032 255.464 10.6427 255.112 10.376C254.771 10.0987 254.323 9.96 253.768 9.96C253.235 9.96 252.776 10.0827 252.392 10.328C252.008 10.5627 251.715 10.9093 251.512 11.368C251.309 11.816 251.208 12.36 251.208 13C251.208 13.6293 251.309 14.1733 251.512 14.632C251.715 15.0907 252.008 15.4427 252.392 15.688C252.776 15.9227 253.235 16.04 253.768 16.04C254.184 16.04 254.541 15.976 254.84 15.848C255.149 15.72 255.4 15.5333 255.592 15.288C255.795 15.0427 255.933 14.744 256.008 14.392L257.192 14.808C257.011 15.2987 256.76 15.72 256.44 16.072C256.131 16.424 255.752 16.696 255.304 16.888C254.867 17.0693 254.365 17.16 253.8 17.16C253.053 17.16 252.387 16.9947 251.8 16.664C251.213 16.3333 250.755 15.8587 250.424 15.24C250.093 14.6107 249.928 13.864 249.928 13C249.928 12.136 250.093 11.3947 250.424 10.776C250.755 10.1467 251.213 9.66667 251.8 9.336C252.387 9.00533 253.053 8.84 253.8 8.84ZM262.337 17.16C261.825 17.16 261.34 17.064 260.881 16.872C260.433 16.68 260.065 16.3707 259.777 15.944C259.5 15.5067 259.361 14.9413 259.361 14.248V9H260.641V13.912C260.641 14.7227 260.817 15.2827 261.169 15.592C261.521 15.8907 262.017 16.04 262.657 16.04C262.956 16.04 263.249 15.992 263.537 15.896C263.825 15.7893 264.081 15.6293 264.305 15.416C264.54 15.192 264.721 14.9093 264.849 14.568C264.988 14.2267 265.057 13.8213 265.057 13.352V9H266.337V17H265.217L265.137 15.784C264.86 16.264 264.481 16.616 264.001 16.84C263.532 17.0533 262.977 17.16 262.337 17.16ZM269.316 17V9H270.436L270.516 10.248C270.804 9.75733 271.177 9.4 271.636 9.176C272.105 8.952 272.585 8.84 273.076 8.84C273.641 8.84 274.175 8.968 274.676 9.224C275.177 9.48 275.561 9.87467 275.828 10.408C275.999 10.0453 276.239 9.752 276.548 9.528C276.857 9.29333 277.193 9.12267 277.556 9.016C277.929 8.89867 278.281 8.84 278.612 8.84C279.124 8.84 279.609 8.94667 280.068 9.16C280.537 9.37333 280.921 9.704 281.22 10.152C281.519 10.6 281.668 11.176 281.668 11.88V17H280.388V12.008C280.388 11.2827 280.207 10.76 279.844 10.44C279.481 10.12 279.033 9.96 278.5 9.96C278.084 9.96 277.695 10.0613 277.332 10.264C276.969 10.4667 276.676 10.7653 276.452 11.16C276.239 11.5547 276.132 12.04 276.132 12.616V17H274.852V12.008C274.852 11.2827 274.671 10.76 274.308 10.44C273.945 10.12 273.497 9.96 272.964 9.96C272.612 9.96 272.249 10.056 271.876 10.248C271.513 10.4293 271.209 10.7227 270.964 11.128C270.719 11.5333 270.596 12.0667 270.596 12.728V17H269.316ZM287.91 17.16C287.153 17.16 286.475 16.9947 285.878 16.664C285.291 16.3333 284.833 15.8587 284.502 15.24C284.171 14.6107 284.006 13.864 284.006 13C284.006 12.136 284.171 11.3947 284.502 10.776C284.833 10.1467 285.286 9.66667 285.862 9.336C286.438 9.00533 287.094 8.84 287.83 8.84C288.577 8.84 289.211 9 289.734 9.32C290.267 9.64 290.673 10.0773 290.95 10.632C291.227 11.176 291.366 11.7893 291.366 12.472C291.366 12.6533 291.361 12.8187 291.35 12.968C291.339 13.1173 291.323 13.2507 291.302 13.368H284.838V12.232H290.742L290.086 12.36C290.086 11.592 289.873 11 289.446 10.584C289.03 10.168 288.481 9.96 287.798 9.96C287.275 9.96 286.822 10.0827 286.438 10.328C286.065 10.5627 285.771 10.9093 285.558 11.368C285.355 11.816 285.254 12.36 285.254 13C285.254 13.6293 285.361 14.1733 285.574 14.632C285.787 15.0907 286.086 15.4427 286.47 15.688C286.865 15.9227 287.334 16.04 287.878 16.04C288.465 16.04 288.939 15.928 289.302 15.704C289.675 15.48 289.974 15.176 290.198 14.792L291.206 15.384C291.003 15.7467 290.742 16.0613 290.422 16.328C290.113 16.5947 289.745 16.8027 289.318 16.952C288.902 17.0907 288.433 17.16 287.91 17.16ZM293.801 17V9H294.921L295.033 10.792L294.825 10.616C294.995 10.1893 295.225 9.848 295.513 9.592C295.801 9.32533 296.131 9.13333 296.505 9.016C296.889 8.89867 297.283 8.84 297.689 8.84C298.265 8.84 298.787 8.952 299.257 9.176C299.726 9.38933 300.099 9.72 300.377 10.168C300.665 10.616 300.809 11.1867 300.809 11.88V17H299.529V12.328C299.529 11.4427 299.337 10.8293 298.953 10.488C298.579 10.136 298.115 9.96 297.561 9.96C297.177 9.96 296.793 10.0507 296.409 10.232C296.025 10.4133 295.705 10.7067 295.449 11.112C295.203 11.5173 295.081 12.0613 295.081 12.744V17H293.801ZM305.485 6.728V14.792C305.485 15.1867 305.597 15.48 305.821 15.672C306.045 15.864 306.333 15.96 306.685 15.96C306.995 15.96 307.261 15.9067 307.485 15.8C307.709 15.6933 307.912 15.5493 308.093 15.368L308.541 16.44C308.296 16.664 308.003 16.84 307.661 16.968C307.331 17.096 306.947 17.16 306.509 17.16C306.104 17.16 305.725 17.0907 305.373 16.952C305.021 16.8027 304.739 16.5733 304.525 16.264C304.323 15.944 304.216 15.528 304.205 15.016V7.08L305.485 6.728ZM308.397 9V10.104H302.605V9H308.397ZM313.613 8.84C314.37 8.84 315.037 9.00533 315.613 9.336C316.199 9.66667 316.658 10.1467 316.989 10.776C317.319 11.3947 317.485 12.136 317.485 13C317.485 13.864 317.319 14.6107 316.989 15.24C316.658 15.8587 316.199 16.3333 315.613 16.664C315.037 16.9947 314.37 17.16 313.613 17.16C312.866 17.16 312.199 16.9947 311.613 16.664C311.026 16.3333 310.567 15.8587 310.237 15.24C309.906 14.6107 309.741 13.864 309.741 13C309.741 12.136 309.906 11.3947 310.237 10.776C310.567 10.1467 311.026 9.66667 311.613 9.336C312.199 9.00533 312.866 8.84 313.613 8.84ZM313.613 9.944C313.069 9.944 312.605 10.0667 312.221 10.312C311.837 10.5573 311.538 10.9093 311.325 11.368C311.122 11.816 311.021 12.36 311.021 13C311.021 13.6293 311.122 14.1733 311.325 14.632C311.538 15.0907 311.837 15.4427 312.221 15.688C312.605 15.9333 313.069 16.056 313.613 16.056C314.157 16.056 314.621 15.9333 315.005 15.688C315.389 15.4427 315.682 15.0907 315.885 14.632C316.098 14.1733 316.205 13.6293 316.205 13C316.205 12.36 316.098 11.816 315.885 11.368C315.682 10.9093 315.389 10.5573 315.005 10.312C314.621 10.0667 314.157 9.944 313.613 9.944ZM322.774 17.16C321.996 17.16 321.276 16.9947 320.614 16.664C319.964 16.3333 319.462 15.864 319.11 15.256L320.198 14.472C320.433 14.9627 320.774 15.3467 321.222 15.624C321.681 15.9013 322.23 16.04 322.87 16.04C323.436 16.04 323.878 15.9333 324.198 15.72C324.518 15.496 324.678 15.208 324.678 14.856C324.678 14.632 324.604 14.4293 324.454 14.248C324.316 14.056 324.044 13.9173 323.638 13.832L321.718 13.432C320.94 13.272 320.38 13.0053 320.038 12.632C319.708 12.2587 319.542 11.7947 319.542 11.24C319.542 10.8027 319.665 10.4027 319.91 10.04C320.166 9.67733 320.524 9.38933 320.982 9.176C321.452 8.952 322.001 8.84 322.63 8.84C323.42 8.84 324.086 8.99467 324.63 9.304C325.174 9.61333 325.58 10.0507 325.846 10.616L324.774 11.32C324.593 10.8507 324.3 10.5093 323.894 10.296C323.489 10.072 323.068 9.96 322.63 9.96C322.246 9.96 321.916 10.0133 321.638 10.12C321.372 10.2267 321.164 10.376 321.014 10.568C320.876 10.7493 320.806 10.9573 320.806 11.192C320.806 11.4267 320.886 11.6453 321.046 11.848C321.206 12.04 321.505 12.1787 321.942 12.264L323.942 12.68C324.689 12.8293 325.212 13.0747 325.51 13.416C325.809 13.7573 325.958 14.1733 325.958 14.664C325.958 15.1653 325.825 15.608 325.558 15.992C325.292 16.3653 324.918 16.6533 324.438 16.856C323.958 17.0587 323.404 17.16 322.774 17.16ZM339.955 9L336.195 18.344C335.992 18.8667 335.768 19.2773 335.523 19.576C335.288 19.8853 335.021 20.104 334.723 20.232C334.435 20.3707 334.099 20.44 333.715 20.44C333.352 20.44 333.016 20.3867 332.707 20.28C332.408 20.184 332.141 20.0507 331.907 19.88L332.259 18.76C332.472 18.952 332.696 19.0907 332.931 19.176C333.176 19.272 333.416 19.32 333.651 19.32C333.928 19.32 334.189 19.2347 334.435 19.064C334.68 18.8933 334.904 18.5467 335.107 18.024L335.523 16.984L334.723 15.08L332.179 9H333.635L335.635 14.216L336.131 15.64L336.707 14.056L338.579 9H339.955ZM354.691 17H353.331L352.211 14.072H347.427L346.307 17H344.963L349.075 6.44H350.595L354.691 17ZM347.891 12.872H351.747L349.811 7.672L347.891 12.872ZM356.597 17V9H357.717L357.829 10.792L357.621 10.616C357.792 10.1893 358.021 9.848 358.309 9.592C358.597 9.32533 358.928 9.13333 359.301 9.016C359.685 8.89867 360.08 8.84 360.485 8.84C361.061 8.84 361.584 8.952 362.053 9.176C362.523 9.38933 362.896 9.72 363.173 10.168C363.461 10.616 363.605 11.1867 363.605 11.88V17H362.325V12.328C362.325 11.4427 362.133 10.8293 361.749 10.488C361.376 10.136 360.912 9.96 360.357 9.96C359.973 9.96 359.589 10.0507 359.205 10.232C358.821 10.4133 358.501 10.7067 358.245 11.112C358 11.5173 357.877 12.0613 357.877 12.744V17H356.597ZM369.848 17.16C369.09 17.16 368.413 16.9947 367.816 16.664C367.229 16.3333 366.77 15.8587 366.44 15.24C366.109 14.6107 365.944 13.864 365.944 13C365.944 12.136 366.109 11.3947 366.44 10.776C366.77 10.1467 367.224 9.66667 367.8 9.336C368.376 9.00533 369.032 8.84 369.768 8.84C370.514 8.84 371.149 9 371.672 9.32C372.205 9.64 372.61 10.0773 372.888 10.632C373.165 11.176 373.304 11.7893 373.304 12.472C373.304 12.6533 373.298 12.8187 373.288 12.968C373.277 13.1173 373.261 13.2507 373.24 13.368H366.776V12.232H372.68L372.024 12.36C372.024 11.592 371.81 11 371.384 10.584C370.968 10.168 370.418 9.96 369.736 9.96C369.213 9.96 368.76 10.0827 368.376 10.328C368.002 10.5627 367.709 10.9093 367.496 11.368C367.293 11.816 367.192 12.36 367.192 13C367.192 13.6293 367.298 14.1733 367.512 14.632C367.725 15.0907 368.024 15.4427 368.408 15.688C368.802 15.9227 369.272 16.04 369.816 16.04C370.402 16.04 370.877 15.928 371.24 15.704C371.613 15.48 371.912 15.176 372.136 14.792L373.144 15.384C372.941 15.7467 372.68 16.0613 372.36 16.328C372.05 16.5947 371.682 16.8027 371.256 16.952C370.84 17.0907 370.37 17.16 369.848 17.16ZM376.209 9L378.593 12.344L378.673 12.456L381.953 17H380.385L377.905 13.528L377.761 13.352L374.609 9H376.209ZM381.905 9L378.737 13.272H378.657L375.905 17H374.417L377.905 12.408H378.001L380.401 9H381.905ZM386.972 8.84C387.729 8.84 388.396 9.00533 388.972 9.336C389.559 9.66667 390.017 10.1467 390.348 10.776C390.679 11.3947 390.844 12.136 390.844 13C390.844 13.864 390.679 14.6107 390.348 15.24C390.017 15.8587 389.559 16.3333 388.972 16.664C388.396 16.9947 387.729 17.16 386.972 17.16C386.225 17.16 385.559 16.9947 384.972 16.664C384.385 16.3333 383.927 15.8587 383.596 15.24C383.265 14.6107 383.1 13.864 383.1 13C383.1 12.136 383.265 11.3947 383.596 10.776C383.927 10.1467 384.385 9.66667 384.972 9.336C385.559 9.00533 386.225 8.84 386.972 8.84ZM386.972 9.944C386.428 9.944 385.964 10.0667 385.58 10.312C385.196 10.5573 384.897 10.9093 384.684 11.368C384.481 11.816 384.38 12.36 384.38 13C384.38 13.6293 384.481 14.1733 384.684 14.632C384.897 15.0907 385.196 15.4427 385.58 15.688C385.964 15.9333 386.428 16.056 386.972 16.056C387.516 16.056 387.98 15.9333 388.364 15.688C388.748 15.4427 389.041 15.0907 389.244 14.632C389.457 14.1733 389.564 13.6293 389.564 13C389.564 12.36 389.457 11.816 389.244 11.368C389.041 10.9093 388.748 10.5573 388.364 10.312C387.98 10.0667 387.516 9.944 386.972 9.944ZM396.134 17.16C395.355 17.16 394.635 16.9947 393.974 16.664C393.323 16.3333 392.822 15.864 392.47 15.256L393.558 14.472C393.792 14.9627 394.134 15.3467 394.582 15.624C395.04 15.9013 395.59 16.04 396.23 16.04C396.795 16.04 397.238 15.9333 397.558 15.72C397.878 15.496 398.038 15.208 398.038 14.856C398.038 14.632 397.963 14.4293 397.814 14.248C397.675 14.056 397.403 13.9173 396.998 13.832L395.078 13.432C394.299 13.272 393.739 13.0053 393.398 12.632C393.067 12.2587 392.902 11.7947 392.902 11.24C392.902 10.8027 393.024 10.4027 393.27 10.04C393.526 9.67733 393.883 9.38933 394.342 9.176C394.811 8.952 395.36 8.84 395.99 8.84C396.779 8.84 397.446 8.99467 397.99 9.304C398.534 9.61333 398.939 10.0507 399.206 10.616L398.134 11.32C397.952 10.8507 397.659 10.5093 397.254 10.296C396.848 10.072 396.427 9.96 395.99 9.96C395.606 9.96 395.275 10.0133 394.998 10.12C394.731 10.2267 394.523 10.376 394.374 10.568C394.235 10.7493 394.166 10.9573 394.166 11.192C394.166 11.4267 394.246 11.6453 394.406 11.848C394.566 12.04 394.864 12.1787 395.302 12.264L397.302 12.68C398.048 12.8293 398.571 13.0747 398.87 13.416C399.168 13.7573 399.318 14.1733 399.318 14.664C399.318 15.1653 399.184 15.608 398.918 15.992C398.651 16.3653 398.278 16.6533 397.798 16.856C397.318 17.0587 396.763 17.16 396.134 17.16Z" fill="black"/>
<path d="M430.6 12L426 7.4L427.4 6L433.4 12L427.4 18L426 16.6L430.6 12Z" fill="#1D1B20"/>
<mask id="path-5-outside-2_2310_627" maskUnits="userSpaceOnUse" x="0" y="56" width="442" height="41" fill="black">
<rect fill="white" y="56" width="442" height="41"/>
<path d="M0 56H442V96H0V56Z"/>
</mask>
<path d="M442 95H0V97H442V95Z" fill="#D5D7DB" mask="url(#path-5-outside-2_2310_627)"/>
<path d="M9.12 63.64H3.008V67.048H7.776V68.248H3.008V73H1.728V62.44H9.12V63.64ZM11.8936 63.464C11.6056 63.464 11.371 63.3787 11.1896 63.208C11.019 63.0267 10.9336 62.792 10.9336 62.504C10.9336 62.216 11.019 61.9867 11.1896 61.816C11.371 61.6347 11.6056 61.544 11.8936 61.544C12.1816 61.544 12.411 61.6347 12.5816 61.816C12.763 61.9867 12.8536 62.216 12.8536 62.504C12.8536 62.792 12.763 63.0267 12.5816 63.208C12.411 63.3787 12.1816 63.464 11.8936 63.464ZM12.5336 65V73H11.2536V65H12.5336ZM18.8156 64.84C19.3703 64.84 19.8556 64.9253 20.2716 65.096C20.6983 65.2667 21.0663 65.512 21.3756 65.832C21.685 66.152 21.9356 66.5307 22.1276 66.968L20.9116 67.544C20.741 67.032 20.4796 66.6427 20.1276 66.376C19.7863 66.0987 19.3383 65.96 18.7836 65.96C18.2503 65.96 17.7916 66.0827 17.4076 66.328C17.0236 66.5627 16.7303 66.9093 16.5276 67.368C16.325 67.816 16.2236 68.36 16.2236 69C16.2236 69.6293 16.325 70.1733 16.5276 70.632C16.7303 71.0907 17.0236 71.4427 17.4076 71.688C17.7916 71.9227 18.2503 72.04 18.7836 72.04C19.1996 72.04 19.557 71.976 19.8556 71.848C20.165 71.72 20.4156 71.5333 20.6076 71.288C20.8103 71.0427 20.949 70.744 21.0236 70.392L22.2076 70.808C22.0263 71.2987 21.7756 71.72 21.4556 72.072C21.1463 72.424 20.7676 72.696 20.3196 72.888C19.8823 73.0693 19.381 73.16 18.8156 73.16C18.069 73.16 17.4023 72.9947 16.8156 72.664C16.229 72.3333 15.7703 71.8587 15.4396 71.24C15.109 70.6107 14.9436 69.864 14.9436 69C14.9436 68.136 15.109 67.3947 15.4396 66.776C15.7703 66.1467 16.229 65.6667 16.8156 65.336C17.4023 65.0053 18.069 64.84 18.8156 64.84ZM24.4568 73V61.32H25.7368V66.2C26.0141 65.72 26.3821 65.3733 26.8408 65.16C27.2994 64.9467 27.8008 64.84 28.3448 64.84C28.9208 64.84 29.4434 64.952 29.9128 65.176C30.3821 65.3893 30.7554 65.72 31.0328 66.168C31.3208 66.616 31.4648 67.1867 31.4648 67.88V73H30.1848V68.328C30.1848 67.4427 29.9928 66.8293 29.6088 66.488C29.2354 66.136 28.7714 65.96 28.2168 65.96C27.8328 65.96 27.4488 66.0507 27.0648 66.232C26.6808 66.4133 26.3608 66.712 26.1048 67.128C25.8594 67.5333 25.7368 68.0773 25.7368 68.76V73H24.4568ZM39.035 67.832C39.035 67.2347 38.875 66.776 38.555 66.456C38.235 66.1253 37.7817 65.96 37.195 65.96C36.6403 65.96 36.171 66.0827 35.787 66.328C35.403 66.5627 35.1203 66.9467 34.939 67.48L33.899 66.84C34.1123 66.2427 34.507 65.7627 35.083 65.4C35.659 65.0267 36.3737 64.84 37.227 64.84C37.803 64.84 38.3257 64.9413 38.795 65.144C39.2643 65.336 39.6323 65.6347 39.899 66.04C40.1763 66.4347 40.315 66.9467 40.315 67.576V71.448C40.315 71.832 40.5177 72.024 40.923 72.024C41.1257 72.024 41.323 71.9973 41.515 71.944L41.451 72.952C41.2377 73.0587 40.9603 73.112 40.619 73.112C40.3097 73.112 40.0323 73.0533 39.787 72.936C39.5417 72.8187 39.3497 72.6427 39.211 72.408C39.0723 72.1627 39.003 71.8587 39.003 71.496V71.336L39.323 71.384C39.195 71.8 38.9763 72.1413 38.667 72.408C38.3577 72.664 38.011 72.856 37.627 72.984C37.243 73.1013 36.8643 73.16 36.491 73.16C36.0217 73.16 35.5843 73.08 35.179 72.92C34.7737 72.76 34.4483 72.52 34.203 72.2C33.9683 71.8693 33.851 71.464 33.851 70.984C33.851 70.3867 34.0483 69.896 34.443 69.512C34.8483 69.1173 35.4083 68.8507 36.123 68.712L39.291 68.088V69.144L36.715 69.672C36.1923 69.7787 35.803 69.928 35.547 70.12C35.291 70.312 35.163 70.5787 35.163 70.92C35.163 71.2507 35.291 71.5227 35.547 71.736C35.8137 71.9387 36.187 72.04 36.667 72.04C36.9763 72.04 37.2697 72.0027 37.547 71.928C37.835 71.8427 38.091 71.72 38.315 71.56C38.539 71.3893 38.715 71.1813 38.843 70.936C38.971 70.68 39.035 70.3813 39.035 70.04V67.832ZM46.3055 73.16C45.5268 73.16 44.8068 72.9947 44.1455 72.664C43.4948 72.3333 42.9935 71.864 42.6415 71.256L43.7295 70.472C43.9642 70.9627 44.3055 71.3467 44.7535 71.624C45.2122 71.9013 45.7615 72.04 46.4015 72.04C46.9668 72.04 47.4095 71.9333 47.7295 71.72C48.0495 71.496 48.2095 71.208 48.2095 70.856C48.2095 70.632 48.1348 70.4293 47.9855 70.248C47.8468 70.056 47.5748 69.9173 47.1695 69.832L45.2495 69.432C44.4708 69.272 43.9108 69.0053 43.5695 68.632C43.2388 68.2587 43.0735 67.7947 43.0735 67.24C43.0735 66.8027 43.1962 66.4027 43.4415 66.04C43.6975 65.6773 44.0548 65.3893 44.5135 65.176C44.9828 64.952 45.5322 64.84 46.1615 64.84C46.9508 64.84 47.6175 64.9947 48.1615 65.304C48.7055 65.6133 49.1108 66.0507 49.3775 66.616L48.3055 67.32C48.1242 66.8507 47.8308 66.5093 47.4255 66.296C47.0202 66.072 46.5988 65.96 46.1615 65.96C45.7775 65.96 45.4468 66.0133 45.1695 66.12C44.9028 66.2267 44.6948 66.376 44.5455 66.568C44.4068 66.7493 44.3375 66.9573 44.3375 67.192C44.3375 67.4267 44.4175 67.6453 44.5775 67.848C44.7375 68.04 45.0362 68.1787 45.4735 68.264L47.4735 68.68C48.2202 68.8293 48.7428 69.0747 49.0415 69.416C49.3402 69.7573 49.4895 70.1733 49.4895 70.664C49.4895 71.1653 49.3562 71.608 49.0895 71.992C48.8228 72.3653 48.4495 72.6533 47.9695 72.856C47.4895 73.0587 46.9348 73.16 46.3055 73.16ZM60.9481 62.28C61.8761 62.28 62.6761 62.472 63.3481 62.856C64.0201 63.2293 64.5801 63.784 65.0281 64.52L63.9561 65.352C63.5615 64.6693 63.1135 64.1893 62.6121 63.912C62.1215 63.624 61.5241 63.48 60.8201 63.48C60.2548 63.48 59.7855 63.56 59.4121 63.72C59.0495 63.88 58.7828 64.0933 58.6121 64.36C58.4415 64.616 58.3561 64.9093 58.3561 65.24C58.3561 65.6133 58.4735 65.944 58.7081 66.232C58.9428 66.5093 59.4121 66.728 60.1161 66.888L62.4041 67.4C63.4175 67.624 64.1215 67.9653 64.5161 68.424C64.9215 68.872 65.1241 69.432 65.1241 70.104C65.1241 70.7013 64.9535 71.2347 64.6121 71.704C64.2815 72.1627 63.8121 72.52 63.2041 72.776C62.5961 73.032 61.8815 73.16 61.0601 73.16C60.2921 73.16 59.6148 73.0587 59.0281 72.856C58.4521 72.6427 57.9561 72.36 57.5401 72.008C57.1241 71.656 56.7828 71.2613 56.5161 70.824L57.6361 69.912C57.8388 70.3173 58.1001 70.6747 58.4201 70.984C58.7401 71.2933 59.1241 71.5333 59.5721 71.704C60.0308 71.8747 60.5535 71.96 61.1401 71.96C61.6841 71.96 62.1535 71.896 62.5481 71.768C62.9535 71.6293 63.2628 71.432 63.4761 71.176C63.6895 70.9093 63.7961 70.5893 63.7961 70.216C63.7961 69.8747 63.6841 69.5707 63.4601 69.304C63.2361 69.0267 62.8148 68.8187 62.1961 68.68L59.7161 68.12C59.0655 67.9707 58.5375 67.768 58.1321 67.512C57.7375 67.2453 57.4495 66.936 57.2681 66.584C57.0975 66.2213 57.0121 65.832 57.0121 65.416C57.0121 64.8507 57.1668 64.3333 57.4761 63.864C57.7961 63.384 58.2495 63 58.8361 62.712C59.4335 62.424 60.1375 62.28 60.9481 62.28ZM72.0621 73.16C71.0595 73.16 70.1901 72.9413 69.4541 72.504C68.7288 72.056 68.1635 71.4267 67.7581 70.616C67.3635 69.8053 67.1661 68.84 67.1661 67.72C67.1661 66.6 67.3741 65.6347 67.7901 64.824C68.2168 64.0133 68.8088 63.3893 69.5661 62.952C70.3235 62.504 71.1928 62.28 72.1741 62.28C73.2195 62.28 74.0675 62.4773 74.7181 62.872C75.3795 63.2667 75.9128 63.8747 76.3181 64.696L75.1501 65.336C74.9155 64.728 74.5421 64.2693 74.0301 63.96C73.5288 63.64 72.9101 63.48 72.1741 63.48C71.4595 63.48 70.8248 63.6507 70.2701 63.992C69.7261 64.3227 69.2941 64.808 68.9741 65.448C68.6648 66.0773 68.5101 66.8347 68.5101 67.72C68.5101 68.6053 68.6435 69.368 68.9101 70.008C69.1875 70.6373 69.5928 71.1227 70.1261 71.464C70.6701 71.7947 71.3315 71.96 72.1101 71.96C72.5475 71.96 72.9528 71.9067 73.3261 71.8C73.7101 71.6827 74.0408 71.512 74.3181 71.288C74.6061 71.064 74.8301 70.7813 74.9901 70.44C75.1501 70.0987 75.2301 69.6987 75.2301 69.24V68.872H71.8701V67.672H76.3981V73H75.3901L75.3261 71.032L75.5981 71.08C75.3208 71.7413 74.8835 72.2533 74.2861 72.616C73.6888 72.9787 72.9475 73.16 72.0621 73.16ZM83.1123 62.44C83.8269 62.44 84.4456 62.5733 84.9683 62.84C85.5016 63.096 85.9176 63.464 86.2163 63.944C86.5149 64.424 86.6643 64.9947 86.6643 65.656C86.6643 66.3173 86.5149 66.888 86.2163 67.368C85.9176 67.848 85.5016 68.2213 84.9683 68.488C84.4456 68.744 83.8269 68.872 83.1123 68.872H80.6643V73H79.3843V62.44H83.1123ZM82.9203 67.672C83.7523 67.672 84.3603 67.5013 84.7443 67.16C85.1283 66.808 85.3203 66.3067 85.3203 65.656C85.3203 64.9947 85.1283 64.4933 84.7443 64.152C84.3603 63.8107 83.7523 63.64 82.9203 63.64H80.6643V67.672H82.9203ZM101.812 68.216V69.416H93.812V68.216H101.812ZM114.034 62.44C114.749 62.44 115.367 62.5733 115.89 62.84C116.423 63.096 116.839 63.464 117.138 63.944C117.437 64.424 117.586 64.9947 117.586 65.656C117.586 66.3173 117.437 66.888 117.138 67.368C116.839 67.848 116.423 68.2213 115.89 68.488C115.367 68.744 114.749 68.872 114.034 68.872H111.586V73H110.306V62.44H114.034ZM113.842 67.672C114.674 67.672 115.282 67.5013 115.666 67.16C116.05 66.808 116.242 66.3067 116.242 65.656C116.242 64.9947 116.05 64.4933 115.666 64.152C115.282 63.8107 114.674 63.64 113.842 63.64H111.586V67.672H113.842ZM119.832 73V65H120.872L121.048 66.312C121.272 65.8213 121.597 65.4533 122.024 65.208C122.461 64.9627 122.989 64.84 123.608 64.84C123.746 64.84 123.896 64.8507 124.056 64.872C124.226 64.8933 124.37 64.936 124.488 65L124.264 66.168C124.146 66.1253 124.018 66.0933 123.88 66.072C123.741 66.0507 123.544 66.04 123.288 66.04C122.957 66.04 122.621 66.136 122.28 66.328C121.949 66.52 121.672 66.8133 121.448 67.208C121.224 67.592 121.112 68.0827 121.112 68.68V73H119.832ZM129.457 73.16C128.7 73.16 128.022 72.9947 127.425 72.664C126.838 72.3333 126.38 71.8587 126.049 71.24C125.718 70.6107 125.553 69.864 125.553 69C125.553 68.136 125.718 67.3947 126.049 66.776C126.38 66.1467 126.833 65.6667 127.409 65.336C127.985 65.0053 128.641 64.84 129.377 64.84C130.124 64.84 130.758 65 131.281 65.32C131.814 65.64 132.22 66.0773 132.497 66.632C132.774 67.176 132.913 67.7893 132.913 68.472C132.913 68.6533 132.908 68.8187 132.897 68.968C132.886 69.1173 132.87 69.2507 132.849 69.368H126.385V68.232H132.289L131.633 68.36C131.633 67.592 131.42 67 130.993 66.584C130.577 66.168 130.028 65.96 129.345 65.96C128.822 65.96 128.369 66.0827 127.985 66.328C127.612 66.5627 127.318 66.9093 127.105 67.368C126.902 67.816 126.801 68.36 126.801 69C126.801 69.6293 126.908 70.1733 127.121 70.632C127.334 71.0907 127.633 71.4427 128.017 71.688C128.412 71.9227 128.881 72.04 129.425 72.04C130.012 72.04 130.486 71.928 130.849 71.704C131.222 71.48 131.521 71.176 131.745 70.792L132.753 71.384C132.55 71.7467 132.289 72.0613 131.969 72.328C131.66 72.5947 131.292 72.8027 130.865 72.952C130.449 73.0907 129.98 73.16 129.457 73.16ZM138.227 73.16C137.449 73.16 136.729 72.9947 136.067 72.664C135.417 72.3333 134.915 71.864 134.563 71.256L135.651 70.472C135.886 70.9627 136.227 71.3467 136.675 71.624C137.134 71.9013 137.683 72.04 138.323 72.04C138.889 72.04 139.331 71.9333 139.651 71.72C139.971 71.496 140.131 71.208 140.131 70.856C140.131 70.632 140.057 70.4293 139.907 70.248C139.769 70.056 139.497 69.9173 139.091 69.832L137.171 69.432C136.393 69.272 135.833 69.0053 135.491 68.632C135.161 68.2587 134.995 67.7947 134.995 67.24C134.995 66.8027 135.118 66.4027 135.363 66.04C135.619 65.6773 135.977 65.3893 136.435 65.176C136.905 64.952 137.454 64.84 138.083 64.84C138.873 64.84 139.539 64.9947 140.083 65.304C140.627 65.6133 141.033 66.0507 141.299 66.616L140.227 67.32C140.046 66.8507 139.753 66.5093 139.347 66.296C138.942 66.072 138.521 65.96 138.083 65.96C137.699 65.96 137.369 66.0133 137.091 66.12C136.825 66.2267 136.617 66.376 136.467 66.568C136.329 66.7493 136.259 66.9573 136.259 67.192C136.259 67.4267 136.339 67.6453 136.499 67.848C136.659 68.04 136.958 68.1787 137.395 68.264L139.395 68.68C140.142 68.8293 140.665 69.0747 140.963 69.416C141.262 69.7573 141.411 70.1733 141.411 70.664C141.411 71.1653 141.278 71.608 141.011 71.992C140.745 72.3653 140.371 72.6533 139.891 72.856C139.411 73.0587 138.857 73.16 138.227 73.16ZM146.681 73.16C146.169 73.16 145.684 73.064 145.225 72.872C144.777 72.68 144.409 72.3707 144.121 71.944C143.844 71.5067 143.705 70.9413 143.705 70.248V65H144.985V69.912C144.985 70.7227 145.161 71.2827 145.513 71.592C145.865 71.8907 146.361 72.04 147.001 72.04C147.3 72.04 147.593 71.992 147.881 71.896C148.169 71.7893 148.425 71.6293 148.649 71.416C148.884 71.192 149.065 70.9093 149.193 70.568C149.332 70.2267 149.401 69.8213 149.401 69.352V65H150.681V73H149.561L149.481 71.784C149.204 72.264 148.825 72.616 148.345 72.84C147.876 73.0533 147.321 73.16 146.681 73.16ZM153.66 76.36V65H154.78L154.892 66.952L154.716 66.728C154.855 66.3547 155.063 66.0293 155.34 65.752C155.617 65.464 155.953 65.24 156.348 65.08C156.743 64.92 157.169 64.84 157.628 64.84C158.279 64.84 158.876 65.0053 159.42 65.336C159.975 65.6667 160.417 66.1413 160.748 66.76C161.079 67.3787 161.244 68.1253 161.244 69C161.244 69.864 161.073 70.6107 160.732 71.24C160.401 71.8587 159.959 72.3333 159.404 72.664C158.849 72.9947 158.241 73.16 157.58 73.16C156.919 73.16 156.337 73 155.836 72.68C155.345 72.3493 154.993 71.9333 154.78 71.432L154.94 71.192V76.36H153.66ZM157.452 72.04C158.241 72.04 158.855 71.7627 159.292 71.208C159.74 70.6533 159.964 69.9173 159.964 69C159.964 68.0827 159.745 67.3467 159.308 66.792C158.881 66.2373 158.279 65.96 157.5 65.96C156.988 65.96 156.54 66.088 156.156 66.344C155.772 66.5893 155.473 66.9413 155.26 67.4C155.047 67.848 154.94 68.3813 154.94 69C154.94 69.608 155.041 70.1413 155.244 70.6C155.457 71.0587 155.751 71.416 156.124 71.672C156.508 71.9173 156.951 72.04 157.452 72.04ZM166.587 73.16C166.075 73.16 165.59 73.064 165.131 72.872C164.683 72.68 164.315 72.3707 164.027 71.944C163.75 71.5067 163.611 70.9413 163.611 70.248V65H164.891V69.912C164.891 70.7227 165.067 71.2827 165.419 71.592C165.771 71.8907 166.267 72.04 166.907 72.04C167.206 72.04 167.499 71.992 167.787 71.896C168.075 71.7893 168.331 71.6293 168.555 71.416C168.79 71.192 168.971 70.9093 169.099 70.568C169.238 70.2267 169.307 69.8213 169.307 69.352V65H170.587V73H169.467L169.387 71.784C169.11 72.264 168.731 72.616 168.251 72.84C167.782 73.0533 167.227 73.16 166.587 73.16ZM176.91 73.16C176.153 73.16 175.475 72.9947 174.878 72.664C174.291 72.3333 173.833 71.8587 173.502 71.24C173.171 70.6107 173.006 69.864 173.006 69C173.006 68.136 173.171 67.3947 173.502 66.776C173.833 66.1467 174.286 65.6667 174.862 65.336C175.438 65.0053 176.094 64.84 176.83 64.84C177.577 64.84 178.211 65 178.734 65.32C179.267 65.64 179.673 66.0773 179.95 66.632C180.227 67.176 180.366 67.7893 180.366 68.472C180.366 68.6533 180.361 68.8187 180.35 68.968C180.339 69.1173 180.323 69.2507 180.302 69.368H173.838V68.232H179.742L179.086 68.36C179.086 67.592 178.873 67 178.446 66.584C178.03 66.168 177.481 65.96 176.798 65.96C176.275 65.96 175.822 66.0827 175.438 66.328C175.065 66.5627 174.771 66.9093 174.558 67.368C174.355 67.816 174.254 68.36 174.254 69C174.254 69.6293 174.361 70.1733 174.574 70.632C174.787 71.0907 175.086 71.4427 175.47 71.688C175.865 71.9227 176.334 72.04 176.878 72.04C177.465 72.04 177.939 71.928 178.302 71.704C178.675 71.48 178.974 71.176 179.198 70.792L180.206 71.384C180.003 71.7467 179.742 72.0613 179.422 72.328C179.113 72.5947 178.745 72.8027 178.318 72.952C177.902 73.0907 177.433 73.16 176.91 73.16ZM185.681 73.16C184.902 73.16 184.182 72.9947 183.521 72.664C182.87 72.3333 182.369 71.864 182.017 71.256L183.105 70.472C183.339 70.9627 183.681 71.3467 184.129 71.624C184.587 71.9013 185.137 72.04 185.777 72.04C186.342 72.04 186.785 71.9333 187.105 71.72C187.425 71.496 187.585 71.208 187.585 70.856C187.585 70.632 187.51 70.4293 187.361 70.248C187.222 70.056 186.95 69.9173 186.545 69.832L184.625 69.432C183.846 69.272 183.286 69.0053 182.945 68.632C182.614 68.2587 182.449 67.7947 182.449 67.24C182.449 66.8027 182.571 66.4027 182.817 66.04C183.073 65.6773 183.43 65.3893 183.889 65.176C184.358 64.952 184.907 64.84 185.536 64.84C186.326 64.84 186.993 64.9947 187.537 65.304C188.081 65.6133 188.486 66.0507 188.753 66.616L187.681 67.32C187.499 66.8507 187.206 66.5093 186.801 66.296C186.395 66.072 185.974 65.96 185.536 65.96C185.153 65.96 184.822 66.0133 184.545 66.12C184.278 66.2267 184.07 66.376 183.921 66.568C183.782 66.7493 183.713 66.9573 183.713 67.192C183.713 67.4267 183.793 67.6453 183.953 67.848C184.113 68.04 184.411 68.1787 184.849 68.264L186.849 68.68C187.595 68.8293 188.118 69.0747 188.417 69.416C188.715 69.7573 188.865 70.1733 188.865 70.664C188.865 71.1653 188.731 71.608 188.465 71.992C188.198 72.3653 187.825 72.6533 187.345 72.856C186.865 73.0587 186.31 73.16 185.681 73.16ZM193.126 62.728V70.792C193.126 71.1867 193.238 71.48 193.462 71.672C193.686 71.864 193.974 71.96 194.326 71.96C194.635 71.96 194.902 71.9067 195.126 71.8C195.35 71.6933 195.553 71.5493 195.734 71.368L196.182 72.44C195.937 72.664 195.643 72.84 195.302 72.968C194.971 73.096 194.587 73.16 194.15 73.16C193.745 73.16 193.366 73.0907 193.014 72.952C192.662 72.8027 192.379 72.5733 192.166 72.264C191.963 71.944 191.857 71.528 191.846 71.016V63.08L193.126 62.728ZM196.038 65V66.104H190.246V65H196.038ZM202.613 67.832C202.613 67.2347 202.453 66.776 202.133 66.456C201.813 66.1253 201.36 65.96 200.773 65.96C200.218 65.96 199.749 66.0827 199.365 66.328C198.981 66.5627 198.698 66.9467 198.517 67.48L197.477 66.84C197.69 66.2427 198.085 65.7627 198.661 65.4C199.237 65.0267 199.952 64.84 200.805 64.84C201.381 64.84 201.904 64.9413 202.373 65.144C202.842 65.336 203.21 65.6347 203.477 66.04C203.754 66.4347 203.893 66.9467 203.893 67.576V71.448C203.893 71.832 204.096 72.024 204.501 72.024C204.704 72.024 204.901 71.9973 205.093 71.944L205.029 72.952C204.816 73.0587 204.538 73.112 204.197 73.112C203.888 73.112 203.61 73.0533 203.365 72.936C203.12 72.8187 202.928 72.6427 202.789 72.408C202.65 72.1627 202.581 71.8587 202.581 71.496V71.336L202.901 71.384C202.773 71.8 202.554 72.1413 202.245 72.408C201.936 72.664 201.589 72.856 201.205 72.984C200.821 73.1013 200.442 73.16 200.069 73.16C199.6 73.16 199.162 73.08 198.757 72.92C198.352 72.76 198.026 72.52 197.781 72.2C197.546 71.8693 197.429 71.464 197.429 70.984C197.429 70.3867 197.626 69.896 198.021 69.512C198.426 69.1173 198.986 68.8507 199.701 68.712L202.869 68.088V69.144L200.293 69.672C199.77 69.7787 199.381 69.928 199.125 70.12C198.869 70.312 198.741 70.5787 198.741 70.92C198.741 71.2507 198.869 71.5227 199.125 71.736C199.392 71.9387 199.765 72.04 200.245 72.04C200.554 72.04 200.848 72.0027 201.125 71.928C201.413 71.8427 201.669 71.72 201.893 71.56C202.117 71.3893 202.293 71.1813 202.421 70.936C202.549 70.68 202.613 70.3813 202.613 70.04V67.832ZM208.22 61.32V70.968C208.22 71.3733 208.294 71.656 208.444 71.816C208.593 71.9653 208.833 72.04 209.164 72.04C209.377 72.04 209.553 72.024 209.692 71.992C209.83 71.96 210.017 71.9013 210.252 71.816L210.044 72.936C209.873 73.0107 209.686 73.064 209.484 73.096C209.281 73.1387 209.073 73.16 208.86 73.16C208.209 73.16 207.724 72.984 207.404 72.632C207.094 72.28 206.94 71.7413 206.94 71.016V61.32H208.22Z" fill="black"/>
<path d="M430.6 68L426 63.4L427.4 62L433.4 68L427.4 74L426 72.6L430.6 68Z" fill="#1D1B20"/>
<mask id="path-9-outside-3_2310_627" maskUnits="userSpaceOnUse" x="0" y="112" width="442" height="57" fill="black">
<rect fill="white" y="112" width="442" height="57"/>
<path d="M0 112H442V168H0V112Z"/>
</mask>
<path d="M442 167H0V169H442V167Z" fill="#D5D7DB" mask="url(#path-9-outside-3_2310_627)"/>
<path d="M9.12 117.64H3.008V121.048H7.776V122.248H3.008V127H1.728V116.44H9.12V117.64ZM11.8936 117.464C11.6056 117.464 11.371 117.379 11.1896 117.208C11.019 117.027 10.9336 116.792 10.9336 116.504C10.9336 116.216 11.019 115.987 11.1896 115.816C11.371 115.635 11.6056 115.544 11.8936 115.544C12.1816 115.544 12.411 115.635 12.5816 115.816C12.763 115.987 12.8536 116.216 12.8536 116.504C12.8536 116.792 12.763 117.027 12.5816 117.208C12.411 117.379 12.1816 117.464 11.8936 117.464ZM12.5336 119V127H11.2536V119H12.5336ZM18.8156 118.84C19.3703 118.84 19.8556 118.925 20.2716 119.096C20.6983 119.267 21.0663 119.512 21.3756 119.832C21.685 120.152 21.9356 120.531 22.1276 120.968L20.9116 121.544C20.741 121.032 20.4796 120.643 20.1276 120.376C19.7863 120.099 19.3383 119.96 18.7836 119.96C18.2503 119.96 17.7916 120.083 17.4076 120.328C17.0236 120.563 16.7303 120.909 16.5276 121.368C16.325 121.816 16.2236 122.36 16.2236 123C16.2236 123.629 16.325 124.173 16.5276 124.632C16.7303 125.091 17.0236 125.443 17.4076 125.688C17.7916 125.923 18.2503 126.04 18.7836 126.04C19.1996 126.04 19.557 125.976 19.8556 125.848C20.165 125.72 20.4156 125.533 20.6076 125.288C20.8103 125.043 20.949 124.744 21.0236 124.392L22.2076 124.808C22.0263 125.299 21.7756 125.72 21.4556 126.072C21.1463 126.424 20.7676 126.696 20.3196 126.888C19.8823 127.069 19.381 127.16 18.8156 127.16C18.069 127.16 17.4023 126.995 16.8156 126.664C16.229 126.333 15.7703 125.859 15.4396 125.24C15.109 124.611 14.9436 123.864 14.9436 123C14.9436 122.136 15.109 121.395 15.4396 120.776C15.7703 120.147 16.229 119.667 16.8156 119.336C17.4023 119.005 18.069 118.84 18.8156 118.84ZM24.4568 127V115.32H25.7368V120.2C26.0141 119.72 26.3821 119.373 26.8408 119.16C27.2994 118.947 27.8008 118.84 28.3448 118.84C28.9208 118.84 29.4434 118.952 29.9128 119.176C30.3821 119.389 30.7554 119.72 31.0328 120.168C31.3208 120.616 31.4648 121.187 31.4648 121.88V127H30.1848V122.328C30.1848 121.443 29.9928 120.829 29.6088 120.488C29.2354 120.136 28.7714 119.96 28.2168 119.96C27.8328 119.96 27.4488 120.051 27.0648 120.232C26.6808 120.413 26.3608 120.712 26.1048 121.128C25.8594 121.533 25.7368 122.077 25.7368 122.76V127H24.4568ZM39.035 121.832C39.035 121.235 38.875 120.776 38.555 120.456C38.235 120.125 37.7817 119.96 37.195 119.96C36.6403 119.96 36.171 120.083 35.787 120.328C35.403 120.563 35.1203 120.947 34.939 121.48L33.899 120.84C34.1123 120.243 34.507 119.763 35.083 119.4C35.659 119.027 36.3737 118.84 37.227 118.84C37.803 118.84 38.3257 118.941 38.795 119.144C39.2643 119.336 39.6323 119.635 39.899 120.04C40.1763 120.435 40.315 120.947 40.315 121.576V125.448C40.315 125.832 40.5177 126.024 40.923 126.024C41.1257 126.024 41.323 125.997 41.515 125.944L41.451 126.952C41.2377 127.059 40.9603 127.112 40.619 127.112C40.3097 127.112 40.0323 127.053 39.787 126.936C39.5417 126.819 39.3497 126.643 39.211 126.408C39.0723 126.163 39.003 125.859 39.003 125.496V125.336L39.323 125.384C39.195 125.8 38.9763 126.141 38.667 126.408C38.3577 126.664 38.011 126.856 37.627 126.984C37.243 127.101 36.8643 127.16 36.491 127.16C36.0217 127.16 35.5843 127.08 35.179 126.92C34.7737 126.76 34.4483 126.52 34.203 126.2C33.9683 125.869 33.851 125.464 33.851 124.984C33.851 124.387 34.0483 123.896 34.443 123.512C34.8483 123.117 35.4083 122.851 36.123 122.712L39.291 122.088V123.144L36.715 123.672C36.1923 123.779 35.803 123.928 35.547 124.12C35.291 124.312 35.163 124.579 35.163 124.92C35.163 125.251 35.291 125.523 35.547 125.736C35.8137 125.939 36.187 126.04 36.667 126.04C36.9763 126.04 37.2697 126.003 37.547 125.928C37.835 125.843 38.091 125.72 38.315 125.56C38.539 125.389 38.715 125.181 38.843 124.936C38.971 124.68 39.035 124.381 39.035 124.04V121.832ZM51.8156 118.84C52.3703 118.84 52.8556 118.925 53.2716 119.096C53.6983 119.267 54.0663 119.512 54.3756 119.832C54.685 120.152 54.9356 120.531 55.1276 120.968L53.9116 121.544C53.741 121.032 53.4796 120.643 53.1276 120.376C52.7863 120.099 52.3383 119.96 51.7836 119.96C51.2503 119.96 50.7916 120.083 50.4076 120.328C50.0236 120.563 49.7303 120.909 49.5276 121.368C49.325 121.816 49.2236 122.36 49.2236 123C49.2236 123.629 49.325 124.173 49.5276 124.632C49.7303 125.091 50.0236 125.443 50.4076 125.688C50.7916 125.923 51.2503 126.04 51.7836 126.04C52.1996 126.04 52.557 125.976 52.8556 125.848C53.165 125.72 53.4156 125.533 53.6076 125.288C53.8103 125.043 53.949 124.744 54.0236 124.392L55.2076 124.808C55.0263 125.299 54.7756 125.72 54.4556 126.072C54.1463 126.424 53.7676 126.696 53.3196 126.888C52.8823 127.069 52.381 127.16 51.8156 127.16C51.069 127.16 50.4023 126.995 49.8156 126.664C49.229 126.333 48.7703 125.859 48.4396 125.24C48.109 124.611 47.9436 123.864 47.9436 123C47.9436 122.136 48.109 121.395 48.4396 120.776C48.7703 120.147 49.229 119.667 49.8156 119.336C50.4023 119.005 51.069 118.84 51.8156 118.84ZM60.7688 118.84C61.5261 118.84 62.1928 119.005 62.7688 119.336C63.3554 119.667 63.8141 120.147 64.1448 120.776C64.4754 121.395 64.6408 122.136 64.6408 123C64.6408 123.864 64.4754 124.611 64.1448 125.24C63.8141 125.859 63.3554 126.333 62.7688 126.664C62.1928 126.995 61.5261 127.16 60.7688 127.16C60.0221 127.16 59.3554 126.995 58.7688 126.664C58.1821 126.333 57.7234 125.859 57.3928 125.24C57.0621 124.611 56.8968 123.864 56.8968 123C56.8968 122.136 57.0621 121.395 57.3928 120.776C57.7234 120.147 58.1821 119.667 58.7688 119.336C59.3554 119.005 60.0221 118.84 60.7688 118.84ZM60.7688 119.944C60.2248 119.944 59.7608 120.067 59.3768 120.312C58.9928 120.557 58.6941 120.909 58.4808 121.368C58.2781 121.816 58.1768 122.36 58.1768 123C58.1768 123.629 58.2781 124.173 58.4808 124.632C58.6941 125.091 58.9928 125.443 59.3768 125.688C59.7608 125.933 60.2248 126.056 60.7688 126.056C61.3128 126.056 61.7768 125.933 62.1608 125.688C62.5448 125.443 62.8381 125.091 63.0408 124.632C63.2541 124.173 63.3608 123.629 63.3608 123C63.3608 122.36 63.2541 121.816 63.0408 121.368C62.8381 120.909 62.5448 120.557 62.1608 120.312C61.7768 120.067 61.3128 119.944 60.7688 119.944ZM67.0505 127V119H68.1705L68.2505 120.248C68.5385 119.757 68.9118 119.4 69.3705 119.176C69.8398 118.952 70.3198 118.84 70.8105 118.84C71.3758 118.84 71.9092 118.968 72.4105 119.224C72.9118 119.48 73.2958 119.875 73.5625 120.408C73.7332 120.045 73.9732 119.752 74.2825 119.528C74.5918 119.293 74.9278 119.123 75.2905 119.016C75.6638 118.899 76.0158 118.84 76.3465 118.84C76.8585 118.84 77.3438 118.947 77.8025 119.16C78.2718 119.373 78.6558 119.704 78.9545 120.152C79.2532 120.6 79.4025 121.176 79.4025 121.88V127H78.1225V122.008C78.1225 121.283 77.9412 120.76 77.5785 120.44C77.2158 120.12 76.7678 119.96 76.2345 119.96C75.8185 119.96 75.4292 120.061 75.0665 120.264C74.7038 120.467 74.4105 120.765 74.1865 121.16C73.9732 121.555 73.8665 122.04 73.8665 122.616V127H72.5865V122.008C72.5865 121.283 72.4052 120.76 72.0425 120.44C71.6798 120.12 71.2318 119.96 70.6985 119.96C70.3465 119.96 69.9838 120.056 69.6105 120.248C69.2478 120.429 68.9438 120.723 68.6985 121.128C68.4532 121.533 68.3305 122.067 68.3305 122.728V127H67.0505ZM82.3005 130.36V119H83.4205L83.5325 120.952L83.3565 120.728C83.4952 120.355 83.7032 120.029 83.9805 119.752C84.2578 119.464 84.5938 119.24 84.9885 119.08C85.3832 118.92 85.8098 118.84 86.2685 118.84C86.9192 118.84 87.5165 119.005 88.0605 119.336C88.6152 119.667 89.0578 120.141 89.3885 120.76C89.7192 121.379 89.8845 122.125 89.8845 123C89.8845 123.864 89.7138 124.611 89.3725 125.24C89.0418 125.859 88.5992 126.333 88.0445 126.664C87.4898 126.995 86.8818 127.16 86.2205 127.16C85.5592 127.16 84.9778 127 84.4765 126.68C83.9858 126.349 83.6338 125.933 83.4205 125.432L83.5805 125.192V130.36H82.3005ZM86.0925 126.04C86.8818 126.04 87.4952 125.763 87.9325 125.208C88.3805 124.653 88.6045 123.917 88.6045 123C88.6045 122.083 88.3858 121.347 87.9485 120.792C87.5218 120.237 86.9192 119.96 86.1405 119.96C85.6285 119.96 85.1805 120.088 84.7965 120.344C84.4125 120.589 84.1138 120.941 83.9005 121.4C83.6872 121.848 83.5805 122.381 83.5805 123C83.5805 123.608 83.6818 124.141 83.8845 124.6C84.0978 125.059 84.3912 125.416 84.7645 125.672C85.1485 125.917 85.5912 126.04 86.0925 126.04ZM97.0038 121.832C97.0038 121.235 96.8438 120.776 96.5238 120.456C96.2038 120.125 95.7504 119.96 95.1638 119.96C94.6091 119.96 94.1398 120.083 93.7558 120.328C93.3718 120.563 93.0891 120.947 92.9078 121.48L91.8678 120.84C92.0811 120.243 92.4758 119.763 93.0518 119.4C93.6278 119.027 94.3424 118.84 95.1958 118.84C95.7718 118.84 96.2944 118.941 96.7638 119.144C97.2331 119.336 97.6011 119.635 97.8678 120.04C98.1451 120.435 98.2838 120.947 98.2838 121.576V125.448C98.2838 125.832 98.4864 126.024 98.8918 126.024C99.0944 126.024 99.2918 125.997 99.4838 125.944L99.4198 126.952C99.2064 127.059 98.9291 127.112 98.5878 127.112C98.2784 127.112 98.0011 127.053 97.7558 126.936C97.5104 126.819 97.3184 126.643 97.1798 126.408C97.0411 126.163 96.9718 125.859 96.9718 125.496V125.336L97.2918 125.384C97.1638 125.8 96.9451 126.141 96.6358 126.408C96.3264 126.664 95.9798 126.856 95.5958 126.984C95.2118 127.101 94.8331 127.16 94.4598 127.16C93.9904 127.16 93.5531 127.08 93.1478 126.92C92.7424 126.76 92.4171 126.52 92.1718 126.2C91.9371 125.869 91.8198 125.464 91.8198 124.984C91.8198 124.387 92.0171 123.896 92.4118 123.512C92.8171 123.117 93.3771 122.851 94.0918 122.712L97.2598 122.088V123.144L94.6838 123.672C94.1611 123.779 93.7718 123.928 93.5158 124.12C93.2598 124.312 93.1318 124.579 93.1318 124.92C93.1318 125.251 93.2598 125.523 93.5158 125.736C93.7824 125.939 94.1558 126.04 94.6358 126.04C94.9451 126.04 95.2384 126.003 95.5158 125.928C95.8038 125.843 96.0598 125.72 96.2838 125.56C96.5078 125.389 96.6838 125.181 96.8118 124.936C96.9398 124.68 97.0038 124.381 97.0038 124.04V121.832ZM101.394 127V119H102.434L102.61 120.312C102.834 119.821 103.16 119.453 103.586 119.208C104.024 118.963 104.552 118.84 105.17 118.84C105.309 118.84 105.458 118.851 105.618 118.872C105.789 118.893 105.933 118.936 106.05 119L105.826 120.168C105.709 120.125 105.581 120.093 105.442 120.072C105.304 120.051 105.106 120.04 104.85 120.04C104.52 120.04 104.184 120.136 103.842 120.328C103.512 120.52 103.234 120.813 103.01 121.208C102.786 121.592 102.674 122.083 102.674 122.68V127H101.394ZM112.379 121.832C112.379 121.235 112.219 120.776 111.899 120.456C111.579 120.125 111.125 119.96 110.539 119.96C109.984 119.96 109.515 120.083 109.131 120.328C108.747 120.563 108.464 120.947 108.283 121.48L107.243 120.84C107.456 120.243 107.851 119.763 108.427 119.4C109.003 119.027 109.717 118.84 110.571 118.84C111.147 118.84 111.669 118.941 112.139 119.144C112.608 119.336 112.976 119.635 113.243 120.04C113.52 120.435 113.659 120.947 113.659 121.576V125.448C113.659 125.832 113.861 126.024 114.267 126.024C114.469 126.024 114.667 125.997 114.859 125.944L114.795 126.952C114.581 127.059 114.304 127.112 113.963 127.112C113.653 127.112 113.376 127.053 113.131 126.936C112.885 126.819 112.693 126.643 112.555 126.408C112.416 126.163 112.347 125.859 112.347 125.496V125.336L112.667 125.384C112.539 125.8 112.32 126.141 112.011 126.408C111.701 126.664 111.355 126.856 110.971 126.984C110.587 127.101 110.208 127.16 109.835 127.16C109.365 127.16 108.928 127.08 108.523 126.92C108.117 126.76 107.792 126.52 107.547 126.2C107.312 125.869 107.195 125.464 107.195 124.984C107.195 124.387 107.392 123.896 107.787 123.512C108.192 123.117 108.752 122.851 109.467 122.712L112.635 122.088V123.144L110.059 123.672C109.536 123.779 109.147 123.928 108.891 124.12C108.635 124.312 108.507 124.579 108.507 124.92C108.507 125.251 108.635 125.523 108.891 125.736C109.157 125.939 109.531 126.04 110.011 126.04C110.32 126.04 110.613 126.003 110.891 125.928C111.179 125.843 111.435 125.72 111.659 125.56C111.883 125.389 112.059 125.181 112.187 124.936C112.315 124.68 112.379 124.381 112.379 124.04V121.832ZM118.345 116.728V124.792C118.345 125.187 118.457 125.48 118.681 125.672C118.905 125.864 119.193 125.96 119.545 125.96C119.854 125.96 120.121 125.907 120.345 125.8C120.569 125.693 120.771 125.549 120.953 125.368L121.401 126.44C121.155 126.664 120.862 126.84 120.521 126.968C120.19 127.096 119.806 127.16 119.369 127.16C118.963 127.16 118.585 127.091 118.233 126.952C117.881 126.803 117.598 126.573 117.385 126.264C117.182 125.944 117.075 125.528 117.065 125.016V117.08L118.345 116.728ZM121.257 119V120.104H115.465V119H121.257ZM123.8 117.464C123.512 117.464 123.277 117.379 123.096 117.208C122.925 117.027 122.84 116.792 122.84 116.504C122.84 116.216 122.925 115.987 123.096 115.816C123.277 115.635 123.512 115.544 123.8 115.544C124.088 115.544 124.317 115.635 124.488 115.816C124.669 115.987 124.76 116.216 124.76 116.504C124.76 116.792 124.669 117.027 124.488 117.208C124.317 117.379 124.088 117.464 123.8 117.464ZM124.44 119V127H123.16V119H124.44ZM132.706 119H134.05L130.722 127H129.442L126.114 119H127.57L130.098 125.704L132.706 119ZM140.191 121.832C140.191 121.235 140.031 120.776 139.711 120.456C139.391 120.125 138.938 119.96 138.351 119.96C137.797 119.96 137.327 120.083 136.943 120.328C136.559 120.563 136.277 120.947 136.095 121.48L135.055 120.84C135.269 120.243 135.663 119.763 136.239 119.4C136.815 119.027 137.53 118.84 138.383 118.84C138.959 118.84 139.482 118.941 139.951 119.144C140.421 119.336 140.789 119.635 141.055 120.04C141.333 120.435 141.471 120.947 141.471 121.576V125.448C141.471 125.832 141.674 126.024 142.079 126.024C142.282 126.024 142.479 125.997 142.671 125.944L142.607 126.952C142.394 127.059 142.117 127.112 141.775 127.112C141.466 127.112 141.189 127.053 140.943 126.936C140.698 126.819 140.506 126.643 140.367 126.408C140.229 126.163 140.159 125.859 140.159 125.496V125.336L140.479 125.384C140.351 125.8 140.133 126.141 139.823 126.408C139.514 126.664 139.167 126.856 138.783 126.984C138.399 127.101 138.021 127.16 137.647 127.16C137.178 127.16 136.741 127.08 136.335 126.92C135.93 126.76 135.605 126.52 135.359 126.2C135.125 125.869 135.007 125.464 135.007 124.984C135.007 124.387 135.205 123.896 135.599 123.512C136.005 123.117 136.565 122.851 137.279 122.712L140.447 122.088V123.144L137.871 123.672C137.349 123.779 136.959 123.928 136.703 124.12C136.447 124.312 136.319 124.579 136.319 124.92C136.319 125.251 136.447 125.523 136.703 125.736C136.97 125.939 137.343 126.04 137.823 126.04C138.133 126.04 138.426 126.003 138.703 125.928C138.991 125.843 139.247 125.72 139.471 125.56C139.695 125.389 139.871 125.181 139.999 124.936C140.127 124.68 140.191 124.381 140.191 124.04V121.832ZM152.78 127.16C152.119 127.16 151.511 126.995 150.956 126.664C150.401 126.333 149.959 125.859 149.628 125.24C149.297 124.611 149.132 123.864 149.132 123C149.132 122.115 149.308 121.363 149.66 120.744C150.012 120.125 150.476 119.656 151.052 119.336C151.628 119.005 152.247 118.84 152.908 118.84C153.569 118.84 154.14 119.011 154.62 119.352C155.111 119.693 155.436 120.147 155.596 120.712L155.436 120.824V115.32H156.716V127H155.596L155.484 125.064L155.66 124.968C155.585 125.437 155.404 125.837 155.116 126.168C154.839 126.488 154.492 126.733 154.076 126.904C153.671 127.075 153.239 127.16 152.78 127.16ZM152.908 126.04C153.42 126.04 153.863 125.912 154.236 125.656C154.62 125.4 154.913 125.037 155.116 124.568C155.329 124.088 155.436 123.528 155.436 122.888C155.436 122.28 155.329 121.757 155.116 121.32C154.913 120.883 154.625 120.547 154.252 120.312C153.889 120.077 153.463 119.96 152.972 119.96C152.161 119.96 151.532 120.237 151.084 120.792C150.636 121.347 150.412 122.083 150.412 123C150.412 123.917 150.631 124.653 151.068 125.208C151.505 125.763 152.119 126.04 152.908 126.04ZM163.035 127.16C162.278 127.16 161.6 126.995 161.003 126.664C160.416 126.333 159.958 125.859 159.627 125.24C159.296 124.611 159.131 123.864 159.131 123C159.131 122.136 159.296 121.395 159.627 120.776C159.958 120.147 160.411 119.667 160.987 119.336C161.563 119.005 162.219 118.84 162.955 118.84C163.702 118.84 164.336 119 164.859 119.32C165.392 119.64 165.798 120.077 166.075 120.632C166.352 121.176 166.491 121.789 166.491 122.472C166.491 122.653 166.486 122.819 166.475 122.968C166.464 123.117 166.448 123.251 166.427 123.368H159.963V122.232H165.867L165.211 122.36C165.211 121.592 164.998 121 164.571 120.584C164.155 120.168 163.606 119.96 162.923 119.96C162.4 119.96 161.947 120.083 161.563 120.328C161.19 120.563 160.896 120.909 160.683 121.368C160.48 121.816 160.379 122.36 160.379 123C160.379 123.629 160.486 124.173 160.699 124.632C160.912 125.091 161.211 125.443 161.595 125.688C161.99 125.923 162.459 126.04 163.003 126.04C163.59 126.04 164.064 125.928 164.427 125.704C164.8 125.48 165.099 125.176 165.323 124.792L166.331 125.384C166.128 125.747 165.867 126.061 165.547 126.328C165.238 126.595 164.87 126.803 164.443 126.952C164.027 127.091 163.558 127.16 163.035 127.16ZM177.499 127.16C176.837 127.16 176.229 126.995 175.675 126.664C175.12 126.333 174.677 125.859 174.347 125.24C174.016 124.611 173.851 123.864 173.851 123C173.851 122.115 174.027 121.363 174.379 120.744C174.731 120.125 175.195 119.656 175.771 119.336C176.347 119.005 176.965 118.84 177.627 118.84C178.288 118.84 178.859 119.011 179.339 119.352C179.829 119.693 180.155 120.147 180.315 120.712L180.155 120.824V115.32H181.435V127H180.315L180.203 125.064L180.379 124.968C180.304 125.437 180.123 125.837 179.835 126.168C179.557 126.488 179.211 126.733 178.795 126.904C178.389 127.075 177.957 127.16 177.499 127.16ZM177.627 126.04C178.139 126.04 178.581 125.912 178.955 125.656C179.339 125.4 179.632 125.037 179.835 124.568C180.048 124.088 180.155 123.528 180.155 122.888C180.155 122.28 180.048 121.757 179.835 121.32C179.632 120.883 179.344 120.547 178.971 120.312C178.608 120.077 178.181 119.96 177.691 119.96C176.88 119.96 176.251 120.237 175.803 120.792C175.355 121.347 175.131 122.083 175.131 123C175.131 123.917 175.349 124.653 175.787 125.208C176.224 125.763 176.837 126.04 177.627 126.04ZM185.05 117.464C184.762 117.464 184.527 117.379 184.346 117.208C184.175 117.027 184.09 116.792 184.09 116.504C184.09 116.216 184.175 115.987 184.346 115.816C184.527 115.635 184.762 115.544 185.05 115.544C185.338 115.544 185.567 115.635 185.738 115.816C185.919 115.987 186.01 116.216 186.01 116.504C186.01 116.792 185.919 117.027 185.738 117.208C185.567 117.379 185.338 117.464 185.05 117.464ZM185.69 119V127H184.41V119H185.69ZM191.54 127.16C190.761 127.16 190.041 126.995 189.38 126.664C188.729 126.333 188.228 125.864 187.876 125.256L188.964 124.472C189.199 124.963 189.54 125.347 189.988 125.624C190.447 125.901 190.996 126.04 191.636 126.04C192.201 126.04 192.644 125.933 192.964 125.72C193.284 125.496 193.444 125.208 193.444 124.856C193.444 124.632 193.369 124.429 193.22 124.248C193.081 124.056 192.809 123.917 192.404 123.832L190.484 123.432C189.705 123.272 189.145 123.005 188.804 122.632C188.473 122.259 188.308 121.795 188.308 121.24C188.308 120.803 188.431 120.403 188.676 120.04C188.932 119.677 189.289 119.389 189.748 119.176C190.217 118.952 190.767 118.84 191.396 118.84C192.185 118.84 192.852 118.995 193.396 119.304C193.94 119.613 194.345 120.051 194.612 120.616L193.54 121.32C193.359 120.851 193.065 120.509 192.66 120.296C192.255 120.072 191.833 119.96 191.396 119.96C191.012 119.96 190.681 120.013 190.404 120.12C190.137 120.227 189.929 120.376 189.78 120.568C189.641 120.749 189.572 120.957 189.572 121.192C189.572 121.427 189.652 121.645 189.812 121.848C189.972 122.04 190.271 122.179 190.708 122.264L192.708 122.68C193.455 122.829 193.977 123.075 194.276 123.416C194.575 123.757 194.724 124.173 194.724 124.664C194.724 125.165 194.591 125.608 194.324 125.992C194.057 126.365 193.684 126.653 193.204 126.856C192.724 127.059 192.169 127.16 191.54 127.16ZM198.985 116.728V124.792C198.985 125.187 199.097 125.48 199.321 125.672C199.545 125.864 199.833 125.96 200.185 125.96C200.495 125.96 200.761 125.907 200.985 125.8C201.209 125.693 201.412 125.549 201.593 125.368L202.041 126.44C201.796 126.664 201.503 126.84 201.161 126.968C200.831 127.096 200.447 127.16 200.009 127.16C199.604 127.16 199.225 127.091 198.873 126.952C198.521 126.803 198.239 126.573 198.025 126.264C197.823 125.944 197.716 125.528 197.705 125.016V117.08L198.985 116.728ZM201.897 119V120.104H196.105V119H201.897ZM203.801 127V119H204.841L205.017 120.312C205.241 119.821 205.566 119.453 205.993 119.208C206.43 118.963 206.958 118.84 207.577 118.84C207.715 118.84 207.865 118.851 208.025 118.872C208.195 118.893 208.339 118.936 208.457 119L208.233 120.168C208.115 120.125 207.987 120.093 207.849 120.072C207.71 120.051 207.513 120.04 207.257 120.04C206.926 120.04 206.59 120.136 206.249 120.328C205.918 120.52 205.641 120.813 205.417 121.208C205.193 121.592 205.081 122.083 205.081 122.68V127H203.801ZM210.972 117.464C210.684 117.464 210.449 117.379 210.268 117.208C210.097 117.027 210.012 116.792 210.012 116.504C210.012 116.216 210.097 115.987 210.268 115.816C210.449 115.635 210.684 115.544 210.972 115.544C211.26 115.544 211.489 115.635 211.66 115.816C211.841 115.987 211.932 116.216 211.932 116.504C211.932 116.792 211.841 117.027 211.66 117.208C211.489 117.379 211.26 117.464 210.972 117.464ZM211.612 119V127H210.332V119H211.612ZM218.502 127.16C218.054 127.16 217.638 127.08 217.254 126.92C216.87 126.76 216.539 126.536 216.262 126.248C215.984 125.96 215.776 125.635 215.638 125.272L215.814 125.048L215.702 127H214.582V115.32H215.862V120.808L215.702 120.568C215.915 120.067 216.272 119.656 216.774 119.336C217.286 119.005 217.867 118.84 218.518 118.84C219.179 118.84 219.787 119.005 220.342 119.336C220.896 119.667 221.339 120.141 221.67 120.76C222 121.379 222.166 122.125 222.166 123C222.166 123.864 221.995 124.611 221.654 125.24C221.323 125.859 220.88 126.333 220.326 126.664C219.771 126.995 219.163 127.16 218.502 127.16ZM218.374 126.04C219.163 126.04 219.776 125.763 220.214 125.208C220.662 124.653 220.886 123.917 220.886 123C220.886 122.083 220.667 121.347 220.23 120.792C219.792 120.237 219.179 119.96 218.39 119.96C217.888 119.96 217.446 120.088 217.062 120.344C216.688 120.6 216.395 120.957 216.182 121.416C215.968 121.875 215.862 122.413 215.862 123.032C215.862 123.64 215.963 124.173 216.166 124.632C216.379 125.08 216.672 125.427 217.046 125.672C217.43 125.917 217.872 126.04 218.374 126.04ZM227.509 127.16C226.997 127.16 226.512 127.064 226.053 126.872C225.605 126.68 225.237 126.371 224.949 125.944C224.672 125.507 224.533 124.941 224.533 124.248V119H225.813V123.912C225.813 124.723 225.989 125.283 226.341 125.592C226.693 125.891 227.189 126.04 227.829 126.04C228.128 126.04 228.421 125.992 228.709 125.896C228.997 125.789 229.253 125.629 229.477 125.416C229.712 125.192 229.893 124.909 230.021 124.568C230.16 124.227 230.229 123.821 230.229 123.352V119H231.509V127H230.389L230.309 125.784C230.032 126.264 229.653 126.616 229.173 126.84C228.704 127.053 228.149 127.16 227.509 127.16ZM237.8 118.84C238.355 118.84 238.84 118.925 239.256 119.096C239.683 119.267 240.051 119.512 240.36 119.832C240.669 120.152 240.92 120.531 241.112 120.968L239.896 121.544C239.725 121.032 239.464 120.643 239.112 120.376C238.771 120.099 238.323 119.96 237.768 119.96C237.235 119.96 236.776 120.083 236.392 120.328C236.008 120.563 235.715 120.909 235.512 121.368C235.309 121.816 235.208 122.36 235.208 123C235.208 123.629 235.309 124.173 235.512 124.632C235.715 125.091 236.008 125.443 236.392 125.688C236.776 125.923 237.235 126.04 237.768 126.04C238.184 126.04 238.541 125.976 238.84 125.848C239.149 125.72 239.4 125.533 239.592 125.288C239.795 125.043 239.933 124.744 240.008 124.392L241.192 124.808C241.011 125.299 240.76 125.72 240.44 126.072C240.131 126.424 239.752 126.696 239.304 126.888C238.867 127.069 238.365 127.16 237.8 127.16C237.053 127.16 236.387 126.995 235.8 126.664C235.213 126.333 234.755 125.859 234.424 125.24C234.093 124.611 233.928 123.864 233.928 123C233.928 122.136 234.093 121.395 234.424 120.776C234.755 120.147 235.213 119.667 235.8 119.336C236.387 119.005 237.053 118.84 237.8 118.84ZM244.081 117.464C243.793 117.464 243.558 117.379 243.377 117.208C243.206 117.027 243.121 116.792 243.121 116.504C243.121 116.216 243.206 115.987 243.377 115.816C243.558 115.635 243.793 115.544 244.081 115.544C244.369 115.544 244.598 115.635 244.769 115.816C244.95 115.987 245.041 116.216 245.041 116.504C245.041 116.792 244.95 117.027 244.769 117.208C244.598 117.379 244.369 117.464 244.081 117.464ZM244.721 119V127H243.441V119H244.721ZM251.003 118.84C251.76 118.84 252.427 119.005 253.003 119.336C253.59 119.667 254.048 120.147 254.379 120.776C254.71 121.395 254.875 122.136 254.875 123C254.875 123.864 254.71 124.611 254.379 125.24C254.048 125.859 253.59 126.333 253.003 126.664C252.427 126.995 251.76 127.16 251.003 127.16C250.256 127.16 249.59 126.995 249.003 126.664C248.416 126.333 247.958 125.859 247.627 125.24C247.296 124.611 247.131 123.864 247.131 123C247.131 122.136 247.296 121.395 247.627 120.776C247.958 120.147 248.416 119.667 249.003 119.336C249.59 119.005 250.256 118.84 251.003 118.84ZM251.003 119.944C250.459 119.944 249.995 120.067 249.611 120.312C249.227 120.557 248.928 120.909 248.715 121.368C248.512 121.816 248.411 122.36 248.411 123C248.411 123.629 248.512 124.173 248.715 124.632C248.928 125.091 249.227 125.443 249.611 125.688C249.995 125.933 250.459 126.056 251.003 126.056C251.547 126.056 252.011 125.933 252.395 125.688C252.779 125.443 253.072 125.091 253.275 124.632C253.488 124.173 253.595 123.629 253.595 123C253.595 122.36 253.488 121.816 253.275 121.368C253.072 120.909 252.779 120.557 252.395 120.312C252.011 120.067 251.547 119.944 251.003 119.944ZM251.435 115H252.827L251.259 117.672H250.219L251.435 115ZM257.285 127V119H258.405L258.517 120.792L258.309 120.616C258.48 120.189 258.709 119.848 258.997 119.592C259.285 119.325 259.616 119.133 259.989 119.016C260.373 118.899 260.768 118.84 261.173 118.84C261.749 118.84 262.272 118.952 262.741 119.176C263.21 119.389 263.584 119.72 263.861 120.168C264.149 120.616 264.293 121.187 264.293 121.88V127H263.013V122.328C263.013 121.443 262.821 120.829 262.437 120.488C262.064 120.136 261.6 119.96 261.045 119.96C260.661 119.96 260.277 120.051 259.893 120.232C259.509 120.413 259.189 120.707 258.933 121.112C258.688 121.517 258.565 122.061 258.565 122.744V127H257.285ZM267.831 125.08C268.087 125.08 268.3 125.149 268.471 125.288C268.652 125.416 268.791 125.597 268.887 125.832C268.983 126.056 269.031 126.323 269.031 126.632C269.031 126.984 268.967 127.331 268.839 127.672C268.722 128.013 268.535 128.328 268.279 128.616C268.023 128.904 267.692 129.144 267.287 129.336L266.615 128.712C266.903 128.616 267.154 128.483 267.367 128.312C267.591 128.141 267.772 127.949 267.911 127.736C268.05 127.523 268.14 127.304 268.183 127.08L268.119 127.048C268.076 127.08 268.023 127.107 267.959 127.128C267.895 127.149 267.799 127.16 267.671 127.16C267.543 127.16 267.41 127.123 267.271 127.048C267.143 126.973 267.031 126.867 266.935 126.728C266.839 126.579 266.791 126.387 266.791 126.152C266.791 125.96 266.839 125.784 266.935 125.624C267.031 125.453 267.154 125.32 267.303 125.224C267.463 125.128 267.639 125.08 267.831 125.08ZM280.206 118.84C280.761 118.84 281.246 118.925 281.662 119.096C282.089 119.267 282.457 119.512 282.766 119.832C283.076 120.152 283.326 120.531 283.518 120.968L282.302 121.544C282.132 121.032 281.87 120.643 281.518 120.376C281.177 120.099 280.729 119.96 280.174 119.96C279.641 119.96 279.182 120.083 278.798 120.328C278.414 120.563 278.121 120.909 277.918 121.368C277.716 121.816 277.614 122.36 277.614 123C277.614 123.629 277.716 124.173 277.918 124.632C278.121 125.091 278.414 125.443 278.798 125.688C279.182 125.923 279.641 126.04 280.174 126.04C280.59 126.04 280.948 125.976 281.246 125.848C281.556 125.72 281.806 125.533 281.998 125.288C282.201 125.043 282.34 124.744 282.414 124.392L283.598 124.808C283.417 125.299 283.166 125.72 282.846 126.072C282.537 126.424 282.158 126.696 281.71 126.888C281.273 127.069 280.772 127.16 280.206 127.16C279.46 127.16 278.793 126.995 278.206 126.664C277.62 126.333 277.161 125.859 276.83 125.24C276.5 124.611 276.334 123.864 276.334 123C276.334 122.136 276.5 121.395 276.83 120.776C277.161 120.147 277.62 119.667 278.206 119.336C278.793 119.005 279.46 118.84 280.206 118.84ZM285.847 127V119H286.887L287.063 120.312C287.287 119.821 287.613 119.453 288.039 119.208C288.477 118.963 289.005 118.84 289.623 118.84C289.762 118.84 289.911 118.851 290.071 118.872C290.242 118.893 290.386 118.936 290.503 119L290.279 120.168C290.162 120.125 290.034 120.093 289.895 120.072C289.757 120.051 289.559 120.04 289.303 120.04C288.973 120.04 288.637 120.136 288.295 120.328C287.965 120.52 287.687 120.813 287.463 121.208C287.239 121.592 287.127 122.083 287.127 122.68V127H285.847ZM293.019 117.464C292.731 117.464 292.496 117.379 292.315 117.208C292.144 117.027 292.059 116.792 292.059 116.504C292.059 116.216 292.144 115.987 292.315 115.816C292.496 115.635 292.731 115.544 293.019 115.544C293.307 115.544 293.536 115.635 293.707 115.816C293.888 115.987 293.979 116.216 293.979 116.504C293.979 116.792 293.888 117.027 293.707 117.208C293.536 117.379 293.307 117.464 293.019 117.464ZM293.659 119V127H292.379V119H293.659ZM298.517 116.728V124.792C298.517 125.187 298.629 125.48 298.853 125.672C299.077 125.864 299.365 125.96 299.717 125.96C300.026 125.96 300.293 125.907 300.517 125.8C300.741 125.693 300.943 125.549 301.125 125.368L301.573 126.44C301.327 126.664 301.034 126.84 300.693 126.968C300.362 127.096 299.978 127.16 299.541 127.16C299.135 127.16 298.757 127.091 298.405 126.952C298.053 126.803 297.77 126.573 297.557 126.264C297.354 125.944 297.247 125.528 297.237 125.016V117.08L298.517 116.728ZM301.429 119V120.104H295.637V119H301.429ZM306.676 127.16C305.918 127.16 305.241 126.995 304.644 126.664C304.057 126.333 303.598 125.859 303.268 125.24C302.937 124.611 302.772 123.864 302.772 123C302.772 122.136 302.937 121.395 303.268 120.776C303.598 120.147 304.052 119.667 304.628 119.336C305.204 119.005 305.86 118.84 306.596 118.84C307.342 118.84 307.977 119 308.5 119.32C309.033 119.64 309.438 120.077 309.716 120.632C309.993 121.176 310.132 121.789 310.132 122.472C310.132 122.653 310.126 122.819 310.116 122.968C310.105 123.117 310.089 123.251 310.068 123.368H303.604V122.232H309.508L308.852 122.36C308.852 121.592 308.638 121 308.212 120.584C307.796 120.168 307.246 119.96 306.564 119.96C306.041 119.96 305.588 120.083 305.204 120.328C304.83 120.563 304.537 120.909 304.324 121.368C304.121 121.816 304.02 122.36 304.02 123C304.02 123.629 304.126 124.173 304.34 124.632C304.553 125.091 304.852 125.443 305.236 125.688C305.63 125.923 306.1 126.04 306.644 126.04C307.23 126.04 307.705 125.928 308.068 125.704C308.441 125.48 308.74 125.176 308.964 124.792L309.972 125.384C309.769 125.747 309.508 126.061 309.188 126.328C308.878 126.595 308.51 126.803 308.084 126.952C307.668 127.091 307.198 127.16 306.676 127.16ZM312.566 127V119H313.606L313.782 120.312C314.006 119.821 314.331 119.453 314.758 119.208C315.195 118.963 315.723 118.84 316.342 118.84C316.481 118.84 316.63 118.851 316.79 118.872C316.961 118.893 317.105 118.936 317.222 119L316.998 120.168C316.881 120.125 316.753 120.093 316.614 120.072C316.475 120.051 316.278 120.04 316.022 120.04C315.691 120.04 315.355 120.136 315.014 120.328C314.683 120.52 314.406 120.813 314.182 121.208C313.958 121.592 313.846 122.083 313.846 122.68V127H312.566ZM319.737 117.464C319.449 117.464 319.215 117.379 319.033 117.208C318.863 117.027 318.777 116.792 318.777 116.504C318.777 116.216 318.863 115.987 319.033 115.816C319.215 115.635 319.449 115.544 319.737 115.544C320.025 115.544 320.255 115.635 320.425 115.816C320.607 115.987 320.697 116.216 320.697 116.504C320.697 116.792 320.607 117.027 320.425 117.208C320.255 117.379 320.025 117.464 319.737 117.464ZM320.377 119V127H319.097V119H320.377ZM326.659 118.84C327.417 118.84 328.083 119.005 328.659 119.336C329.246 119.667 329.705 120.147 330.035 120.776C330.366 121.395 330.531 122.136 330.531 123C330.531 123.864 330.366 124.611 330.035 125.24C329.705 125.859 329.246 126.333 328.659 126.664C328.083 126.995 327.417 127.16 326.659 127.16C325.913 127.16 325.246 126.995 324.659 126.664C324.073 126.333 323.614 125.859 323.283 125.24C322.953 124.611 322.787 123.864 322.787 123C322.787 122.136 322.953 121.395 323.283 120.776C323.614 120.147 324.073 119.667 324.659 119.336C325.246 119.005 325.913 118.84 326.659 118.84ZM326.659 119.944C326.115 119.944 325.651 120.067 325.267 120.312C324.883 120.557 324.585 120.909 324.371 121.368C324.169 121.816 324.067 122.36 324.067 123C324.067 123.629 324.169 124.173 324.371 124.632C324.585 125.091 324.883 125.443 325.267 125.688C325.651 125.933 326.115 126.056 326.659 126.056C327.203 126.056 327.667 125.933 328.051 125.688C328.435 125.443 328.729 125.091 328.931 124.632C329.145 124.173 329.251 123.629 329.251 123C329.251 122.36 329.145 121.816 328.931 121.368C328.729 120.909 328.435 120.557 328.051 120.312C327.667 120.067 327.203 119.944 326.659 119.944ZM335.821 127.16C335.042 127.16 334.322 126.995 333.661 126.664C333.01 126.333 332.509 125.864 332.157 125.256L333.245 124.472C333.48 124.963 333.821 125.347 334.269 125.624C334.728 125.901 335.277 126.04 335.917 126.04C336.482 126.04 336.925 125.933 337.245 125.72C337.565 125.496 337.725 125.208 337.725 124.856C337.725 124.632 337.65 124.429 337.501 124.248C337.362 124.056 337.09 123.917 336.685 123.832L334.765 123.432C333.986 123.272 333.426 123.005 333.085 122.632C332.754 122.259 332.589 121.795 332.589 121.24C332.589 120.803 332.712 120.403 332.957 120.04C333.213 119.677 333.57 119.389 334.029 119.176C334.498 118.952 335.048 118.84 335.677 118.84C336.466 118.84 337.133 118.995 337.677 119.304C338.221 119.613 338.626 120.051 338.893 120.616L337.821 121.32C337.64 120.851 337.346 120.509 336.941 120.296C336.536 120.072 336.114 119.96 335.677 119.96C335.293 119.96 334.962 120.013 334.685 120.12C334.418 120.227 334.21 120.376 334.061 120.568C333.922 120.749 333.853 120.957 333.853 121.192C333.853 121.427 333.933 121.645 334.093 121.848C334.253 122.04 334.552 122.179 334.989 122.264L336.989 122.68C337.736 122.829 338.258 123.075 338.557 123.416C338.856 123.757 339.005 124.173 339.005 124.664C339.005 125.165 338.872 125.608 338.605 125.992C338.338 126.365 337.965 126.653 337.485 126.856C337.005 127.059 336.45 127.16 335.821 127.16ZM353.002 119L349.242 128.344C349.039 128.867 348.815 129.277 348.57 129.576C348.335 129.885 348.068 130.104 347.77 130.232C347.482 130.371 347.146 130.44 346.762 130.44C346.399 130.44 346.063 130.387 345.754 130.28C345.455 130.184 345.188 130.051 344.954 129.88L345.306 128.76C345.519 128.952 345.743 129.091 345.978 129.176C346.223 129.272 346.463 129.32 346.698 129.32C346.975 129.32 347.236 129.235 347.482 129.064C347.727 128.893 347.951 128.547 348.154 128.024L348.57 126.984L347.77 125.08L345.226 119H346.682L348.682 124.216L349.178 125.64L349.754 124.056L351.626 119H353.002ZM6.784 139H8.128L4.8 147H3.52L0.192 139H1.648L4.176 145.704L6.784 139ZM14.2694 141.832C14.2694 141.235 14.1094 140.776 13.7894 140.456C13.4694 140.125 13.016 139.96 12.4294 139.96C11.8747 139.96 11.4054 140.083 11.0214 140.328C10.6374 140.563 10.3547 140.947 10.1734 141.48L9.13338 140.84C9.34671 140.243 9.74138 139.763 10.3174 139.4C10.8934 139.027 11.608 138.84 12.4614 138.84C13.0374 138.84 13.56 138.941 14.0294 139.144C14.4987 139.336 14.8667 139.635 15.1334 140.04C15.4107 140.435 15.5494 140.947 15.5494 141.576V145.448C15.5494 145.832 15.752 146.024 16.1574 146.024C16.36 146.024 16.5574 145.997 16.7494 145.944L16.6854 146.952C16.472 147.059 16.1947 147.112 15.8534 147.112C15.544 147.112 15.2667 147.053 15.0214 146.936C14.776 146.819 14.584 146.643 14.4454 146.408C14.3067 146.163 14.2374 145.859 14.2374 145.496V145.336L14.5574 145.384C14.4294 145.8 14.2107 146.141 13.9014 146.408C13.592 146.664 13.2454 146.856 12.8614 146.984C12.4774 147.101 12.0987 147.16 11.7254 147.16C11.256 147.16 10.8187 147.08 10.4134 146.92C10.008 146.76 9.68271 146.52 9.43738 146.2C9.20271 145.869 9.08538 145.464 9.08538 144.984C9.08538 144.387 9.28271 143.896 9.67738 143.512C10.0827 143.117 10.6427 142.851 11.3574 142.712L14.5254 142.088V143.144L11.9494 143.672C11.4267 143.779 11.0374 143.928 10.7814 144.12C10.5254 144.312 10.3974 144.579 10.3974 144.92C10.3974 145.251 10.5254 145.523 10.7814 145.736C11.048 145.939 11.4214 146.04 11.9014 146.04C12.2107 146.04 12.504 146.003 12.7814 145.928C13.0694 145.843 13.3254 145.72 13.5494 145.56C13.7734 145.389 13.9494 145.181 14.0774 144.936C14.2054 144.68 14.2694 144.381 14.2694 144.04V141.832ZM18.6599 147V139H19.6999L19.8759 140.312C20.0999 139.821 20.4252 139.453 20.8519 139.208C21.2892 138.963 21.8172 138.84 22.4359 138.84C22.5745 138.84 22.7239 138.851 22.8839 138.872C23.0545 138.893 23.1985 138.936 23.3159 139L23.0919 140.168C22.9745 140.125 22.8465 140.093 22.7079 140.072C22.5692 140.051 22.3719 140.04 22.1159 140.04C21.7852 140.04 21.4492 140.136 21.1079 140.328C20.7772 140.52 20.4999 140.813 20.2759 141.208C20.0519 141.592 19.9399 142.083 19.9399 142.68V147H18.6599ZM25.8311 137.464C25.5431 137.464 25.3085 137.379 25.1271 137.208C24.9565 137.027 24.8711 136.792 24.8711 136.504C24.8711 136.216 24.9565 135.987 25.1271 135.816C25.3085 135.635 25.5431 135.544 25.8311 135.544C26.1191 135.544 26.3485 135.635 26.5191 135.816C26.7005 135.987 26.7911 136.216 26.7911 136.504C26.7911 136.792 26.7005 137.027 26.5191 137.208C26.3485 137.379 26.1191 137.464 25.8311 137.464ZM26.4711 139V147H25.1911V139H26.4711ZM34.1131 141.832C34.1131 141.235 33.9531 140.776 33.6331 140.456C33.3131 140.125 32.8598 139.96 32.2731 139.96C31.7185 139.96 31.2491 140.083 30.8651 140.328C30.4811 140.563 30.1985 140.947 30.0171 141.48L28.9771 140.84C29.1905 140.243 29.5851 139.763 30.1611 139.4C30.7371 139.027 31.4518 138.84 32.3051 138.84C32.8811 138.84 33.4038 138.941 33.8731 139.144C34.3425 139.336 34.7105 139.635 34.9771 140.04C35.2545 140.435 35.3931 140.947 35.3931 141.576V145.448C35.3931 145.832 35.5958 146.024 36.0011 146.024C36.2038 146.024 36.4011 145.997 36.5931 145.944L36.5291 146.952C36.3158 147.059 36.0385 147.112 35.6971 147.112C35.3878 147.112 35.1105 147.053 34.8651 146.936C34.6198 146.819 34.4278 146.643 34.2891 146.408C34.1505 146.163 34.0811 145.859 34.0811 145.496V145.336L34.4011 145.384C34.2731 145.8 34.0545 146.141 33.7451 146.408C33.4358 146.664 33.0891 146.856 32.7051 146.984C32.3211 147.101 31.9425 147.16 31.5691 147.16C31.0998 147.16 30.6625 147.08 30.2571 146.92C29.8518 146.76 29.5265 146.52 29.2811 146.2C29.0465 145.869 28.9291 145.464 28.9291 144.984C28.9291 144.387 29.1265 143.896 29.5211 143.512C29.9265 143.117 30.4865 142.851 31.2011 142.712L34.3691 142.088V143.144L31.7931 143.672C31.2705 143.779 30.8811 143.928 30.6251 144.12C30.3691 144.312 30.2411 144.579 30.2411 144.92C30.2411 145.251 30.3691 145.523 30.6251 145.736C30.8918 145.939 31.2651 146.04 31.7451 146.04C32.0545 146.04 32.3478 146.003 32.6251 145.928C32.9131 145.843 33.1691 145.72 33.3931 145.56C33.6171 145.389 33.7931 145.181 33.9211 144.936C34.0491 144.68 34.1131 144.381 34.1131 144.04V141.832ZM42.4236 147.16C41.9756 147.16 41.5596 147.08 41.1756 146.92C40.7916 146.76 40.461 146.536 40.1836 146.248C39.9063 145.96 39.6983 145.635 39.5596 145.272L39.7356 145.048L39.6236 147H38.5036V135.32H39.7836V140.808L39.6236 140.568C39.837 140.067 40.1943 139.656 40.6956 139.336C41.2076 139.005 41.789 138.84 42.4396 138.84C43.101 138.84 43.709 139.005 44.2636 139.336C44.8183 139.667 45.261 140.141 45.5916 140.76C45.9223 141.379 46.0876 142.125 46.0876 143C46.0876 143.864 45.917 144.611 45.5756 145.24C45.245 145.859 44.8023 146.333 44.2476 146.664C43.693 146.995 43.085 147.16 42.4236 147.16ZM42.2956 146.04C43.085 146.04 43.6983 145.763 44.1356 145.208C44.5836 144.653 44.8076 143.917 44.8076 143C44.8076 142.083 44.589 141.347 44.1516 140.792C43.7143 140.237 43.101 139.96 42.3116 139.96C41.8103 139.96 41.3676 140.088 40.9836 140.344C40.6103 140.6 40.317 140.957 40.1036 141.416C39.8903 141.875 39.7836 142.413 39.7836 143.032C39.7836 143.64 39.885 144.173 40.0876 144.632C40.301 145.08 40.5943 145.427 40.9676 145.672C41.3516 145.917 41.7943 146.04 42.2956 146.04ZM49.7509 135.32V144.968C49.7509 145.373 49.8255 145.656 49.9749 145.816C50.1242 145.965 50.3642 146.04 50.6949 146.04C50.9082 146.04 51.0842 146.024 51.2229 145.992C51.3615 145.96 51.5482 145.901 51.7829 145.816L51.5749 146.936C51.4042 147.011 51.2175 147.064 51.0149 147.096C50.8122 147.139 50.6042 147.16 50.3909 147.16C49.7402 147.16 49.2549 146.984 48.9349 146.632C48.6255 146.28 48.4709 145.741 48.4709 145.016V135.32H49.7509ZM56.7695 147.16C56.0122 147.16 55.3348 146.995 54.7375 146.664C54.1508 146.333 53.6922 145.859 53.3615 145.24C53.0308 144.611 52.8655 143.864 52.8655 143C52.8655 142.136 53.0308 141.395 53.3615 140.776C53.6922 140.147 54.1455 139.667 54.7215 139.336C55.2975 139.005 55.9535 138.84 56.6895 138.84C57.4362 138.84 58.0708 139 58.5935 139.32C59.1268 139.64 59.5322 140.077 59.8095 140.632C60.0868 141.176 60.2255 141.789 60.2255 142.472C60.2255 142.653 60.2202 142.819 60.2095 142.968C60.1988 143.117 60.1828 143.251 60.1615 143.368H53.6975V142.232H59.6015L58.9455 142.36C58.9455 141.592 58.7322 141 58.3055 140.584C57.8895 140.168 57.3402 139.96 56.6575 139.96C56.1348 139.96 55.6815 140.083 55.2975 140.328C54.9242 140.563 54.6308 140.909 54.4175 141.368C54.2148 141.816 54.1135 142.36 54.1135 143C54.1135 143.629 54.2202 144.173 54.4335 144.632C54.6468 145.091 54.9455 145.443 55.3295 145.688C55.7242 145.923 56.1935 146.04 56.7375 146.04C57.3242 146.04 57.7988 145.928 58.1615 145.704C58.5348 145.48 58.8335 145.176 59.0575 144.792L60.0655 145.384C59.8628 145.747 59.6015 146.061 59.2815 146.328C58.9722 146.595 58.6042 146.803 58.1775 146.952C57.7615 147.091 57.2922 147.16 56.7695 147.16ZM65.5399 147.16C64.7612 147.16 64.0412 146.995 63.3799 146.664C62.7292 146.333 62.2279 145.864 61.8759 145.256L62.9639 144.472C63.1985 144.963 63.5399 145.347 63.9879 145.624C64.4465 145.901 64.9959 146.04 65.6359 146.04C66.2012 146.04 66.6439 145.933 66.9639 145.72C67.2839 145.496 67.4439 145.208 67.4439 144.856C67.4439 144.632 67.3692 144.429 67.2199 144.248C67.0812 144.056 66.8092 143.917 66.4039 143.832L64.4839 143.432C63.7052 143.272 63.1452 143.005 62.8039 142.632C62.4732 142.259 62.3079 141.795 62.3079 141.24C62.3079 140.803 62.4305 140.403 62.6759 140.04C62.9319 139.677 63.2892 139.389 63.7479 139.176C64.2172 138.952 64.7665 138.84 65.3959 138.84C66.1852 138.84 66.8519 138.995 67.3959 139.304C67.9399 139.613 68.3452 140.051 68.6119 140.616L67.5399 141.32C67.3585 140.851 67.0652 140.509 66.6599 140.296C66.2545 140.072 65.8332 139.96 65.3959 139.96C65.0119 139.96 64.6812 140.013 64.4039 140.12C64.1372 140.227 63.9292 140.376 63.7799 140.568C63.6412 140.749 63.5719 140.957 63.5719 141.192C63.5719 141.427 63.6519 141.645 63.8119 141.848C63.9719 142.04 64.2705 142.179 64.7079 142.264L66.7079 142.68C67.4545 142.829 67.9772 143.075 68.2759 143.416C68.5745 143.757 68.7239 144.173 68.7239 144.664C68.7239 145.165 68.5905 145.608 68.3239 145.992C68.0572 146.365 67.6839 146.653 67.2039 146.856C66.7239 147.059 66.1692 147.16 65.5399 147.16Z" fill="black"/>
<path d="M430.6 132L426 127.4L427.4 126L433.4 132L427.4 138L426 136.6L430.6 132Z" fill="#1D1B20"/>
</svg>
