<svg width="269" height="280" viewBox="0 0 269 280" fill="none" xmlns="http://www.w3.org/2000/svg">
<path d="M208.354 153.32C213.082 160.009 211.214 167.919 209.032 173.416C208.295 173.564 207.911 173.849 207.194 174.165C200.774 177.051 197.471 176.805 190.728 178.568C189.273 178.942 184.702 178.657 182.844 178.41L179.384 177.888C179.384 177.888 170.32 161.171 178.489 154.571C186.658 147.971 179.914 130.918 177.368 121.402C170.458 95.5828 199.152 92.726 192.93 58.8385C191.269 49.8346 185.105 33.1962 191.357 24.616C198.484 14.8339 206.27 21.6902 210.565 13.8193C217.27 1.52516 230.649 -4.92727 241.069 4.51987C251.489 13.967 245.286 37.314 223.463 59.3212C209.592 76.8856 210.143 81.2791 213.397 91.603C215.677 98.8337 226.284 116.812 217.683 126.377C209.081 135.943 202.947 145.675 208.354 153.32Z" fill="url(#paint0_linear_2311_739)"/>
<mask id="mask0_2311_739" style="mask-type:luminance" maskUnits="userSpaceOnUse" x="175" y="0" width="71" height="181">
<path d="M205.778 180.213L180.052 178.43C180.052 178.43 170.32 161.171 178.489 154.571C186.658 147.971 179.915 130.918 177.368 121.402C170.458 95.5828 199.152 92.726 192.93 58.8385C191.269 49.8346 185.105 33.1962 191.357 24.616C198.484 14.8339 206.27 21.6902 210.565 13.8193C217.27 1.52516 230.649 -4.92727 241.069 4.51987C251.489 13.967 245.286 37.314 223.463 59.3212C209.592 76.8856 210.143 81.2791 213.397 91.603C215.677 98.8337 226.284 116.812 217.683 126.377C209.081 135.943 202.947 145.675 208.354 153.32C216.582 164.954 205.778 180.213 205.778 180.213Z" fill="white"/>
</mask>
<g mask="url(#mask0_2311_739)">
<g style="mix-blend-mode:soft-light" opacity="0.5">
<path d="M194.336 178.184L193.825 178.213C193.648 175.159 193.5 172.086 193.402 169.071C192.635 146.719 193.982 125.106 197.393 104.833C200.293 87.6525 204.707 71.1914 210.526 55.9026C215.215 43.6085 220.819 32.004 227.208 21.4142C231.691 13.9668 236.508 7.09077 241.531 0.983125C242.406 -0.0807872 243.36 -1.125 244.284 -2.1298C245.512 -3.46954 246.78 -4.85854 247.872 -6.30664L248.275 -6.00126C247.174 -4.52361 245.896 -3.13461 244.657 -1.78502C243.733 -0.780211 242.789 0.254147 241.924 1.30821C236.921 7.39615 232.114 14.2525 227.641 21.6801C221.271 32.2405 215.677 43.8154 211.008 56.0898C205.198 71.3392 200.784 87.7707 197.894 104.921C194.483 125.155 193.146 146.739 193.913 169.052C194.011 172.066 194.159 175.14 194.336 178.184Z" fill="#FCFDFE"/>
<path d="M204.697 74.9734L204.195 74.8454C209.749 53.5671 195.014 18.8915 194.866 18.5467L195.338 18.3398C195.486 18.6945 210.29 53.5277 204.697 74.9734Z" fill="#FCFDFE"/>
<path d="M194.375 135.863L193.864 135.794C195.948 120.889 220.17 105.187 220.415 105.029L220.691 105.463C220.445 105.62 196.429 121.195 194.375 135.863Z" fill="#FCFDFE"/>
<path d="M193.923 144.424L193.412 144.443C193.028 134.622 187.287 121.441 177.221 107.315C176.72 106.605 176.72 106.605 176.71 106.507L177.221 106.487H176.966L177.201 106.379C177.221 106.428 177.418 106.704 177.634 107.009C187.759 121.224 193.539 134.504 193.923 144.424Z" fill="#FCFDFE"/>
<path d="M194.09 172.617L193.588 172.489C196.282 162.007 210.86 155.368 211.008 155.299L211.214 155.762C211.067 155.831 196.714 162.372 194.09 172.617Z" fill="#FCFDFE"/>
<path d="M193.588 178.361C190.148 170.342 184.299 163.062 175.707 156.087L176.022 155.684C184.682 162.717 190.58 170.066 194.05 178.154L193.588 178.361Z" fill="#FCFDFE"/>
<path d="M223.984 27.9758L223.502 27.8182C227.237 16.1644 228.476 3.04284 228.879 -1.26206C228.977 -2.30627 229.017 -2.68062 229.056 -2.79883L229.548 -2.66091C229.518 -2.57225 229.469 -1.97134 229.39 -1.21281C228.987 3.1118 227.749 16.2629 223.984 27.9758Z" fill="#FCFDFE"/>
<path d="M215.097 46.0318L214.684 45.7362C221.251 36.3186 243.831 32.3979 244.785 32.2305L244.873 32.7427C244.637 32.7821 221.546 36.7915 215.097 46.0318Z" fill="#FCFDFE"/>
</g>
</g>
<mask id="mask1_2311_739" style="mask-type:luminance" maskUnits="userSpaceOnUse" x="178" y="46" width="91" height="157">
<path d="M185.881 198.831L212.413 202.023C212.413 202.023 219.059 189.148 213.721 178.853C202.829 157.861 222.165 149.891 229.754 145.35C241.206 138.503 248.274 127.529 233.529 120.604C218.783 113.679 237.117 91.9474 257.21 83.5347C276.881 75.2893 273.44 35.9246 229.213 49.8835C202.799 58.2175 203.507 84.9532 200.617 98.5378C197.727 112.122 176.965 110.783 181.969 128.406C186.245 143.458 196.419 155.28 186.471 164.077C176.523 172.874 174.262 183.808 185.881 198.831Z" fill="white"/>
</mask>
<g mask="url(#mask1_2311_739)">
<path d="M185.881 198.831L212.413 202.023C212.413 202.023 219.059 189.148 213.721 178.853C202.829 157.861 222.165 149.891 229.754 145.35C241.206 138.503 247.095 128.583 235.348 120.289C222.067 110.891 237.117 91.9474 257.21 83.5347C276.881 75.2893 273.44 35.9246 229.213 49.8835C202.799 58.2175 203.507 84.9532 200.617 98.5378C197.727 112.122 176.965 110.783 181.969 128.406C186.245 143.458 196.419 155.28 186.471 164.077C176.523 172.874 174.262 183.808 185.881 198.831Z" fill="url(#paint1_linear_2311_739)"/>
<g style="mix-blend-mode:soft-light" opacity="0.5">
<path d="M197.068 202.654L197.629 202.615C197.609 202.27 195.613 167.693 204.077 132.82C211.883 100.696 230.403 61.7448 274.394 58.6122L274.354 58.0605C254.772 59.4495 238.523 67.9313 226.058 83.2792C216.09 95.5339 208.511 112.162 203.527 132.702C195.043 167.653 197.049 202.309 197.068 202.654Z" fill="#BEB8F2"/>
<path d="M221.123 89.9088H221.683C221.624 71.3199 231.858 46.1505 231.966 45.8944L231.445 45.6875C231.337 45.9436 221.064 71.2115 221.123 89.9088Z" fill="#BEB8F2"/>
<path d="M229.715 79.9096C249.995 70.5511 266.923 78.2448 267.09 78.3236L267.336 77.8113C267.159 77.7325 250.005 69.9305 229.479 79.4072L229.715 79.9096Z" fill="#BEB8F2"/>
<path d="M199.801 155.92C209.267 130.524 245.964 128.425 246.328 128.435L246.377 127.884C246.023 127.834 208.815 130.11 199.27 155.723L199.801 155.92Z" fill="#BEB8F2"/>
<path d="M200.98 144.819L201.551 144.77C200.076 127.56 183.099 113.808 182.932 113.67L182.578 114.103C182.745 114.241 199.535 127.855 200.98 144.819Z" fill="#BEB8F2"/>
<path d="M197.432 197.167C199.486 187.089 215.146 180.794 215.303 180.735L215.097 180.213C214.438 180.469 198.995 186.685 196.881 197.058L197.432 197.167Z" fill="#BEB8F2"/>
<path d="M196.852 188.991L197.412 188.961C197.019 180.844 185.96 170.52 182.323 167.132C181.812 166.649 181.369 166.235 181.3 166.146L180.838 166.462C180.927 166.59 181.222 166.866 181.939 167.535C185.527 170.885 196.469 181.09 196.852 188.991Z" fill="#BEB8F2"/>
</g>
</g>
<path d="M217.683 192.674L217.457 192.832C212.876 196.073 207.302 198.801 200.48 200.525L196.41 201.244C194.611 198.289 193.421 195.147 197.245 193.029C203.193 189.748 200.922 178.508 198.317 174.913C195.102 170.48 187.818 159.988 196.931 154.757C204.51 150.413 210.3 149.152 208.59 138.523C206.879 127.894 211.195 120.082 220.838 118.643C230.993 117.126 236.311 101.985 245.483 104.675C261.447 109.344 253.524 135.321 237.599 145.813C221.674 156.304 232.998 160.402 235.328 168.903C238.503 180.508 222.126 181.444 218.941 186.96C217.86 188.832 217.565 190.802 217.683 192.674Z" fill="url(#paint2_linear_2311_739)"/>
<mask id="mask2_2311_739" style="mask-type:luminance" maskUnits="userSpaceOnUse" x="192" y="104" width="63" height="100">
<path d="M219.55 199.038L197.707 203.609C195.781 200.772 192.969 195.403 197.245 193.029C203.193 189.748 200.922 178.508 198.317 174.913C195.102 170.48 187.818 159.988 196.931 154.757C204.51 150.413 210.3 149.152 208.59 138.523C206.879 127.894 211.195 120.082 220.838 118.643C230.993 117.126 236.311 101.985 245.483 104.675C261.447 109.344 253.524 135.321 237.599 145.813C221.674 156.304 232.998 160.402 235.328 168.903C238.503 180.508 222.126 181.444 218.941 186.96C216.444 191.295 218.125 196.151 219.55 199.038Z" fill="white"/>
</mask>
<g mask="url(#mask2_2311_739)">
<g style="mix-blend-mode:soft-light" opacity="0.5">
<path d="M208.551 197.747H208.059C207.666 162.313 224.417 126.869 251.794 105.227L252.099 105.611C224.839 127.165 208.147 162.471 208.551 197.747Z" fill="#FCFDFE"/>
<path d="M209.976 178.411L209.504 178.519C206.604 164.895 192.714 156.768 192.576 156.689L192.812 156.266C192.96 156.354 207.037 164.58 209.976 178.411Z" fill="#FCFDFE"/>
<path d="M208.649 191.225L208.187 191.088C212.138 177.542 236.803 170.469 237.058 170.4L237.186 170.873C236.94 170.942 212.532 177.936 208.649 191.225Z" fill="#FCFDFE"/>
<path d="M220.494 145.321L220.023 145.232C222.234 134.249 212.404 120.191 212.296 120.053L212.699 119.768C212.797 119.915 222.746 134.14 220.494 145.321Z" fill="#FCFDFE"/>
<path d="M232.182 126.111L231.848 125.756C241.069 116.959 258.272 117.048 258.439 117.058V117.54C258.262 117.54 241.256 117.442 232.182 126.111Z" fill="#FCFDFE"/>
</g>
</g>
<path d="M12.0421 168.087C5.43617 168.708 0 163.743 0 157.015V28.8723C0 22.144 5.43617 16.8048 12.0421 16.9624L211.008 21.8386C215.677 21.9569 219.442 26.5868 219.442 32.1724V138.544C219.442 144.129 215.677 149.025 211.008 149.459L12.0421 168.087Z" fill="#97A6B7"/>
<path d="M211.008 25.148L12.042 20.8825C7.71665 20.7938 4.17773 24.3993 4.17773 28.9308V156.669C4.17773 161.201 7.71665 164.56 12.042 164.176L211.008 146.148C214.075 145.872 216.552 142.572 216.552 138.789V32.1225C216.552 28.3397 214.075 25.2169 211.008 25.148Z" fill="url(#paint3_linear_2311_739)"/>
<path d="M139.925 134.889L126.261 135.913V111.079L139.925 110.34V134.889Z" fill="#D8DEE8"/>
<path d="M161.994 133.225L148.851 134.22V101.839L161.994 101.229V133.225Z" fill="#D8DEE8"/>
<path d="M183.237 131.628L170.585 132.583V90.3615L183.237 89.8887V131.628Z" fill="#D8DEE8"/>
<path d="M203.694 130.091L191.515 131.007V75.9401L203.694 75.6348V130.091Z" fill="#D8DEE8"/>
<path d="M126.261 89.9086C125.945 89.9197 125.631 89.866 125.337 89.751C124.118 89.2486 123.538 87.8005 124.059 86.51C124.649 85.0422 126.064 84.8058 126.831 84.6876C127.401 84.5891 128.187 84.4906 129.17 84.3723C161.031 80.5206 183.1 66.6602 195.84 43.4315C196.449 42.3281 197.747 41.9834 198.74 42.6631C199.733 43.3428 200.037 44.7811 199.438 45.8844C190.875 61.5672 178.234 73.3392 161.581 80.8555C147.907 87.0321 135.128 88.628 129.583 89.3274C128.659 89.4358 127.706 89.5638 127.263 89.6427C126.953 89.8054 126.611 89.8963 126.261 89.9086ZM128.463 88.3029C128.463 88.3128 128.463 88.3128 128.453 88.3128C128.443 88.3128 128.463 88.3128 128.463 88.3029Z" fill="#D8DEE8"/>
<path d="M199.664 57.0165C198.572 57.0263 197.648 56.0806 197.57 54.8394L196.97 44.5746L188.133 51.1354C187.14 51.8644 185.813 51.5689 185.144 50.4853C184.476 49.4016 184.751 47.924 185.744 47.195L200.696 36.1914L201.757 54.5045C201.836 55.795 200.961 56.918 199.801 57.0066L199.664 57.0165Z" fill="#D8DEE8"/>
<path opacity="0.68" d="M30.297 48.1995C30.297 50.4455 28.4096 52.2778 26.07 52.2778C23.7304 52.2778 21.8135 50.4554 21.8135 48.1995C21.8135 45.9436 23.7206 44.1113 26.07 44.1113C28.4195 44.1113 30.297 45.9535 30.297 48.1995Z" fill="#D8DEE8"/>
<path opacity="0.68" d="M105.833 56.7303L36.6279 57.2229V39.1758L105.833 39.6782V56.7303Z" fill="#D8DEE8"/>
<path opacity="0.68" d="M30.297 72.9162C30.297 75.1622 28.4096 77.024 26.07 77.0832C23.7304 77.1423 21.8135 75.3395 21.8135 73.0836C21.8135 70.8277 23.7206 68.9561 26.07 68.9167C28.4195 68.8772 30.297 70.6701 30.297 72.9162Z" fill="#D8DEE8"/>
<path opacity="0.68" d="M105.833 79.9682L36.6279 81.8103V63.7632L105.833 62.916V79.9682Z" fill="#D8DEE8"/>
<path opacity="0.68" d="M30.297 122.349C30.297 124.595 28.4096 126.535 26.07 126.683C23.7304 126.831 21.8135 125.107 21.8135 122.851C21.8135 120.595 23.7206 118.645 26.07 118.516C28.4195 118.388 30.297 120.103 30.297 122.349Z" fill="#D8DEE8"/>
<path opacity="0.68" d="M105.833 122.172L36.6279 126.486V117.463L105.833 113.65V122.172Z" fill="#D8DEE8"/>
<path opacity="0.68" d="M30.297 138.602C30.297 140.848 28.4096 142.808 26.07 142.985C23.7304 143.163 21.8135 141.468 21.8135 139.203C21.8135 136.937 23.7206 134.976 26.07 134.819C28.4195 134.661 30.297 136.346 30.297 138.602Z" fill="#D8DEE8"/>
<path opacity="0.68" d="M105.833 137.449L36.6279 142.65V133.627L105.833 128.928V137.449Z" fill="#D8DEE8"/>
<path d="M209.622 244.886C222.006 244.886 232.045 240.779 232.045 235.714C232.045 230.649 222.006 226.543 209.622 226.543C197.238 226.543 187.199 230.649 187.199 235.714C187.199 240.779 197.238 244.886 209.622 244.886Z" fill="#B7C0CE"/>
<path d="M232.055 234.641C232.055 239.418 222.018 243.3 209.632 243.3C197.246 243.3 187.209 239.418 187.209 234.641C187.209 229.863 197.246 222.031 209.632 222.031C222.018 222.031 232.055 229.853 232.055 234.641Z" fill="url(#paint4_linear_2311_739)"/>
<path d="M232.055 234.641C232.055 229.853 222.018 222.031 209.632 222.031C204.413 222.042 199.284 223.399 194.739 225.972C194.454 226.553 194.326 227.134 194.385 227.676C194.641 230.365 199.015 232.02 201.532 232.572C207.863 233.941 210.949 230.148 216.169 230.296C219.394 230.385 223.866 232.01 229.165 238.886C231.003 237.635 232.055 236.187 232.055 234.641Z" fill="#B7C0CE"/>
<path d="M210.86 226.376C210.037 226.594 209.171 226.6 208.344 226.396C207.996 226.302 207.689 226.096 207.47 225.809C207.251 225.522 207.133 225.171 207.135 224.81V199.473H212.119V224.78C212.116 225.148 211.991 225.505 211.763 225.794C211.535 226.084 211.218 226.288 210.86 226.376Z" fill="white"/>
<path d="M210.86 226.376C210.037 226.594 209.171 226.6 208.344 226.396C207.996 226.302 207.689 226.096 207.47 225.809C207.251 225.522 207.133 225.171 207.135 224.81V199.473H212.119V224.78C212.116 225.148 211.991 225.505 211.763 225.794C211.535 226.084 211.218 226.288 210.86 226.376Z" fill="url(#paint5_linear_2311_739)"/>
<path d="M183.277 188.804L190.895 183.977C191.22 182.174 194.808 163.319 209.386 157.399C215.314 154.985 221.694 155.271 225.193 155.429C232.183 155.744 237.167 155.97 239.565 159.31C242.642 163.595 237.481 167.486 238.553 179.761C238.985 184.765 240.096 186.982 238.72 190.301C237.059 194.271 233.225 196.478 230.236 197.709C226.678 199.788 220.465 202.743 212.266 203.462C198.445 204.684 188.133 198.744 184.584 196.468C183.81 196.222 183.115 195.774 182.57 195.17C182.026 194.566 181.652 193.827 181.488 193.03C181.323 192.227 181.405 191.392 181.725 190.638C182.044 189.883 182.586 189.243 183.277 188.804Z" fill="url(#paint6_linear_2311_739)"/>
<path d="M226.727 156.433C231.897 156.59 235.112 156.531 236.891 158.846C238.67 161.161 236.872 163.338 236.518 171.987C236.203 179.868 237.589 182.981 235.043 187.345C235.043 187.345 233.755 189.571 231.72 191.236C224.515 197.127 205.926 197.058 198.101 184.754C191.858 174.943 194.463 160.481 201.797 155.694C205.385 153.349 206.211 155.832 226.727 156.433Z" fill="url(#paint7_linear_2311_739)"/>
<path d="M182.726 184.469L190.345 179.642C190.345 179.642 210.753 172.924 229.627 182.401C230.662 182.928 231.531 183.733 232.137 184.726C232.743 185.719 233.062 186.862 233.058 188.026C233.057 188.914 232.794 189.783 232.303 190.522C231.811 191.262 231.113 191.839 230.295 192.183C227.002 194.439 220.573 198.162 211.706 199.128C197.619 200.684 187.13 194.212 184.034 192.133C183.259 191.888 182.564 191.44 182.02 190.836C181.476 190.231 181.102 189.493 180.937 188.695C180.771 187.892 180.853 187.057 181.172 186.302C181.492 185.547 182.034 184.908 182.726 184.469Z" fill="url(#paint8_linear_2311_739)"/>
<path d="M174.597 240.707C174.597 240.707 175.246 243.347 175.265 244.303C175.285 245.258 164.786 246.588 164.619 245.889C164.452 245.189 166.211 243.899 167.48 243.396C168.748 242.894 172.473 241.515 172.473 241.515L174.597 240.707Z" fill="url(#paint9_linear_2311_739)"/>
<path d="M171.824 238.245L172.424 241.545C172.424 241.545 173.712 242.255 174.744 241.545L174.99 237.881L171.824 238.245Z" fill="url(#paint10_linear_2311_739)"/>
<path d="M193.746 243.535C193.746 243.535 194.395 246.175 194.415 247.131C194.434 248.086 183.935 249.416 183.768 248.717C183.601 248.017 185.371 246.727 186.639 246.224C187.907 245.722 191.633 244.343 191.633 244.343L193.746 243.535Z" fill="url(#paint11_linear_2311_739)"/>
<path d="M190.974 241.072L191.574 244.372C191.574 244.372 192.871 245.081 193.894 244.372L194.149 240.707L190.974 241.072Z" fill="url(#paint12_linear_2311_739)"/>
<path d="M166.791 151.27C165.769 153.838 164.75 156.412 163.734 158.993C163.881 173.198 164.619 188.595 166.25 204.997C167.46 217.203 169.032 228.728 170.841 239.515L175.776 238.895C177.791 233.949 180.033 226.522 179.58 217.616C179.109 208.327 176.209 207.322 175.678 198.436C174.99 186.921 179.551 183.463 181.016 169.425C181.566 164.047 181.674 157.092 180.219 148.768L166.791 151.27Z" fill="url(#paint13_linear_2311_739)"/>
<path style="mix-blend-mode:multiply" opacity="0.3" d="M180.22 148.768L172.965 150.117C169.19 158.126 168.6 166.194 169.652 169.652C171.146 174.548 174.154 175.917 174.4 180.931C174.646 185.945 171.825 187.413 170.448 193.403C169.495 197.55 170.124 201.234 171.431 208.445C174.066 222.966 177.959 227.162 175.383 232.196C174.656 233.624 173.27 235.368 170.409 236.856C170.547 237.742 170.694 238.639 170.842 239.515L175.776 238.895C177.792 233.949 180.033 226.522 179.581 217.616C179.109 208.327 176.209 207.322 175.678 198.436C174.99 186.921 179.551 183.463 181.016 169.425C181.566 164.047 181.675 157.092 180.22 148.768Z" fill="url(#paint14_linear_2311_739)"/>
<path d="M173.702 155.201C176.985 167.515 180.082 180.725 182.785 194.792C186.059 211.765 188.369 227.832 189.971 242.786L195.417 242.51C201.433 227.773 201.099 218.129 199.576 211.962C198.986 209.588 197.521 204.948 196.715 197.905C196.145 192.999 196.164 189.226 196.194 184.695C196.263 174.755 197.128 172.509 196.676 164.953C196.253 157.851 195.997 154.265 193.805 152.334C188.045 147.241 174.715 154.629 173.702 155.201Z" fill="url(#paint15_linear_2311_739)"/>
<path d="M120.943 126.594C120.943 126.594 116.952 126.249 116.372 125.599C115.792 124.948 114.917 123.914 114.828 123.323C114.74 122.732 113.973 123.609 114.671 124.899C115.369 126.19 113.383 125.914 113.078 125.884C112.361 125.815 109.648 125.736 109.726 125.904C109.805 126.071 109.402 126.82 111.329 127.697C113.019 128.455 115.035 127.963 116.126 128.012L117.227 128.061L120.137 128.288L120.943 126.594Z" fill="url(#paint16_linear_2311_739)"/>
<path d="M118.603 124.722L118.072 128.721C120.717 130.938 126.566 135.174 134.695 135.804C149.038 136.927 163.252 126.298 165.907 114.329C167.214 108.409 166.143 100.094 162.466 98.7645C161.453 98.3901 159.92 98.4394 156.755 100.567C148.33 106.241 147.612 113.699 142.953 118.733C139.601 122.358 133.014 126.042 118.603 124.722Z" fill="url(#paint17_linear_2311_739)"/>
<path d="M162.545 161.634C160.579 158.885 162.535 155.93 162.594 150.413C162.663 144.168 160.195 143.32 157.01 133.233C154.897 126.524 152.872 120.082 154.051 112.25C154.622 108.507 155.585 102.143 160.5 98.7051C163.036 96.9418 166.683 96.8039 173.869 96.6069C182.756 96.3606 187.209 96.2325 190.65 97.7102C191.151 97.9269 201.63 102.596 203.036 111.462C204.461 120.486 194.69 122.505 194.346 134.721C194.189 140.198 195.909 148.482 197.03 153.851C198.101 159.003 198.661 160.304 197.757 161.959C195.594 165.958 187.937 165.485 172.631 164.53C166.624 164.155 164.01 163.692 162.545 161.634Z" fill="url(#paint18_linear_2311_739)"/>
<path style="mix-blend-mode:multiply" opacity="0.3" d="M183.483 133.628C184.309 135.943 186.757 137.519 188.811 143.134C189.263 144.345 192.429 152.975 189.411 155.398C187.661 156.807 185.813 154.561 181.311 154.61C173.505 154.699 170.33 161.526 165.11 160.156C164.206 159.91 162.997 159.349 161.709 157.92C161.591 159.309 161.729 160.491 162.545 161.634C164.009 163.693 166.624 164.156 172.631 164.53C187.936 165.486 195.594 165.959 197.757 161.959C198.661 160.304 198.101 159.004 197.029 153.852C195.909 148.483 194.188 140.198 194.346 134.721C194.69 122.506 204.461 120.486 203.036 111.463C202.652 109.049 201.591 106.961 200.244 105.178C188.133 111.256 180.878 126.377 183.483 133.628Z" fill="url(#paint19_linear_2311_739)"/>
<path d="M200.726 150.227L198.347 152.029C197.855 151.547 196.734 150.581 195.073 150.355C193.215 150.099 191.151 150.837 191.151 151.428C191.151 152.019 192.468 152.276 192.675 152.335C194.316 152.798 195.466 152.207 196.164 152.798C196.41 153.014 196.725 153.408 197.413 153.753C197.566 153.826 197.723 153.889 197.885 153.94C198.986 154.275 200.667 152.266 200.804 152.088L200.726 150.227Z" fill="url(#paint20_linear_2311_739)"/>
<path d="M190.689 117.894C188.526 113.688 186.747 107.127 188.811 97.0098C208.266 102.94 219.295 119.825 216.661 134.119C214.488 145.91 203.675 152.432 201.257 153.821L199.182 149.959C201.837 146.472 204.736 141.408 203.832 135.961C202.584 128.415 195.063 126.405 190.689 117.894Z" fill="url(#paint21_linear_2311_739)"/>
<path d="M173.614 87.623C173.614 87.623 174.027 90.9133 175.255 93.3071C176.356 95.4743 181.34 96.489 182.363 96.9027C183.385 97.3165 180.672 99.0108 177.851 99.5329C175.029 100.055 166.841 100.055 165.288 99.0897C163.734 98.1243 166.389 97.9962 168.355 97.08C170.321 96.1639 171.186 92.0954 170.684 90.3124C170.183 88.5293 173.614 87.623 173.614 87.623Z" fill="url(#paint22_linear_2311_739)"/>
<path d="M169.023 86.7853C167.421 85.4456 167.204 85.288 167.008 84.8053C166.192 82.835 167.539 79.9487 169.534 79.1015C169.633 79.0621 170.969 78.5105 171.549 79.0621C172.129 79.6138 171.431 80.2836 171.825 81.2392C172.218 82.1947 172.985 82.1356 174.548 83.2192C175.835 84.1058 176.642 84.6673 176.877 85.5145C177.379 87.268 175.432 90.0263 173.525 90.1051C172.837 90.1347 172.621 89.7997 169.023 86.7853Z" fill="url(#paint23_linear_2311_739)"/>
<path d="M173.358 90.4008C173.358 90.4008 171.932 92.302 169.485 91.908C167.302 91.5533 167.46 86.5786 168.964 85.6723C169.465 85.3669 170.419 85.3078 171.156 85.5934C171.598 85.7708 171.726 85.9678 172.453 86.2338C173.181 86.4997 173.318 86.4209 173.505 86.618C173.692 86.815 173.879 87.406 173.309 88.8147C173.771 88.4207 174.292 88.3123 174.636 88.5093C174.747 88.5926 174.838 88.7005 174.901 88.8246C175.147 89.4255 174.567 90.0954 173.358 90.4008Z" fill="url(#paint24_linear_2311_739)"/>
<path d="M122.476 240.491C122.436 240.49 122.397 240.474 122.367 240.447C122.336 240.42 122.316 240.384 122.309 240.344L109.49 171.258C109.487 171.236 109.487 171.214 109.492 171.192C109.497 171.17 109.506 171.149 109.518 171.131C109.531 171.113 109.547 171.097 109.566 171.085C109.585 171.073 109.606 171.065 109.628 171.061C109.65 171.057 109.672 171.058 109.694 171.063C109.716 171.067 109.737 171.077 109.755 171.089C109.773 171.102 109.789 171.118 109.801 171.137C109.813 171.156 109.821 171.177 109.825 171.199L122.309 238.423V166.658C122.309 166.612 122.326 166.569 122.357 166.536C122.389 166.503 122.431 166.483 122.476 166.48C122.499 166.48 122.522 166.485 122.544 166.494C122.565 166.503 122.585 166.516 122.601 166.532C122.618 166.549 122.631 166.568 122.64 166.59C122.649 166.611 122.653 166.635 122.653 166.658V240.314C122.653 240.358 122.638 240.4 122.608 240.433C122.579 240.466 122.539 240.486 122.496 240.491H122.476Z" fill="#C47EB7"/>
<path d="M55.5515 242.56H55.5318C55.4892 242.557 55.4492 242.539 55.4199 242.508C55.3907 242.476 55.3744 242.435 55.3745 242.393V174.736C55.3745 174.689 55.3931 174.644 55.4263 174.61C55.4595 174.577 55.5045 174.558 55.5515 174.558C55.5967 174.561 55.6392 174.581 55.6703 174.614C55.7013 174.647 55.7186 174.69 55.7186 174.736V240.265L66.6204 174.46C66.6299 174.414 66.6565 174.373 66.6947 174.345C66.733 174.318 66.7802 174.306 66.8268 174.312C66.8723 174.322 66.9121 174.349 66.9379 174.387C66.9636 174.426 66.9732 174.473 66.9645 174.519L55.7186 242.412C55.7118 242.452 55.6916 242.489 55.6611 242.516C55.6307 242.543 55.592 242.558 55.5515 242.56Z" fill="#C47EB7"/>
<path d="M220.377 264.942C220.336 264.943 220.296 264.93 220.264 264.905C220.231 264.88 220.209 264.844 220.2 264.804L204.51 190.321C204.502 190.275 204.511 190.228 204.537 190.189C204.563 190.15 204.603 190.123 204.648 190.114C204.693 190.11 204.738 190.121 204.776 190.146C204.813 190.171 204.841 190.209 204.855 190.252L220.2 263.1V190.212C220.2 190.165 220.218 190.12 220.251 190.087C220.285 190.054 220.33 190.035 220.377 190.035C220.422 190.038 220.464 190.057 220.495 190.09C220.527 190.123 220.544 190.167 220.544 190.212V264.765C220.547 264.808 220.533 264.85 220.505 264.883C220.478 264.916 220.439 264.937 220.396 264.942H220.377Z" fill="#C47EB7"/>
<path d="M142.304 277.965H142.295C142.251 277.96 142.211 277.939 142.182 277.906C142.153 277.873 142.137 277.831 142.137 277.787V202.939C142.137 202.894 142.154 202.85 142.186 202.817C142.217 202.784 142.259 202.764 142.304 202.762C142.328 202.762 142.351 202.766 142.372 202.775C142.394 202.784 142.413 202.797 142.429 202.814C142.446 202.83 142.459 202.85 142.468 202.871C142.477 202.893 142.481 202.916 142.481 202.939V276.063L159.34 192.94C159.352 192.897 159.38 192.859 159.418 192.835C159.457 192.811 159.503 192.803 159.547 192.812C159.57 192.816 159.592 192.824 159.612 192.836C159.632 192.849 159.648 192.865 159.661 192.885C159.674 192.904 159.683 192.926 159.687 192.95C159.691 192.973 159.69 192.996 159.684 193.019L142.481 277.827C142.472 277.867 142.45 277.902 142.417 277.927C142.385 277.952 142.345 277.966 142.304 277.965Z" fill="#C47EB7"/>
<path d="M221.075 189.296V190.587L142.127 203.492L54.834 175.022V173.732C68.508 169.693 221.075 189.296 221.075 189.296Z" fill="#B7C0CE"/>
<path d="M127.333 167.082L221.065 189.296L142.127 202.201L54.834 173.731L127.333 167.082Z" fill="white"/>
<path d="M65.2931 264.183C64.546 265.71 64.7524 266.37 64.9392 266.656C65.4897 267.503 66.7971 266.705 70.2279 267.109C70.937 267.22 71.6606 267.197 72.3611 267.04C73.177 266.843 74.1502 266.409 74.1109 266.183C74.0716 265.956 73.9438 266.074 73.8946 266.065C72.9411 265.858 66.9839 264.025 66.9839 264.025L65.2931 264.183Z" fill="url(#paint25_linear_2311_739)"/>
<path d="M64.8413 260.824L65.3721 264.242C65.3721 264.242 66.8369 265.276 67.2203 264.015C67.4955 263.109 67.4857 260.666 67.4857 260.666L64.8413 260.824Z" fill="url(#paint26_linear_2311_739)"/>
<path d="M82.1326 262.518L80.6875 266.449L78.6035 266.114L79.0852 262.469L82.1326 262.518Z" fill="url(#paint27_linear_2311_739)"/>
<path d="M80.0487 268.615C79.0362 267.413 78.1318 267.522 77.945 266.694C77.8074 266.044 78.2006 265.246 78.8002 264.951C79.6456 264.517 80.6582 265.187 80.8941 265.335C82.4571 266.349 82.0344 267.945 83.509 268.635C83.8039 268.783 84.2757 268.93 84.7672 269.393C84.9835 269.59 85.5045 270.083 85.3767 270.418C85.2489 270.753 84.3052 270.792 83.4205 270.782C82.3588 270.763 81.828 270.763 81.3168 270.438C80.609 269.994 80.8253 269.541 80.0487 268.615Z" fill="url(#paint28_linear_2311_739)"/>
<path d="M53.6543 179.08C53.9774 185.906 54.9184 192.688 56.4658 199.344C57.8617 205.294 58.6186 206.308 59.1003 210.436C60.1423 219.41 57.2817 220.76 56.9671 230.946C56.6231 242.186 59.7884 251.042 61.0369 254.421C61.9188 256.805 62.9363 259.137 64.0843 261.405C65.1361 262.282 66.6991 261.898 68.3506 261.523C68.734 251.328 69.2943 241.733 69.6876 231.537C71.3259 216.182 72.9643 200.821 74.6027 185.454L53.6543 179.08Z" fill="url(#paint29_linear_2311_739)"/>
<path style="mix-blend-mode:multiply" opacity="0.3" d="M68.3506 261.523C68.734 251.328 69.2943 241.733 69.6876 231.537C71.3259 216.182 72.9643 200.821 74.6027 185.454L53.6543 179.08C53.6838 179.602 53.7133 180.114 53.7526 180.627C63.6616 188.882 65.7063 195.551 65.7063 200.132C65.7161 205.678 62.7473 208.495 63.5043 216.524C64.0548 222.267 65.8046 223.242 65.9127 228.434C66.0503 235.123 63.2684 238.935 61.9609 242.836C60.6928 246.589 60.3291 251.889 63.0914 259.356C63.4453 260.125 63.7894 260.814 64.0843 261.405C65.1361 262.282 66.6991 261.898 68.3506 261.523Z" fill="url(#paint30_linear_2311_739)"/>
<path d="M66.0996 186.478C71.3785 194.989 74.3571 201.718 75.9791 205.885C76.972 208.416 77.8862 211.066 78.1516 214.554C78.4087 217.953 78.0286 221.372 77.0309 224.631C75.8884 227.912 75.0718 231.297 74.593 234.738C72.8825 247.111 75.9889 257.366 78.3678 263.247L82.0935 264.538C85.651 253.846 88.3176 242.877 90.0659 231.744C91.2456 224.237 92.1401 218.346 91.9927 210.899C91.8354 203.048 90.4592 190.645 83.7254 175.928L66.0996 186.478Z" fill="url(#paint31_linear_2311_739)"/>
<path d="M67.4855 118.408C75.3595 119.59 81.356 120.861 84.0987 124.919C87.0085 129.205 82.6045 132.574 81.592 142.129C80.0486 156.768 88.5322 162.038 86.4383 176.785C85.8784 180.649 84.7278 184.404 83.0272 187.917C80.5401 190.045 76.5785 192.951 71.1522 194.98C63.2682 197.935 59.3164 196.408 48.6309 197.246C31.1624 198.625 28.6557 203.767 20.6931 200.812C12.7305 197.856 6.67506 189.404 8.28723 185.72C9.26043 183.523 12.4848 184.814 17.0166 182.036C22.8558 178.45 21.7646 173.751 26.4733 169.604C33.2464 163.644 39.9999 169.367 45.7801 164.186C51.5603 159.004 52.0813 146.503 49.3878 139.154C47.6282 134.357 47.4906 129.096 46.1536 124.161C45.9907 123.566 46.0009 122.937 46.1831 122.348C47.1072 119.472 52.2976 118.812 56.2297 118.349C62.2164 117.649 66.8465 118.309 67.4855 118.408Z" fill="url(#paint32_linear_2311_739)"/>
<path style="mix-blend-mode:multiply" opacity="0.3" d="M21.4892 195.256C23.878 193.581 22.4625 189.03 26.0014 186.518C29.2749 184.193 31.9389 187.089 36.8147 185.474C43.0668 183.405 42.6048 177.347 48.5915 175.278C52.8971 173.79 54.2635 176.539 60.5255 176.519C66.7874 176.499 74.8974 173.751 79.9404 167.003C81.8496 164.421 83.1838 161.458 83.8528 158.314C85.642 163.683 87.5589 168.865 86.4382 176.785C85.8783 180.649 84.7277 184.404 83.0271 187.917C80.54 190.045 76.5784 192.951 71.1521 194.98C63.2681 197.935 59.3163 196.408 48.6308 197.246C31.1623 198.625 28.6556 203.767 20.693 200.812C15.5419 198.901 11.2657 194.773 9.25049 191.089C16.2792 195.975 19.7591 196.468 21.4892 195.256Z" fill="url(#paint33_linear_2311_739)"/>
<path d="M71.7221 104.715C71.7221 104.715 73.9733 108.734 74.1699 111.581C74.3665 114.428 71.152 114.29 71.152 114.29L71.3092 116.093C71.378 116.843 71.6614 117.557 72.1252 118.149C72.589 118.741 73.2137 119.187 73.9241 119.432L75.202 119.876C75.202 119.876 66.9642 121.826 62.3833 118.723L63.6809 118.565C64.5738 118.461 65.4028 118.05 66.0267 117.401C66.6505 116.752 67.0305 115.907 67.1019 115.009L67.1608 114.241C67.1608 114.241 65.5388 105.385 71.7221 104.715Z" fill="url(#paint34_linear_2311_739)"/>
<path d="M84.8755 149.754L95.099 126.88C95.1622 126.744 95.2666 126.632 95.3973 126.56C95.528 126.487 95.6782 126.458 95.8265 126.476L113.708 128.732C113.818 128.747 113.922 128.789 114.013 128.852C114.104 128.916 114.179 129 114.231 129.097C114.284 129.195 114.313 129.304 114.316 129.415C114.319 129.526 114.296 129.636 114.248 129.737L102.197 154.453C102.124 154.597 102.004 154.712 101.858 154.78C101.712 154.848 101.547 154.865 101.39 154.827L85.4751 150.877L84.8755 149.754Z" fill="url(#paint35_linear_2311_739)"/>
<path d="M87.687 146.985L95.9641 128.465C96.015 128.355 96.0993 128.263 96.2051 128.202C96.311 128.142 96.433 128.117 96.554 128.13L111.034 129.963C111.124 129.974 111.21 130.006 111.285 130.058C111.36 130.109 111.422 130.177 111.465 130.257C111.509 130.337 111.532 130.427 111.534 130.517C111.536 130.608 111.516 130.699 111.476 130.78L101.715 150.788C101.655 150.903 101.559 150.995 101.442 151.051C101.325 151.106 101.193 151.121 101.066 151.093L88.1785 147.892L87.687 146.985Z" fill="url(#paint36_linear_2311_739)"/>
<path d="M98.9721 128.358L99.6209 126.87C99.6671 126.771 99.7429 126.688 99.838 126.633C99.933 126.578 100.043 126.555 100.152 126.565L107.593 127.442C107.673 127.453 107.749 127.483 107.816 127.528C107.882 127.574 107.937 127.635 107.976 127.705C108.015 127.776 108.037 127.855 108.041 127.936C108.044 128.016 108.029 128.097 107.996 128.171L107.269 129.786C107.222 129.887 107.144 129.969 107.047 130.022C106.95 130.076 106.838 130.096 106.728 130.082L99.3653 129.077C99.2867 129.066 99.2118 129.036 99.1465 128.991C99.0812 128.946 99.0273 128.886 98.9892 128.816C98.951 128.746 98.9296 128.668 98.9266 128.589C98.9237 128.509 98.9392 128.43 98.9721 128.358Z" fill="url(#paint37_linear_2311_739)"/>
<path d="M109.117 133.362H109.078L95.9642 131.678C95.9255 131.672 95.8882 131.66 95.8544 131.64C95.8206 131.62 95.791 131.594 95.7672 131.563C95.7435 131.532 95.7261 131.497 95.7161 131.459C95.706 131.421 95.7035 131.382 95.7087 131.343C95.7138 131.304 95.7266 131.267 95.7462 131.233C95.7658 131.199 95.7918 131.169 95.8228 131.145C95.8539 131.122 95.8893 131.104 95.9271 131.094C95.9648 131.084 96.0042 131.081 96.0429 131.087L109.157 132.771C109.235 132.776 109.308 132.813 109.359 132.872C109.411 132.931 109.437 133.008 109.432 133.086C109.427 133.165 109.391 133.238 109.332 133.29C109.273 133.341 109.195 133.367 109.117 133.362Z" fill="url(#paint38_linear_2311_739)"/>
<path d="M108.439 134.691H108.409L95.3545 132.878C95.2839 132.86 95.2226 132.816 95.1824 132.755C95.1423 132.694 95.1262 132.62 95.1372 132.548C95.1482 132.476 95.1855 132.41 95.242 132.364C95.2985 132.317 95.3701 132.294 95.443 132.297L108.488 134.11C108.527 134.115 108.564 134.127 108.598 134.147C108.632 134.166 108.662 134.192 108.686 134.224C108.71 134.255 108.727 134.29 108.737 134.328C108.747 134.366 108.749 134.406 108.743 134.445C108.728 134.514 108.689 134.576 108.634 134.621C108.579 134.666 108.51 134.691 108.439 134.691Z" fill="url(#paint39_linear_2311_739)"/>
<path d="M101.882 136.77H101.833L94.7157 135.588C94.6393 135.571 94.5718 135.527 94.5264 135.463C94.4809 135.399 94.4608 135.321 94.4699 135.243C94.4759 135.204 94.4895 135.167 94.5102 135.133C94.5308 135.099 94.558 135.07 94.59 135.047C94.6221 135.024 94.6585 135.008 94.6969 134.999C94.7354 134.991 94.7752 134.99 94.814 134.997L101.931 136.189C102.008 136.201 102.077 136.243 102.123 136.306C102.169 136.368 102.188 136.447 102.177 136.524C102.165 136.593 102.129 136.656 102.075 136.702C102.021 136.747 101.952 136.771 101.882 136.77Z" fill="url(#paint40_linear_2311_739)"/>
<path d="M105.146 148.404C105.146 148.404 108.055 146.414 108.399 145.015C108.743 143.617 108.655 140.986 108.655 140.986L106.954 144.69C106.954 144.69 106.129 144.454 105.775 143.232C105.421 142.011 104.831 143.134 105.067 144.06C105.303 144.986 105.146 148.404 105.146 148.404Z" fill="url(#paint41_linear_2311_739)"/>
<path d="M82.7128 123.539C84.9848 124.914 86.987 126.694 88.6209 128.79C94.4502 136.355 92.1794 144.423 97.0061 147.27C98.3824 148.088 100.81 148.748 105.185 147.201L106.866 148.098C106.866 148.098 108.911 158.53 96.259 158.924C83.6074 159.318 77.3062 143.556 77.3062 143.556L82.7128 123.539Z" fill="url(#paint42_linear_2311_739)"/>
<path d="M70.5229 108.783C70.0903 108.763 69.7266 108.221 69.4415 108.389C69.1565 108.556 69.186 109.354 69.4612 109.906C69.6402 110.251 69.9173 110.536 70.2575 110.723C69.8105 111.355 69.5084 112.079 69.3727 112.841C69.0287 114.91 70.1592 116.545 70.631 117.511C72.774 121.835 69.7365 128.81 66.3155 132.376C63.5335 135.272 62.1868 134.159 60.5353 136.513C57.3306 141.084 62 145.941 60.4173 152.048C58.0187 161.328 43.5386 164.392 42.939 164.51L42.3 164.628C35.8022 165.81 25.9522 167.593 18.8743 162.382C13.5758 158.481 11.0396 151.546 11.305 145.379C11.3738 143.764 11.7277 137.607 16.6232 132.494C17.3998 131.676 21.9906 126.879 28.3311 126.682C31.6931 126.583 32.391 127.756 34.9469 126.958C38.4465 125.884 40.5404 122.633 41.8478 120.614C44.2366 116.9 43.2142 116.141 44.9542 114.309C48.3653 110.713 52.5137 113.383 56.1706 110.201C59.8275 107.019 57.478 102.941 60.958 100.212C64.4379 97.4835 71.5649 98.2026 73.1279 101.434C74.4648 104.202 71.8303 108.871 70.5229 108.783Z" fill="url(#paint43_linear_2311_739)"/>
<path d="M36.8736 279.637C48.9263 279.637 58.6969 275.641 58.6969 270.712C58.6969 265.783 48.9263 261.787 36.8736 261.787C24.8209 261.787 15.0503 265.783 15.0503 270.712C15.0503 275.641 24.8209 279.637 36.8736 279.637Z" fill="#B7C0CE"/>
<path d="M15.0601 269.669C15.0601 274.319 24.8314 278.091 36.8834 278.091C48.9354 278.091 58.7067 274.319 58.7067 269.669C58.7067 265.019 48.9354 257.404 36.8834 257.404C24.8314 257.404 15.0601 265.019 15.0601 269.669Z" fill="url(#paint44_linear_2311_739)"/>
<path d="M15.0601 269.669C15.0601 265.019 24.8314 257.404 36.8834 257.404C41.9615 257.414 46.9516 258.734 51.3733 261.236C51.6485 261.798 51.7763 262.359 51.7173 262.901C51.4716 265.512 47.2052 267.127 44.7673 267.659C38.6037 268.989 35.5956 265.305 30.5232 265.443C27.3775 265.531 23.0325 267.108 17.8715 273.806C16.0824 272.585 15.0601 271.176 15.0601 269.669Z" fill="#B7C0CE"/>
<path d="M35.6844 261.631C36.4897 261.841 37.3349 261.845 38.1419 261.641C38.4787 261.55 38.7759 261.35 38.9874 261.072C39.199 260.794 39.313 260.454 39.3117 260.104V235.447H34.4556V260.075C34.4567 260.435 34.5784 260.784 34.8013 261.066C35.0241 261.348 35.3351 261.547 35.6844 261.631Z" fill="white"/>
<path d="M35.6844 261.631C36.4897 261.841 37.3349 261.845 38.1419 261.641C38.4787 261.55 38.7759 261.35 38.9874 261.072C39.199 260.794 39.313 260.454 39.3117 260.104V235.447H34.4556V260.075C34.4567 260.435 34.5784 260.784 34.8013 261.066C35.0241 261.348 35.3351 261.547 35.6844 261.631Z" fill="url(#paint45_linear_2311_739)"/>
<path d="M62.5211 225.073L55.109 220.374C54.8043 218.621 51.3047 200.268 37.1195 194.505C31.3491 192.161 25.1462 192.437 21.7351 192.594C14.9325 192.9 10.0861 193.116 7.74651 196.367C4.74826 200.534 9.7814 204.327 8.73938 216.266C8.31668 221.133 7.23534 223.3 8.58209 226.521C10.1844 230.393 13.92 232.53 16.8297 233.732C20.2998 235.752 26.3357 238.638 34.3179 239.337C47.7658 240.52 57.8025 234.737 61.253 232.521C62.0056 232.283 62.6812 231.848 63.21 231.261C63.7388 230.673 64.1016 229.956 64.2611 229.181C64.4237 228.4 64.3442 227.588 64.0332 226.854C63.7222 226.12 63.1945 225.498 62.5211 225.073Z" fill="url(#paint46_linear_2311_739)"/>
<path d="M88.2178 178.41L151.8 177.928V179.336C151.8 179.52 151.735 179.697 151.616 179.836C151.497 179.975 151.332 180.067 151.152 180.095L133.172 182.863C132.956 182.893 132.739 182.903 132.228 183.237L88.6012 180.085C88.5127 179.711 88.2178 179.386 88.2178 178.992V178.41Z" fill="url(#paint47_linear_2311_739)"/>
<path d="M111.29 176.086L151.152 178.657C151.859 178.696 152.439 178.214 152.439 177.563V151.596C152.439 150.956 151.859 150.424 151.152 150.424H111.29C111.008 150.424 110.738 150.536 110.539 150.735C110.34 150.935 110.228 151.206 110.228 151.488V174.963C110.232 175.249 110.344 175.524 110.54 175.732C110.737 175.94 111.004 176.066 111.29 176.086Z" fill="url(#paint48_linear_2311_739)"/>
<path d="M150.513 150.424H110.002C109.892 150.424 109.787 150.467 109.71 150.545C109.632 150.623 109.589 150.728 109.589 150.838V175.564C109.591 175.686 109.638 175.803 109.722 175.893C109.806 175.982 109.919 176.037 110.041 176.046L150.513 178.657C151.22 178.696 151.8 178.214 151.8 177.563V151.596C151.8 150.956 151.22 150.424 150.513 150.424Z" fill="url(#paint49_linear_2311_739)"/>
<path d="M111.899 174.431L149.018 176.668C149.598 176.697 150.07 176.293 150.07 175.771V153.035C150.07 152.503 149.598 152.079 149.018 152.07L111.899 151.932C111.784 151.93 111.671 151.952 111.565 151.995C111.459 152.038 111.362 152.101 111.281 152.182C111.199 152.263 111.135 152.359 111.091 152.465C111.047 152.57 111.024 152.684 111.024 152.799V173.505C111.026 173.742 111.117 173.969 111.28 174.141C111.442 174.313 111.663 174.417 111.899 174.431Z" fill="#F4F7FA"/>
<g style="mix-blend-mode:soft-light" opacity="0.95">
<path d="M120.098 168.983C123.184 167.476 125.612 169.377 127.952 167.496C129.377 166.353 128.679 165.506 130.429 163.792C132.366 161.9 133.624 162.541 135.57 160.836C138.028 158.689 136.799 157.014 138.923 155.468C141.488 153.586 144.26 155.33 146.708 153.527C147.77 152.749 148.35 151.626 148.645 150.424H151.043C151.466 150.424 151.8 150.729 151.8 151.113V178.046C151.8 178.43 151.466 178.716 151.043 178.686L110.218 176.056C110.122 176.051 110.027 176.025 109.942 175.979C109.857 175.933 109.784 175.868 109.727 175.79C112.715 175.692 114.553 174.776 115.723 173.84C118.023 171.998 117.62 170.185 120.098 168.983Z" fill="white"/>
</g>
<path d="M129.181 151.134C129.181 151.193 129.192 151.251 129.215 151.306C129.238 151.36 129.272 151.409 129.314 151.451C129.356 151.492 129.406 151.524 129.461 151.546C129.515 151.568 129.574 151.578 129.633 151.577C129.696 151.586 129.76 151.582 129.821 151.565C129.882 151.547 129.939 151.516 129.987 151.475C130.035 151.433 130.074 151.381 130.101 151.323C130.127 151.265 130.141 151.202 130.141 151.139C130.141 151.075 130.127 151.012 130.101 150.954C130.074 150.896 130.035 150.844 129.987 150.803C129.939 150.761 129.882 150.73 129.821 150.713C129.76 150.695 129.696 150.691 129.633 150.7C129.575 150.699 129.517 150.709 129.463 150.73C129.409 150.751 129.359 150.783 129.317 150.823C129.275 150.863 129.241 150.911 129.218 150.965C129.195 151.018 129.182 151.075 129.181 151.134Z" fill="white"/>
<path d="M121.1 173.377H121.169V153.143H121.1V173.377Z" fill="#D8DEE8"/>
<path d="M121.985 168.284L149.028 169.466V169.397L121.985 168.225V168.284Z" fill="#D8DEE8"/>
<path d="M120.009 173.672L112.341 173.189V153.143H120.009V173.672Z" fill="#D8DEE8"/>
<path d="M148.428 161.555L121.985 160.925V153.143H148.428V161.555Z" fill="#D8DEE8"/>
<path d="M148.428 168.845L121.985 167.663V162.166L148.428 162.905V168.845Z" fill="#D8DEE8"/>
<path d="M109.068 176.018L151.8 178.717L133.172 181.584C132.957 181.615 132.739 181.621 132.523 181.603L88.2178 178.412L108.39 176.037C108.614 176.006 108.842 176 109.068 176.018Z" fill="url(#paint50_linear_2311_739)"/>
<path opacity="0.47" d="M145.568 178.746L109.982 176.461L98.9722 177.742L134.243 180.185L145.568 178.746Z" fill="#D8DEE8"/>
<path d="M137.713 189.868L170.596 184.913C170.951 184.854 171.315 184.864 171.667 184.943L184.476 187.681C185.371 187.868 185.341 189.159 184.437 189.307L153.53 194.538C153.426 194.557 153.32 194.557 153.216 194.538L137.664 191.031C137.035 190.893 137.064 189.967 137.713 189.868Z" fill="url(#paint51_linear_2311_739)"/>
<path d="M137.713 188.921L170.596 183.956C170.952 183.902 171.315 183.912 171.667 183.986L184.476 186.725C185.371 186.922 185.341 188.202 184.437 188.36L153.53 193.591C153.426 193.607 153.319 193.604 153.216 193.581L137.664 190.074C137.035 189.936 137.064 189.02 137.713 188.921Z" fill="url(#paint52_linear_2311_739)"/>
<path d="M137.713 188.125L170.596 183.16C170.952 183.11 171.314 183.12 171.667 183.189L184.476 185.928C185.371 186.125 185.341 187.406 184.437 187.563L153.53 192.794C153.426 192.81 153.319 192.807 153.216 192.784L137.664 189.287C137.529 189.257 137.409 189.18 137.325 189.07C137.241 188.96 137.198 188.824 137.204 188.685C137.21 188.547 137.264 188.415 137.357 188.312C137.45 188.21 137.576 188.144 137.713 188.125Z" fill="url(#paint53_linear_2311_739)"/>
<path d="M137.713 187.169L170.596 182.204C170.952 182.153 171.315 182.166 171.667 182.244L184.476 184.982C185.371 185.17 185.341 186.46 184.437 186.608L153.53 191.839C153.426 191.86 153.318 191.856 153.216 191.829L137.664 188.332C137.529 188.301 137.409 188.225 137.325 188.115C137.241 188.005 137.198 187.868 137.204 187.73C137.21 187.591 137.264 187.459 137.357 187.357C137.45 187.254 137.576 187.188 137.713 187.169Z" fill="url(#paint54_linear_2311_739)"/>
<path d="M137.713 186.37L170.596 181.406C170.952 181.354 171.315 181.368 171.667 181.445L184.476 184.184C185.371 184.371 185.341 185.661 184.437 185.809L153.53 191.04C153.426 191.061 153.318 191.058 153.216 191.03L137.664 187.533C137.035 187.395 137.064 186.469 137.713 186.37Z" fill="url(#paint55_linear_2311_739)"/>
<path d="M137.713 185.425L170.596 180.46C170.951 180.401 171.315 180.411 171.667 180.49L184.476 183.228C185.371 183.415 185.341 184.706 184.437 184.863L153.53 190.094C153.425 190.106 153.32 190.102 153.216 190.084L137.664 186.577C137.035 186.44 137.064 185.523 137.713 185.425Z" fill="url(#paint56_linear_2311_739)"/>
<path d="M81.1886 96.8433C78.7311 93.7599 77.3057 90.1248 77.3057 86.2435C77.3057 74.9641 89.2987 65.8125 104.093 65.8125C118.888 65.8125 130.881 74.9641 130.881 86.2435C130.881 97.523 118.888 106.684 104.093 106.684C98.549 106.684 93.3979 105.394 89.1217 103.197C86.3004 103.68 81.9161 104.488 79.606 104.921C79.4505 104.95 79.2902 104.937 79.1413 104.884C78.9924 104.831 78.8603 104.739 78.7584 104.618C78.6565 104.496 78.5885 104.35 78.5612 104.194C78.534 104.038 78.5485 103.878 78.6033 103.729L81.1886 96.8433Z" fill="url(#paint57_linear_2311_739)"/>
<g style="mix-blend-mode:multiply" opacity="0.3">
<path d="M89.4363 90.5674C95.4427 88.0455 102.049 93.3848 106.177 89.6513C110.306 85.9177 105.843 78.4802 109.824 73.1902C111.731 70.6585 114.926 69.4665 118.573 69.0527C125.976 72.6878 130.881 79.0318 130.881 86.2428C130.881 97.5321 118.888 106.684 104.093 106.684C98.549 106.684 93.3979 105.393 89.1217 103.196C86.9001 103.581 83.6954 104.162 81.3066 104.605C83.0761 95.4535 86.3103 91.8874 89.4363 90.5674Z" fill="url(#paint58_linear_2311_739)"/>
</g>
<defs>
<linearGradient id="paint0_linear_2311_739" x1="226.765" y1="-2.2812" x2="174.299" y2="208.891" gradientUnits="userSpaceOnUse">
<stop stop-color="#AA80F9"/>
<stop offset="1" stop-color="#6165D7"/>
</linearGradient>
<linearGradient id="paint1_linear_2311_739" x1="251.1" y1="51.3039" x2="180.57" y2="193.809" gradientUnits="userSpaceOnUse">
<stop stop-color="#E38DDD"/>
<stop offset="1" stop-color="#9571F6"/>
</linearGradient>
<linearGradient id="paint2_linear_2311_739" x1="232.342" y1="109.268" x2="199.345" y2="201.024" gradientUnits="userSpaceOnUse">
<stop stop-color="#FF9085"/>
<stop offset="1" stop-color="#FB6FBB"/>
</linearGradient>
<linearGradient id="paint3_linear_2311_739" x1="1.30434" y1="192.537" x2="253.966" y2="-58.1527" gradientUnits="userSpaceOnUse">
<stop stop-color="#EBEFF2"/>
<stop offset="1" stop-color="white"/>
</linearGradient>
<linearGradient id="paint4_linear_2311_739" x1="187.205" y1="232.664" x2="232.056" y2="232.664" gradientUnits="userSpaceOnUse">
<stop stop-color="#D0D1D3"/>
<stop offset="1" stop-color="#EBEFF2"/>
</linearGradient>
<linearGradient id="paint5_linear_2311_739" x1="207.137" y1="213.006" x2="212.124" y2="213.006" gradientUnits="userSpaceOnUse">
<stop stop-color="#D0D1D3"/>
<stop offset="1" stop-color="#EBEFF2"/>
</linearGradient>
<linearGradient id="paint6_linear_2311_739" x1="234.385" y1="207.692" x2="225.218" y2="195.772" gradientUnits="userSpaceOnUse">
<stop stop-color="#311944"/>
<stop offset="1" stop-color="#893976"/>
</linearGradient>
<linearGradient id="paint7_linear_2311_739" x1="213.542" y1="181.024" x2="225.333" y2="149.835" gradientUnits="userSpaceOnUse">
<stop stop-color="#311944"/>
<stop offset="1" stop-color="#893976"/>
</linearGradient>
<linearGradient id="paint8_linear_2311_739" x1="206.972" y1="186.591" x2="206.792" y2="201.862" gradientUnits="userSpaceOnUse">
<stop stop-color="#311944"/>
<stop offset="1" stop-color="#893976"/>
</linearGradient>
<linearGradient id="paint9_linear_2311_739" x1="161.165" y1="212.769" x2="174.846" y2="262.037" gradientUnits="userSpaceOnUse">
<stop stop-color="#311944"/>
<stop offset="1" stop-color="#893976"/>
</linearGradient>
<linearGradient id="paint10_linear_2311_739" x1="173.293" y1="247.614" x2="173.491" y2="230.988" gradientUnits="userSpaceOnUse">
<stop stop-color="#FFC444"/>
<stop offset="1" stop-color="#F36F56"/>
</linearGradient>
<linearGradient id="paint11_linear_2311_739" x1="178.226" y1="208.032" x2="191.908" y2="257.3" gradientUnits="userSpaceOnUse">
<stop stop-color="#311944"/>
<stop offset="1" stop-color="#893976"/>
</linearGradient>
<linearGradient id="paint12_linear_2311_739" x1="192.478" y1="247.841" x2="192.677" y2="231.216" gradientUnits="userSpaceOnUse">
<stop stop-color="#FFC444"/>
<stop offset="1" stop-color="#F36F56"/>
</linearGradient>
<linearGradient id="paint13_linear_2311_739" x1="163.73" y1="194.143" x2="181.394" y2="194.143" gradientUnits="userSpaceOnUse">
<stop stop-color="#444B8C"/>
<stop offset="1" stop-color="#26264F"/>
</linearGradient>
<linearGradient id="paint14_linear_2311_739" x1="163.73" y1="194.143" x2="181.394" y2="194.143" gradientUnits="userSpaceOnUse">
<stop stop-color="#444B8C"/>
<stop offset="1" stop-color="#26264F"/>
</linearGradient>
<linearGradient id="paint15_linear_2311_739" x1="173.703" y1="196.673" x2="200.517" y2="196.673" gradientUnits="userSpaceOnUse">
<stop stop-color="#444B8C"/>
<stop offset="1" stop-color="#26264F"/>
</linearGradient>
<linearGradient id="paint16_linear_2311_739" x1="111.125" y1="122.265" x2="127.751" y2="139.153" gradientUnits="userSpaceOnUse">
<stop stop-color="#FFC444"/>
<stop offset="1" stop-color="#F36F56"/>
</linearGradient>
<linearGradient id="paint17_linear_2311_739" x1="190.587" y1="72.4671" x2="111.017" y2="153.648" gradientUnits="userSpaceOnUse">
<stop stop-color="#6165D7"/>
<stop offset="1" stop-color="#AA80F9"/>
</linearGradient>
<linearGradient id="paint18_linear_2311_739" x1="227.602" y1="199.857" x2="167.587" y2="113.877" gradientUnits="userSpaceOnUse">
<stop stop-color="#6165D7"/>
<stop offset="1" stop-color="#AA80F9"/>
</linearGradient>
<linearGradient id="paint19_linear_2311_739" x1="227.596" y1="199.861" x2="167.58" y2="113.881" gradientUnits="userSpaceOnUse">
<stop stop-color="#AA80F9"/>
<stop offset="1" stop-color="#6165D7"/>
</linearGradient>
<linearGradient id="paint20_linear_2311_739" x1="191.153" y1="152.103" x2="200.806" y2="152.103" gradientUnits="userSpaceOnUse">
<stop stop-color="#FFC444"/>
<stop offset="1" stop-color="#F36F56"/>
</linearGradient>
<linearGradient id="paint21_linear_2311_739" x1="244.385" y1="188.141" x2="184.369" y2="102.161" gradientUnits="userSpaceOnUse">
<stop stop-color="#6165D7"/>
<stop offset="1" stop-color="#AA80F9"/>
</linearGradient>
<linearGradient id="paint22_linear_2311_739" x1="169.459" y1="104.011" x2="179.104" y2="89.8492" gradientUnits="userSpaceOnUse">
<stop stop-color="#FFC444"/>
<stop offset="1" stop-color="#F36F56"/>
</linearGradient>
<linearGradient id="paint23_linear_2311_739" x1="177.169" y1="98.4548" x2="169.988" y2="80.2516" gradientUnits="userSpaceOnUse">
<stop stop-color="#444B8C"/>
<stop offset="1" stop-color="#3E4177"/>
</linearGradient>
<linearGradient id="paint24_linear_2311_739" x1="162.228" y1="93.1123" x2="177.601" y2="84.7531" gradientUnits="userSpaceOnUse">
<stop stop-color="#FFC444"/>
<stop offset="1" stop-color="#F36F56"/>
</linearGradient>
<linearGradient id="paint25_linear_2311_739" x1="72.203" y1="276.001" x2="65.2051" y2="251.762" gradientUnits="userSpaceOnUse">
<stop stop-color="#444B8C"/>
<stop offset="1" stop-color="#26264F"/>
</linearGradient>
<linearGradient id="paint26_linear_2311_739" x1="65.9703" y1="271.211" x2="66.513" y2="232.421" gradientUnits="userSpaceOnUse">
<stop stop-color="#FFC444"/>
<stop offset="1" stop-color="#F36F56"/>
</linearGradient>
<linearGradient id="paint27_linear_2311_739" x1="80.2118" y1="271.411" x2="80.7546" y2="232.621" gradientUnits="userSpaceOnUse">
<stop stop-color="#FFC444"/>
<stop offset="1" stop-color="#F36F56"/>
</linearGradient>
<linearGradient id="paint28_linear_2311_739" x1="82.8926" y1="272.914" x2="75.8947" y2="248.675" gradientUnits="userSpaceOnUse">
<stop stop-color="#444B8C"/>
<stop offset="1" stop-color="#26264F"/>
</linearGradient>
<linearGradient id="paint29_linear_2311_739" x1="63.7915" y1="187.463" x2="59.1007" y2="267.565" gradientUnits="userSpaceOnUse">
<stop stop-color="#311944"/>
<stop offset="1" stop-color="#893976"/>
</linearGradient>
<linearGradient id="paint30_linear_2311_739" x1="63.7915" y1="187.463" x2="59.1007" y2="267.565" gradientUnits="userSpaceOnUse">
<stop stop-color="#311944"/>
<stop offset="1" stop-color="#893976"/>
</linearGradient>
<linearGradient id="paint31_linear_2311_739" x1="117.507" y1="222.32" x2="52.3765" y2="218.456" gradientUnits="userSpaceOnUse">
<stop stop-color="#311944"/>
<stop offset="1" stop-color="#893976"/>
</linearGradient>
<linearGradient id="paint32_linear_2311_739" x1="20.8116" y1="238.081" x2="68.5655" y2="139.852" gradientUnits="userSpaceOnUse">
<stop stop-color="#FF9085"/>
<stop offset="1" stop-color="#FB6FBB"/>
</linearGradient>
<linearGradient id="paint33_linear_2311_739" x1="91.6562" y1="127.467" x2="42.038" y2="193.399" gradientUnits="userSpaceOnUse">
<stop stop-color="#FF9085"/>
<stop offset="1" stop-color="#FB6FBB"/>
</linearGradient>
<linearGradient id="paint34_linear_2311_739" x1="73.5271" y1="110.421" x2="64.9769" y2="123.803" gradientUnits="userSpaceOnUse">
<stop stop-color="#FFC444"/>
<stop offset="1" stop-color="#F36F56"/>
</linearGradient>
<linearGradient id="paint35_linear_2311_739" x1="104.284" y1="131.78" x2="87.0496" y2="158.752" gradientUnits="userSpaceOnUse">
<stop stop-color="#444B8C"/>
<stop offset="1" stop-color="#26264F"/>
</linearGradient>
<linearGradient id="paint36_linear_2311_739" x1="102.653" y1="132.449" x2="88.0876" y2="159.738" gradientUnits="userSpaceOnUse">
<stop stop-color="#FFC444"/>
<stop offset="1" stop-color="#F36F56"/>
</linearGradient>
<linearGradient id="paint37_linear_2311_739" x1="102.592" y1="130.009" x2="106.721" y2="121.76" gradientUnits="userSpaceOnUse">
<stop stop-color="#AA80F9"/>
<stop offset="1" stop-color="#6165D7"/>
</linearGradient>
<linearGradient id="paint38_linear_2311_739" x1="104.213" y1="116.65" x2="100.519" y2="151.355" gradientUnits="userSpaceOnUse">
<stop stop-color="#FFC444"/>
<stop offset="1" stop-color="#F36F56"/>
</linearGradient>
<linearGradient id="paint39_linear_2311_739" x1="103.712" y1="116.596" x2="100.018" y2="151.301" gradientUnits="userSpaceOnUse">
<stop stop-color="#FFC444"/>
<stop offset="1" stop-color="#F36F56"/>
</linearGradient>
<linearGradient id="paint40_linear_2311_739" x1="100.405" y1="116.244" x2="96.7116" y2="150.95" gradientUnits="userSpaceOnUse">
<stop stop-color="#FFC444"/>
<stop offset="1" stop-color="#F36F56"/>
</linearGradient>
<linearGradient id="paint41_linear_2311_739" x1="107.689" y1="142.595" x2="103.554" y2="149.066" gradientUnits="userSpaceOnUse">
<stop stop-color="#FFC444"/>
<stop offset="1" stop-color="#F36F56"/>
</linearGradient>
<linearGradient id="paint42_linear_2311_739" x1="41.4172" y1="248.101" x2="89.1721" y2="149.87" gradientUnits="userSpaceOnUse">
<stop stop-color="#FF9085"/>
<stop offset="1" stop-color="#FB6FBB"/>
</linearGradient>
<linearGradient id="paint43_linear_2311_739" x1="26.4391" y1="166.378" x2="61.2661" y2="94.7397" gradientUnits="userSpaceOnUse">
<stop stop-color="#444B8C"/>
<stop offset="1" stop-color="#26264F"/>
</linearGradient>
<linearGradient id="paint44_linear_2311_739" x1="15.0591" y1="267.748" x2="58.7037" y2="267.748" gradientUnits="userSpaceOnUse">
<stop stop-color="#D0D1D3"/>
<stop offset="1" stop-color="#EBEFF2"/>
</linearGradient>
<linearGradient id="paint45_linear_2311_739" x1="39.3078" y1="248.619" x2="34.4556" y2="248.619" gradientUnits="userSpaceOnUse">
<stop stop-color="#D0D1D3"/>
<stop offset="1" stop-color="#EBEFF2"/>
</linearGradient>
<linearGradient id="paint46_linear_2311_739" x1="12.7924" y1="243.447" x2="21.7134" y2="231.848" gradientUnits="userSpaceOnUse">
<stop stop-color="#311944"/>
<stop offset="1" stop-color="#893976"/>
</linearGradient>
<linearGradient id="paint47_linear_2311_739" x1="125.164" y1="163.941" x2="120.652" y2="177.012" gradientUnits="userSpaceOnUse">
<stop stop-color="#444B8C"/>
<stop offset="1" stop-color="#26264F"/>
</linearGradient>
<linearGradient id="paint48_linear_2311_739" x1="110.228" y1="164.541" x2="152.44" y2="164.541" gradientUnits="userSpaceOnUse">
<stop stop-color="#311944"/>
<stop offset="1" stop-color="#893976"/>
</linearGradient>
<linearGradient id="paint49_linear_2311_739" x1="109.593" y1="164.541" x2="151.805" y2="164.541" gradientUnits="userSpaceOnUse">
<stop stop-color="#444B8C"/>
<stop offset="1" stop-color="#26264F"/>
</linearGradient>
<linearGradient id="paint50_linear_2311_739" x1="88.2138" y1="178.812" x2="151.805" y2="178.812" gradientUnits="userSpaceOnUse">
<stop stop-color="#444B8C"/>
<stop offset="1" stop-color="#26264F"/>
</linearGradient>
<linearGradient id="paint51_linear_2311_739" x1="159.708" y1="186.368" x2="173.467" y2="215.221" gradientUnits="userSpaceOnUse">
<stop stop-color="#FFC444"/>
<stop offset="1" stop-color="#F36F56"/>
</linearGradient>
<linearGradient id="paint52_linear_2311_739" x1="164.543" y1="179.753" x2="159.774" y2="192.127" gradientUnits="userSpaceOnUse">
<stop stop-color="#FFC444"/>
<stop offset="1" stop-color="#F36F56"/>
</linearGradient>
<linearGradient id="paint53_linear_2311_739" x1="159.708" y1="184.62" x2="173.467" y2="213.473" gradientUnits="userSpaceOnUse">
<stop stop-color="#FFC444"/>
<stop offset="1" stop-color="#F36F56"/>
</linearGradient>
<linearGradient id="paint54_linear_2311_739" x1="164.543" y1="178.006" x2="159.774" y2="190.379" gradientUnits="userSpaceOnUse">
<stop stop-color="#FFC444"/>
<stop offset="1" stop-color="#F36F56"/>
</linearGradient>
<linearGradient id="paint55_linear_2311_739" x1="159.708" y1="182.87" x2="173.467" y2="211.723" gradientUnits="userSpaceOnUse">
<stop stop-color="#FFC444"/>
<stop offset="1" stop-color="#F36F56"/>
</linearGradient>
<linearGradient id="paint56_linear_2311_739" x1="164.543" y1="176.256" x2="159.774" y2="188.63" gradientUnits="userSpaceOnUse">
<stop stop-color="#FFC444"/>
<stop offset="1" stop-color="#F36F56"/>
</linearGradient>
<linearGradient id="paint57_linear_2311_739" x1="130.878" y1="86.2465" x2="77.3086" y2="86.2465" gradientUnits="userSpaceOnUse">
<stop stop-color="#FF9085"/>
<stop offset="1" stop-color="#FB6FBB"/>
</linearGradient>
<linearGradient id="paint58_linear_2311_739" x1="123.807" y1="72.1243" x2="77.1973" y2="133.38" gradientUnits="userSpaceOnUse">
<stop stop-color="#FF9085"/>
<stop offset="1" stop-color="#FB6FBB"/>
</linearGradient>
</defs>
</svg>
