<svg viewBox="0 0 58 58" xmlns="http://www.w3.org/2000/svg" xmlns:xlink="http://www.w3.org/1999/xlink" id="Capa_1" overflow="hidden"><defs></defs><path d="M32 30 30 30C28.9 30 28 29.1 28 28L28 20C28 19.45 27.55 19 27 19L23.78 19 23.78 17 27 17C28.65 17 30 18.35 30 20L30 28 32 28 32 30Z" fill="#2093A7"/><path d="M56 30 55 30 55 28 56 28 56 20.97C56 20.72 55.9 20.48 55.71 20.29 55.52 20.1 55.27 20 55 20L55 20C54.07 21.25 52.57 22 51 22 48.24 22 46 19.76 46 17 46 14.24 48.2 12 51 12L51 12C52.58 12 54.04 12.73 55 14L55 14C55.54 14 56 13.56 56 13.04L56 2 47 2C46.45 2 46 2.45 46 3L46 4C47.25 4.93 48 6.43 48 8 48 10.76 45.76 13 43 13 41.65 13 40.38 12.48 39.45 11.54 38.52 10.6 38 9.35 38 8 38 6.44 38.75 4.94 40 4L40 3C40 2.45 39.55 2 39 2L30 2 30 10C30 11.65 28.65 13 27 13L23.04 13 23.04 11 27 11C27.55 11 28 10.55 28 10L28 2C28 0.9 28.9 0 30 0L39 0C40.65 0 42 1.35 42 3L42 4C42 4.62 41.69 5.23 41.2 5.6 40.44 6.17 40 7.05 40 8 40 8.81 40.31 9.57 40.86 10.13 41.42 10.69 42.18 11 43 11 44.65 11 46 9.65 46 8 46 7.04 45.56 6.16 44.79 5.59 44.29 5.22 44 4.64 44 4L44 3C44 1.35 45.35-1.77636e-15 47-1.77636e-15L56-1.77636e-15C57.1-1.77636e-15 58 0.9 58 2L58 13.03C58 14.67 56.65 16 55 16 54.38 16 53.77 15.69 53.4 15.2 52.83 14.44 51.95 14 51 14L51 14C49.32 14 48 15.32 48 17 48 18.68 49.35 20 51 20 51.96 20 52.84 19.56 53.41 18.79 53.79 18.29 54.36 18 55 18L55 18C55.79 18 56.54 18.31 57.1 18.86 57.68 19.42 57.99 20.17 57.99 20.97L57.99 28C57.99 29.1 57.09 30 55.99 30Z" fill="#2093A7"/><path d="M56 58 45.97 58C45.18 58 44.44 57.69 43.88 57.13 43.31 56.56 43 55.8 43 55 43 54.39 43.31 53.77 43.81 53.4 44.57 52.83 45.01 51.95 45.01 51 45.01 49.32 43.69 48 42.01 48L42.01 48C41.21 48 40.46 48.31 39.89 48.88 39.32 49.45 39.01 50.2 39.01 51 39.01 51.96 39.45 52.84 40.22 53.41 40.72 53.78 41 54.36 41 55 41 56.65 39.67 58 38.04 58L30 58C28.9 58 28 57.1 28 56L28 50.94C28 48.77 26.21 47 24 47L24 45C27.31 45 30 47.66 30 50.94L30 56 38.04 56C38.56 56 39 55.54 39 55 37.76 54.08 37 52.57 37 51 37 49.66 37.52 48.41 38.46 47.46 39.4 46.52 40.66 46 42 46L42 46C44.8 46 47 48.2 47 51 47 52.58 46.27 54.04 45 55 45 55.27 45.1 55.52 45.29 55.72 45.47 55.9 45.71 56.01 45.96 56.01L55.99 56.01 55.99 47.97C55.99 47.45 55.53 47.01 54.99 47.01 54.07 48.25 52.56 49.01 50.99 49.01 48.24 49.01 45.99 46.77 45.99 44.01 45.99 42.66 46.51 41.39 47.46 40.45 48.4 39.52 49.65 39.01 50.99 39.01 52.58 39.01 54.03 39.74 54.99 41 55.27 41 55.51 40.9 55.71 40.71 55.89 40.53 56 40.29 56 40.04L56 30.01 47 30.01C46.74 30.01 46.49 30.12 46.3 30.31 46.11 30.5 46 30.75 46 31.01 47.25 31.94 48 33.44 48 35.01 48 36.35 47.48 37.6 46.54 38.55 45.6 39.49 44.34 40.01 43.01 40.01L43.01 40.01C40.21 40.01 38.01 37.81 38.01 35.01 38.01 33.42 38.74 31.97 40.01 31.01 40.01 30.47 39.57 30.01 39.05 30.01L30.02 30.01 30.02 35.01C30.02 38.26 27.27 41.01 24.02 41.01L21.77 41.01 21.77 39.01 24.02 39.01C26.19 39.01 28.02 37.18 28.02 35.01L28.02 30.01C28.02 28.91 28.92 28.01 30.02 28.01L39.05 28.01C40.69 28.01 42.02 29.36 42.02 31.01 42.02 31.63 41.71 32.24 41.22 32.61 40.46 33.18 40.02 34.06 40.02 35.01 40.02 36.69 41.34 38.01 43.02 38.01L43.02 38.01C43.82 38.01 44.57 37.7 45.14 37.13 45.71 36.56 46.02 35.81 46.02 35.01 46.02 34.05 45.58 33.17 44.81 32.6 44.31 32.22 44.02 31.65 44.02 31.01 44.02 30.22 44.33 29.47 44.9 28.89 45.47 28.32 46.22 28.01 47.02 28.01L56.02 28.01C57.12 28.01 58.02 28.91 58.02 30.01L58.02 40.04C58.02 40.83 57.71 41.57 57.15 42.13 56.58 42.7 55.83 43.01 55.03 43.01L55.03 43.01C54.42 43.01 53.8 42.7 53.43 42.2 52.86 41.44 51.98 41.01 51.03 41.01 50.22 41.01 49.47 41.32 48.9 41.87 48.34 42.43 48.02 43.19 48.03 44 48.03 45.65 49.38 47 51.03 47 51.99 47 52.87 46.56 53.44 45.79 53.81 45.29 54.39 45.01 55.03 45.01 56.68 45.01 58.03 46.34 58.03 47.97L58.03 56.01C58.03 57.11 57.13 58.01 56.03 58.01Z" fill="#2093A7"/><path d="M19.67 9.59 16.06 6.06C14.73 4.73 12.95 4 11.04 4L11.01 4C9.13 4 7.41 4.73 6.17 6.03 5.96 6.25 5.76 6.48 5.56 6.7 4.66 7.72 3.72 8.77 2.15 8.99L2.01 8.99C2.01 8.99 0.01 8.99 0.01 8.99L0.01 6.99 1.93 6.99C2.71 6.85 3.23 6.3 4.07 5.36 4.28 5.12 4.49 4.88 4.72 4.64 6.34 2.94 8.57 2 11 1.99L11.04 1.99C13.49 1.99 15.77 2.92 17.47 4.63L21.07 8.16 19.67 9.59Z" fill="#2093A7"/><path d="M15 26 8.74 26C6.76 26 4.79 25.34 3.21 24.16L2.39 23.54C1.85 23.13 1.51 23 1.01 23L0 23 0 21 1 21C2.17 21 2.94 21.45 3.59 21.94L4.41 22.56C5.65 23.49 7.19 24 8.74 24L15 24C19.41 24 23 20.41 23 16 23 11.59 19.27 8 14.69 8L10 8 10 6 14.69 6C20.37 6 25 10.49 25 16 25 21.51 20.51 26 15 26Z" fill="#2093A7"/><path d="M19.19 39.13 16.05 36.06C14.72 34.73 12.94 34 11.04 34L11 34C9.12 34 7.4 34.73 6.16 36.03 5.95 36.25 5.75 36.48 5.55 36.7 4.65 37.72 3.71 38.77 2.14 38.99L2 38.99C2 38.99 1.33227e-15 38.99 1.33227e-15 38.99L1.33227e-15 36.99 1.92 36.99C2.7 36.85 3.22 36.3 4.06 35.36 4.27 35.12 4.48 34.88 4.71 34.64 6.33 32.94 8.56 32 10.99 31.99 13.42 32 15.74 32.91 17.45 34.63L20.58 37.69 19.18 39.12Z" fill="#2093A7"/><path d="M15 56 8.74 56C6.76 56 4.79 55.34 3.21 54.16L2.39 53.54C1.85 53.13 1.51 53 1.01 53L0 53 0 51 1 51C2.17 51 2.94 51.45 3.59 51.94L4.41 52.56C5.65 53.49 7.19 54 8.74 54L15 54C19.41 54 23 50.41 23 46 23 41.59 19.49 38 15 38L10 38 10 36 15 36C20.61 36 25 40.39 25 46 25 51.61 20.51 56 15 56Z" fill="#2093A7"/></svg>