<svg viewBox="0 0 60 56" xmlns="http://www.w3.org/2000/svg" xmlns:xlink="http://www.w3.org/1999/xlink" id="Capa_1" overflow="hidden"><defs></defs><path d="M34 52 6 52C3.24 52 1 49.76 1 47 1 45.9 1.9 45 3 45L37 45C38.1 45 39 45.9 39 47 39 49.76 36.76 52 34 52ZM37 47 3 47C3 48.66 4.35 50 6 50L34 50C35.65 50 37 48.65 37 47L37 47Z" fill="#515151"/><path d="M47 52 34 52 34 50 47 50C48.65 50 50 48.65 50 47L37 47 37 45 50 45C51.1 45 52 45.9 52 47 52 49.76 49.76 52 47 52Z" fill="#515151"/><path d="M51.87 48.15 49.92 47.69 56.96 17.84C56.99 17.73 57 17.61 57 17.49 57 16.66 56.33 15.99 55.5 15.99L42.84 15.99 42.84 13.99 55.5 13.99C57.43 13.99 59 15.56 59 17.49 59 17.76 58.97 18.03 58.91 18.29L51.87 48.14Z" fill="#515151"/><path d="M50.82 27 43.2 27 43.2 25 50.82 25 52 20 43.88 20 43.88 18 52 18C52.62 18 53.19 18.28 53.57 18.76 53.95 19.24 54.09 19.86 53.95 20.46L52.77 25.46C52.56 26.37 51.76 27 50.82 27Z" fill="#515151"/><path d="M20.88 24.05 18.93 23.59 20.65 16.31C20.97 14.95 22.17 14 23.57 14L33.99 14 33.99 16 23.57 16C23.1 16 22.7 16.32 22.6 16.77L20.88 24.05Z" fill="#515151"/><path d="M35 27 25 27C24.38 27 23.81 26.72 23.43 26.24 23.05 25.76 22.91 25.14 23.05 24.54L24.23 19.54C24.44 18.63 25.24 18 26.18 18L36 18 36 20 26.18 20 25 25 35 25 35 27Z" fill="#515151"/><rect x="9.63" y="38.62" width="13.12" height="2" fill="#515151" transform="matrix(0.22937 -0.973339 0.973339 0.22937 -26.09 46.28)"/><path d="M36.93 30.45 35.56 28.99C35.99 28.58 36.39 28.14 36.75 27.66L38.34 28.87C37.91 29.43 37.44 29.96 36.93 30.44Z" fill="#515151"/><path d="M28 34C20.83 34 15 28.17 15 21 15 13.83 20.83 8 28 8 35.17 8 41 13.83 41 21 41 22.81 40.64 24.56 39.92 26.2L38.09 25.4C38.7 24.01 39.01 22.53 39.01 21 39.01 14.93 34.08 10 28.01 10 21.94 10 17.01 14.93 17.01 21 17.01 27.07 21.94 32 28.01 32 29.86 32 31.69 31.53 33.3 30.65L34.26 32.4C32.36 33.45 30.19 34 28.01 34Z" fill="#515151"/><rect x="36" y="41" width="12" height="2" fill="#515151"/><rect x="32" y="41" width="2" height="2" fill="#515151"/><rect x="39" y="37" width="10" height="2" fill="#515151"/><rect x="47" y="50" width="9" height="2" fill="#515151"/><rect x="58" y="50" width="2" height="2" fill="#515151"/><rect x="0" y="50" width="6" height="2" fill="#515151"/><rect x="14" y="54" width="2" height="2" fill="#515151"/><rect x="18" y="54" width="17" height="2" fill="#515151"/><path d="M28 38C21.87 38 16.15 34.62 13.17 29.31L6.83 32.56C6.27 32.85 5.64 33 5.01 33 2.8 33 1.01 31.21 1.01 29 1.01 27.24 2.19 25.66 3.87 25.16L11.12 23.02C11.04 22.35 11 21.69 11 21 11 11.63 18.63 4 28 4 37.37 4 45 11.63 45 21 45 30.37 37.37 38 28 38ZM14.05 26.61 14.5 27.53C16.99 32.67 22.3 36 28.01 36 36.28 36 43.01 29.27 43.01 21 43.01 12.73 36.28 6 28.01 6 19.74 6 13.01 12.73 13.01 21 13.01 21.88 13.08 22.71 13.23 23.56L13.38 24.44 4.44 27.08C3.6 27.33 3.01 28.12 3.01 29 3.01 30.1 3.91 31 5.01 31 5.33 31 5.64 30.93 5.92 30.78L14.06 26.61Z" fill="#515151"/><path d="M12.23 10.4 10.57 9.28C10.96 8.7 11.38 8.14 11.83 7.59L13.37 8.87C12.96 9.36 12.58 9.88 12.23 10.4Z" fill="#515151"/><path d="M44.8 12.13C44 10.61 42.99 9.21 41.81 7.96L43.26 6.59C44.57 7.97 45.68 9.52 46.56 11.2L44.79 12.14Z" fill="#515151"/><path d="M40.05 6.31C39.59 5.93 39.11 5.57 38.62 5.24L39.74 3.58C40.28 3.94 40.81 4.34 41.32 4.76L40.05 6.31Z" fill="#515151"/><path d="M14.9 7.24 13.52 5.79C17.44 2.06 22.58 0 28 0L28 2C23.1 2 18.44 3.86 14.9 7.24Z" fill="#515151"/></svg>